<?xml version="1.0" encoding="UTF-8"?>
<svg xmlns="http://www.w3.org/2000/svg" viewBox="0 0 260.75 374.48">
  <defs>
    <style>
      .cls-1 {
        opacity: .4;
      }

      .cls-1, .cls-2, .cls-3, .cls-4, .cls-5, .cls-6, .cls-7, .cls-8, .cls-9 {
        mix-blend-mode: multiply;
      }

      .cls-2, .cls-10, .cls-11, .cls-3, .cls-12, .cls-13, .cls-4, .cls-14, .cls-15, .cls-16, .cls-17, .cls-18, .cls-19, .cls-6, .cls-7, .cls-20, .cls-8, .cls-21 {
        stroke-width: 0px;
      }

      .cls-2, .cls-3, .cls-12, .cls-14, .cls-17, .cls-20, .cls-8 {
        fill: #9ebd6f;
      }

      .cls-10 {
        fill: #568c59;
      }

      .cls-11 {
        fill: #455936;
      }

      .cls-3 {
        opacity: .5;
      }

      .cls-12 {
        opacity: .42;
      }

      .cls-12, .cls-17, .cls-22, .cls-20 {
        mix-blend-mode: screen;
      }

      .cls-13 {
        fill: #653624;
      }

      .cls-4 {
        fill: #25505f;
        opacity: .44;
      }

      .cls-23 {
        isolation: isolate;
      }

      .cls-15, .cls-7 {
        fill: #656668;
      }

      .cls-5 {
        opacity: .15;
      }

      .cls-16, .cls-6 {
        fill: #6e8b64;
      }

      .cls-18 {
        fill: #fff;
      }

      .cls-19 {
        fill: #b18052;
      }

      .cls-6 {
        opacity: .52;
      }

      .cls-20 {
        opacity: .38;
      }

      .cls-8 {
        opacity: .64;
      }

      .cls-21 {
        fill: #637a4d;
      }
    </style>
  </defs>
  <g class="cls-23">
    <g id="Layer_1" data-name="Layer 1">
      <g>
        <g>
          <g>
            <path class="cls-14" d="m27.33,157.14c-17.04-32.92,3.78-90.32,27.72-128.77-1.1-.88-2.2-1.78-3.34-2.62-1-.73-1.97-1.5-2.93-2.27-2.26-1.8-4.49-3.64-6.8-5.38-.37-.28-.74-.55-1.12-.83C31.95,29.53,9.61,64.19,1.83,112.42c-9.81,60.8,21.97,111.01,41.97,121.61l25.89-40.4s-25.11-3.14-42.37-36.48Z"/>
            <path class="cls-16" d="m27.33,157.14c-2.87-5.55-4.67-11.79-5.55-18.53-.05.76-.08,1.51-.11,2.27-.15,4.66,1.28,9.01,3.28,13.16.99,2.05,2.14,4.06,2.95,6.19.7,1.84,1.14,3.76,1.45,5.7.57,3.53.67,7.18,1.83,10.59.59,1.73,1.49,3.35,2.71,4.71,1.51,1.69,3.37,2.86,5.33,3.94,1.49.82,2.95,1.77,4.07,3.06,1.01,1.18,1.67,2.58,2.19,4.03.7,1.94,1.23,3.91,2.09,5.79.88,1.92,2.01,3.78,3.59,5.22,1.74,1.58,3.86,2.28,6.17,2.49,1.45.13,2.91.15,4.33.43l8.05-12.56s-25.11-3.14-42.37-36.48Z"/>
            <path class="cls-16" d="m13.88,195.39c-.79-2.08-1.59-4.15-2.46-6.2-.64-1.52-.95-3.09-.84-4.74.23-3.46,1.96-6.79,1-10.29-.89-3.22-3.56-5.66-4.11-9.01-.65-3.93,2.21-7.67.99-11.61-.52-1.68-1.53-3.16-2.2-4.78-.67-1.6-.84-3.09-.49-4.78.39-1.92,1.18-3.73,1.6-5.65.52-2.39-.09-4.61-.65-6.93-.47-1.91-.8-3.85-.64-5.82.14-1.69.7-3.28,1.33-4.85.82-2.05,1.59-4.05,1.69-6.28.1-2.15-.19-4.3-.16-6.46.05-3.5,1.09-6.8,2.46-9.99,1.47-3.43,3.22-6.79,4.05-10.45.92-4.02.3-8.29,2.32-12.04.88-1.63,2.12-3.01,3.28-4.44,1.34-1.66,2.33-3.38,3.01-5.41,1.19-3.52,1.39-7.26,2.32-10.85.93-3.59,2.77-6.48,5.58-8.87,1.34-1.14,2.74-2.24,3.87-3.59,1.57-1.86,2.09-3.81,2.09-6.22,0-1.82.09-3.47.74-5.18.61-1.62,1.49-3.14,2.42-4.6,1.26-1.99,2.7-3.89,3.98-5.88-1.01-.81-2.03-1.61-3.06-2.38-.37-.28-.74-.55-1.12-.83C31.95,29.53,9.61,64.19,1.83,112.42c-5.57,34.56,2.29,65.7,13.79,88.08-.54-1.71-1.1-3.42-1.74-5.11Z"/>
            <path class="cls-3" d="m27.33,157.14c-17.04-32.92,3.78-90.32,27.72-128.77-1.1-.88-2.2-1.78-3.34-2.62-1-.73-1.97-1.5-2.93-2.27-2.26-1.8-4.49-3.64-6.8-5.38-.37-.28-.74-.55-1.12-.83-2.9,4-7.23,10.37-12.02,18.82,1.71-.84,3.64-1.16,5.38-.14,2.78,1.63,1.41,5.32.58,7.68-1.7,4.87-8.63,25.15-10.47,30.39-22.77,64.69-7.81,82.92-3.41,92.15,3.36,7.06,9.06,13.04,12.77,20.03,4.76,8.96,2.66,16.09,1.02,25.57-.87,5.01-1.42,10.68.14,15.57,3.11,2.96,6.15,5.21,8.95,6.7l25.89-40.4s-25.11-3.14-42.37-36.48Z"/>
            <path class="cls-3" d="m27.33,157.14c-17.04-32.92,3.78-90.32,27.72-128.77-1.1-.88-2.2-1.78-3.34-2.62-1-.73-1.97-1.5-2.93-2.27-2.26-1.8-4.49-3.64-6.8-5.38-.37-.28-.74-.55-1.12-.83-1.74,2.39-3.99,5.64-6.54,9.67.32,1.28.81,2.51,1.49,3.63.94,1.55,2.29,2.59,3.69,3.68,1.1.86,2.14,1.79,2.67,3.12,1.18,3-.41,6.58-1.64,9.31-1.55,3.43-3.52,6.65-5.27,9.97-2.2,4.18-3.88,8.69-5.53,13.12-1.72,4.63-3.24,9.32-4.56,14.08-2.41,8.68-4.66,17.45-6.33,26.31-3.34,17.74-4.29,37.07,4.63,53.42,2.26,4.15,5.06,7.99,8.18,11.53,1.46,1.65,2.98,3.25,4.58,4.75,1.28,1.2,2.73,2.2,4.14,3.24,2.4,1.78,5.28,3.85,6.2,6.85,1.03,3.34-.17,6.75-1.6,9.79-.82,1.75-1.78,3.44-2.71,5.13-.99,1.8-1.83,3.68-2.69,5.55-1.9,4.14-4.01,8.63-4.37,13.24-.1,1.3-.13,2.62-.09,3.93,3.02,2.83,5.95,5,8.67,6.44l25.89-40.4s-25.11-3.14-42.37-36.48Z"/>
            <path class="cls-17" d="m16.62,189.19c-5.31-11.64-8.57-24.13-10.22-36.79-1.72-13.2-1.71-26.61-.35-39.84,1.35-13.16,4.03-26.2,7.91-38.85.12-.38.24-.77.36-1.15-1.29,3.79-2.45,7.62-3.5,11.48-3.62,13.34-5.88,27.07-6.78,40.86-.79,12.13-.53,24.31,1.54,36.31,2.01,11.67,5.57,23.16,11.2,33.6,5.32,9.88,12.56,18.72,21.66,25.32-.04-.03-.07-.07-.11-.1-9.17-8.75-16.46-19.33-21.71-30.85Z"/>
          </g>
          <g>
            <path class="cls-14" d="m69.05,20.99c-.54-.8-1.03-1.64-1.33-2.56-.33-1.03-.35-2.05-.31-3.11.04-1.05.04-2.11-.13-3.15-.18-1.09-.62-2.07-1.28-2.95-.01-.02-.03-.03-.05-.04.14-1.33.1-2.68-.32-3.96-1.44-4.44-6.8-6.24-10.95-4.61-1.07.42-2.07,1.05-2.97,1.77-.42.19-.87.34-1.28.49-.71.25-1.46.43-2.2.6-1.46.34-2.97.7-4.32,1.39-1.38.71-2.77,1.64-3.82,2.8-1.13,1.24-1.7,2.72-1.83,4.38-.07.83-.06,1.66-.11,2.49-1.12.78-2.13,1.69-2.9,2.83-.99,1.47-1.28,3.1-1.05,4.84.27,2.02.99,4.02,1.82,5.88.67,1.48,1.52,2.85,2.66,4.02,1.19,1.21,2.6,2.27,4.2,2.88,1.74.66,3.62.84,5.37,1.45,3.75,1.32,6.54,4.49,10.3,5.81,1.81.64,3.81.64,5.39-.57.64-.49,1.17-1.1,1.79-1.61.18-.15.37-.31.58-.46.42.11.86.12,1.34,0,1.79-.45,3.02-1.89,4.06-3.33,1.1-1.52,1.98-3.35,2.07-5.25.18-3.89-2.72-6.99-4.74-10.01Z"/>
            <path class="cls-8" d="m67.71,39.15c-.89-.05-1.77-.22-2.63-.45-.51-.14-1.01-.33-1.53-.44-.56-.13-1.14-.17-1.72-.17-1.86,0-4,.59-5.64-.58-1.4-.99-1.93-2.75-3.27-3.79-.88-.69-1.95-.87-3.04-.93,1.35,1.26,2.33,2.82,3.07,4.54.07.17-.1.45-.3.3-.65-.5-1.28-1.02-1.96-1.48-.67-.45-1.38-.81-2.15-1.07-1.45-.49-2.98-.7-4.4-1.29-4.43-1.83-7.36-6.3-8.29-10.88-.39-1.9-.42-4.06.86-5.65.69-.86,1.68-1.28,2.56-1.89.36-.25.7-.53.99-.84.32-.85.59-1.71.69-2.62.12-1.16.16-2.32.61-3.42.45-1.08,1.22-1.98,2.18-2.65,2.01-1.4,4.53-1.6,6.81-2.35.15-.05.32.11.27.27-.15.47-.42.91-.58,1.38.64-.67,1.25-1.39,2.02-1.92,1.04-.72,2.32-.91,3.55-1.06,3.48-.44,7.6,1.88,8.28,5.49.45,2.42-.47,4.8-.56,7.21-.08,2.07.43,4.08,1.2,5.99,0-1.23-.02-2.46.32-3.67.06-.2.37-.21.42,0,.31,1.43.74,2.77,1.56,4,.86,1.27,1.87,2.44,2.85,3.62.96,1.15,1.95,2.3,2.63,3.65.6,1.19.95,2.45,1.12,3.74.08-.39.14-.78.16-1.18.18-3.89-2.72-6.99-4.74-10.01-.54-.8-1.03-1.64-1.33-2.56-.33-1.03-.35-2.05-.31-3.11.04-1.05.04-2.11-.13-3.15-.18-1.09-.62-2.07-1.28-2.95-.01-.02-.03-.03-.05-.04.14-1.33.1-2.68-.32-3.96-1.44-4.44-6.8-6.24-10.95-4.61-1.07.42-2.07,1.05-2.97,1.77-.42.19-.87.34-1.28.49-.71.25-1.46.43-2.2.6-1.46.34-2.97.7-4.32,1.39-1.38.71-2.77,1.64-3.82,2.8-1.13,1.24-1.7,2.72-1.83,4.38-.07.83-.06,1.66-.11,2.49-1.12.78-2.13,1.69-2.9,2.83-.99,1.47-1.28,3.1-1.05,4.84.27,2.02.99,4.02,1.82,5.88.67,1.48,1.52,2.85,2.66,4.02,1.19,1.21,2.6,2.27,4.2,2.88,1.74.66,3.62.84,5.37,1.45,3.75,1.32,6.54,4.49,10.3,5.81,1.81.64,3.81.64,5.39-.57.64-.49,1.17-1.1,1.79-1.61.18-.15.37-.31.58-.46.42.11.86.12,1.34,0,.4-.1.76-.25,1.11-.43-.35.03-.71.03-1.06.01Z"/>
            <path class="cls-8" d="m70.91,33.7c-.3.52-.58,1.06-.79,1.62-.2.53-.39,1.12-.36,1.69.25-.09.47-.25.67-.43.76-.7,1.36-2.19.48-2.89Z"/>
            <path class="cls-8" d="m55.24,13.85c-.76-1.95-1.91-3.84-3.75-4.95-1.69-1.02-3.9-1.3-5.74-.51-1.34.58-2.31,1.66-2.87,2.96.43-.36.95-.61,1.47-.82.54-.22,1.09-.41,1.66-.54,1.45-.34,3,.28,3.97,1.39.12.14.04.36-.15.37-1.27.04-2.66.1-3.65,1-.52.47-.88,1.09-1.18,1.71-.33.69-.56,1.43-.67,2.19-.19,1.32.01,2.69.56,3.9.48,1.05,1.21,2.04,2.19,2.66,1.02.64,2.2.72,3.29.22.14-.06.33,0,.33.19-.02.57-.3,1.04-.56,1.53,1.04-.48,2.01-1.11,2.79-1.96.9-.97,1.49-2.17,1.91-3.42.07-.2.35-.21.42,0,.48,1.45,1.07,2.88,1.85,4.19.6,1,1.33,1.97,2.28,2.65-1.27-1.84-1.97-3.96-2.47-6.15-.5-2.22-.85-4.49-1.68-6.62Z"/>
            <g>
              <path class="cls-8" d="m47.82,21.26c.64.6,1.43,1.22,2.34,1.29.85.07,1.7-.41,2.3-.98.99-.94,1.44-2.36,1.44-3.7,0-1.28-.42-2.7-1.43-3.56-1.08-.91-2.67-.74-3.76.05-.59.43-1.08,1.07-1.29,1.76-.23.77-.22,1.58-.53,2.33-.05.13-.25.24-.36.1-.89-1.13-1.11-2.67-.84-4.1-.37.52-.63,1.11-.78,1.75-.62,2.78,1.1,5.8,3.61,7.07-.03-.04-.07-.07-.1-.11-.43-.49-.79-1.07-.97-1.7-.06-.21.21-.36.36-.21Z"/>
              <path class="cls-8" d="m47.36,9.44c3.72.53,6.2,4.01,7.74,7.15.42.86.86,1.76,1.15,2.68.22.7.4,1.41.61,2.12.23.78.48,1.56.82,2.3.19.42.42.83.71,1.19-.67-1.39-1.12-2.88-1.46-4.41,0-.03-.01-.06-.02-.09-.02-.02-.03-.05-.03-.09-.01-.08-.02-.15-.03-.23-.45-2.09-.82-4.21-1.59-6.21-.32-.82-.71-1.63-1.2-2.38-.94-1.22-2.24-2.14-3.7-2.63-.8-.27-1.66-.42-2.5-.33-.75.08-1.47.32-2.14.67-.16.08-.31.17-.46.26.69-.09,1.4-.11,2.11,0Z"/>
            </g>
            <path class="cls-8" d="m66.11,35.22c-.06.85.39,1.67,1,2.24.08-.74.12-1.48.22-2.21.08-.59.21-1.21.48-1.74-.86.21-1.63.75-1.7,1.71Z"/>
            <path class="cls-2" d="m73.33,30.52c-.42-.61-1.03-1.06-1.53-1.58-.51-.53-.93-1.14-1.16-1.84-.29-.88-.14-1.88-.63-2.7-.49-.81-1.37-1.07-2.08-1.62-.3-.24-.57-.54-.67-.92-.12-.45.05-.9.16-1.33.12-.52.07-.98-.22-1.44-.23-.37-.54-.67-.82-1-.28-.34-.53-.71-.65-1.14-.14-.48-.09-1.03-.02-1.52.15-1.15.5-2.26.62-3.41.08-.74.09-1.49.06-2.24-.12-.2-.25-.39-.38-.57-.01-.02-.03-.03-.05-.04.14-1.33.1-2.68-.32-3.96-1.44-4.44-6.8-6.24-10.95-4.61-1.07.42-2.07,1.05-2.97,1.77-.2.09-.4.17-.6.24,0,0,0,0,0,0,.08.05.12.15.1.24-.09.35-.3.67-.49.98-.25.41-.51.81-.72,1.24-.14.27-.36.7-.24,1.01.12.32.67.36.95.32.2-.02.51-.19.73-.3.8-.42,1.55-.91,2.33-1.35.76-.43,1.59-.88,2.46-1.02.64-.1,1.42.08,1.62.79.12.42-.23.88-.46,1.19-.3.41-.69.78-.94,1.22-.29.51-.4,1.22-.2,1.78.21.57.69,1.03,1.11,1.45.98.99,2.02,1.99,2.04,3.48.02,1.43-.98,2.5-1.37,3.81-.15.49-.19,1.08.04,1.55.18.37.51.62.86.81.71.4,1.57.6,2.16,1.21.31.32.5.74.53,1.18.04.62-.22,1.24-.42,1.81-.22.64-.38,1.24-.28,1.92.07.49.27.95.69,1.23.45.3.98.4,1.49.54.49.14,1.04.16,1.49.41.47.27.8.83.76,1.38-.05.6-.42,1.12-.66,1.66-.21.48-.31,1.17.15,1.55.29.23.71.04,1-.1.75-.37,1.63-1.16,2.53-.97.41.09.74.31,1.01.63.25.3.46.46.86.46.64,0,1.31-.21,1.91-.42.51-.18,1.01-.41,1.43-.75.05-.04.09-.09.14-.13-.07-.31-.2-.61-.4-.9Z"/>
            <path class="cls-2" d="m58.61,25.53c-.64-.89-1.12-1.85-1.42-2.91-.3-1.05-.47-2.13-.6-3.21-.25-2.12-.45-4.3-1.35-6.26-1.47-3.21-5.02-5.4-8.58-4.72-1.93.36-3.71,1.62-4.6,3.38-.06.11.09.11.14.04.54-.75,1.15-1.46,1.92-1.99.66-.46,1.42-.8,2.21-.97,1.59-.35,3.29-.09,4.73.64,1.57.79,2.84,2.1,3.62,3.67.92,1.87,1.12,4,1.45,6.02.36,2.22.79,4.68,2.3,6.44.07.08.23-.04.17-.12Z"/>
            <g>
              <g class="cls-22">
                <path class="cls-12" d="m51.61,15.86c.19.1.38.21.55.35.21.23.39.49.54.77.58,1.09.62,2.44.12,3.57.03-.24.05-.49.07-.74.04-.82-.01-1.67-.34-2.43-.31-.73-.94-1.21-1.53-1.71.2,0,.44.11.6.19Z"/>
              </g>
              <g>
                <path class="cls-21" d="m49.15,15.33c.06-.05.12-.1.18-.14-.01,0-.02-.01-.03-.03,0-.01-.01-.03-.01-.04,0-.03-.02-.07-.02-.1-.01-.06-.02-.12-.03-.19,0-.02.01-.03.03-.03.02,0,.03.02.04.04.02.06.03.12.05.18,0,.03.02.05.03.08,0,0,0,.01.01.02,0,0,0,0,0,0,0,0,0,0,0,.01,0,0,0,.01,0,.02.19-.1.4-.16.61-.18,0-.01,0-.03,0-.04,0-.06,0-.11,0-.16.01-.1.02-.21.03-.31,0-.03.04-.04.06-.03.03.01.05.04.05.08,0,.1-.01.2-.01.3,0,.05,0,.1,0,.14,0,0,0,0,0,.01.59,0,1.23.24,1.69.53,0,0,0,0,0,0,.02-.03.04-.06.06-.09.04-.06.09-.12.14-.18,0,0,.02,0,.02.01-.04.07-.08.14-.11.21-.02.03-.03.07-.05.1,0,0,0,0,0,0,.33.23.61.52.84.85,0,0,.01-.01.02-.02,0,0,.02,0,.03-.01.02,0,.04-.02.07-.02.04-.02.09-.03.13-.05.09-.03.18-.06.27-.08,0,0,.01,0,0,0-.07.05-.15.1-.22.15-.04.03-.07.05-.11.07-.04.02-.08.04-.13.05.07.11.14.23.2.35.01,0,.03,0,.04,0,.03,0,.07-.02.1-.02.07-.02.13-.03.2-.03.01,0,.03.02.01.03-.07.02-.14.05-.21.08-.03.02-.07.03-.1.05,0,0,0,0,0,0,.13.27.23.55.3.83.08-.02.18-.02.26-.02.09,0,.19.02.28,0,.04,0,.08.07.03.08-.09.01-.18,0-.27,0-.04,0-.09,0-.13,0-.05,0-.09.02-.14.02,0,0,0,0,0,0,.03.14.06.27.08.41.09.64.06,1.29-.07,1.92-.01.05-.09,0-.08-.03.17-1.29,0-2.74-.82-3.8-.38-.49-.88-.84-1.47-1.03-.57-.18-1.27-.23-1.8.08-.04.02-.1-.05-.06-.08Z"/>
                <path class="cls-21" d="m49.07,20.67c.06.04.09.09.13.14.04.05.08.1.13.15.09.1.2.19.31.26.23.15.48.28.75.33.03,0,.07.07.02.07-.3,0-.58-.08-.83-.24-.13-.08-.25-.18-.36-.28-.06-.06-.11-.12-.16-.18-.05-.06-.1-.12-.11-.2-.01-.07.07-.09.12-.06Z"/>
                <path class="cls-21" d="m51.31,17.09s.02-.06.03-.09c.03-.06.08-.12.12-.17.09-.11.2-.2.29-.3.01-.01.03,0,.02.02-.08.11-.17.21-.25.32-.04.06-.07.11-.09.17-.01.03-.02.06-.03.09,0,.02,0,.03-.01.05,0,.02-.01.03-.02.05-.02.03-.06,0-.07-.03-.01-.04,0-.07,0-.11Z"/>
                <path class="cls-21" d="m50.63,16.62s.04-.1.08-.13c.03-.03.07-.06.11-.08.04-.02.09.05.05.07-.04.02-.05.05-.07.09-.02.04-.03.09-.04.12-.01.05-.02.09-.02.14,0,0,0,.02,0,0,0,0,0,0,0,0,0,.01,0,.02,0,.03,0,.02,0,.05,0,.07-.01.07-.1.04-.13,0-.01-.02-.02-.04-.03-.06,0-.01,0-.03,0-.04,0-.02,0-.04,0-.07,0-.05.02-.11.04-.16Z"/>
                <path class="cls-21" d="m49.38,16.51s.04.02.05.05c.01.06.03.12.05.18.02.06.05.12.07.18.01.03,0,.07-.04.07-.04,0-.07-.04-.08-.08-.03-.12-.06-.24-.08-.36,0-.02.01-.04.03-.03Z"/>
                <path class="cls-21" d="m47.76,17.19s.06,0,.04.03c-.34.55-.45,1.21-.34,1.85.06.32.16.63.32.91.17.29.39.49.62.72.03.03,0,.08-.04.05-.27-.16-.5-.45-.65-.72-.16-.28-.28-.59-.33-.91-.11-.66.01-1.37.37-1.93Z"/>
                <path class="cls-21" d="m46.74,18.65c.03.38.1.73.29,1.06.08.14.18.28.28.4.11.13.26.23.36.37.03.04,0,.1-.06.08-.16-.07-.3-.23-.41-.36-.12-.14-.22-.29-.3-.45-.09-.17-.16-.34-.19-.53-.03-.19-.02-.38-.02-.58,0-.02.04,0,.04.01Z"/>
                <path class="cls-11" d="m49.35,17.32c-.57.37-.93,1.06-1.16,1.7,0-.02,0-.03,0-.05.21-.66.45-1.44,1.02-1.89.59-.46,1.38-.39,2.03-.07,1.08.54,1.66,1.76,1.49,2.95-.08.56-.31,1.07-.67,1.49.16-.36.29-.73.36-1.12.02-.1.03-.21.04-.31.07-.47.04-.95-.12-1.4-.17-.5-.48-.93-.93-1.22-.55-.36-1.32-.53-1.91-.17-.05.03-.1.06-.14.1Z"/>
                <path class="cls-11" d="m50.14,21.1c.29.19.69.35,1.05.31-.12.08-.26.13-.43.13-.29,0-.58-.16-.8-.32-.26-.19-.48-.44-.67-.7-.09-.12-.17-.25-.24-.39-.02-.04-.04-.08-.06-.12.31.43.71.81,1.15,1.09Z"/>
              </g>
              <path class="cls-2" d="m47.44,18.72c0,.65.22,1.3.64,1.8.43.52,1.04.89,1.66,1.12.36.14.79.26,1.17.21.34-.05.61-.28.89-.47.08-.06.22.01.19.12-.09.36-.32.63-.54.91.27-.09.51-.28.73-.45.32-.26.6-.56.8-.92.43-.76.54-1.65.59-2.52,0-.06.04-.09.08-.1-.06-.76-.29-1.52-.66-2.15-.66-1.12-1.98-1.9-3.3-1.64-.54.11-1,.4-1.36.8.24-.09.51-.13.75-.17.13-.02.17.15.08.22-.96.78-1.74,1.95-1.73,3.22Zm2.7-3.09c.21-.12.47-.23.71-.24.36-.01.72.1,1.02.28.54.33.94.88,1.11,1.49.53,1.14.54,2.57-.09,3.64-.06.09-.23.09-.23-.04-.01-.48.13-.95.14-1.44.01-.44-.1-.88-.27-1.28-.19-.41-.47-.76-.83-1.03-.19-.14-.4-.28-.63-.35-.21-.07-.44-.07-.66-.11-.23-.04-.64-.12-.66-.42-.01-.23.23-.4.4-.5Z"/>
              <path class="cls-4" d="m52.33,20.2c0-.13-.18-.14-.23-.04-.17.36-.3.77-.59,1.05-.32.32-.81.28-1.2.13-.38-.15-.73-.4-.97-.74-.45-.64-.43-1.46-.23-2.18.02-.09-.08-.18-.16-.14-.32.16-.5.43-.61.75.02-.1.05-.2.07-.3.06-.24.14-.48.23-.72.18-.43.42-.92.84-1.15.73-.4,1.73.02,2.31.51.69.58.97,1.49.91,2.37-.03.46-.14.92-.38,1.32-.16.26-.37.48-.61.67.32-.47.61-.96.61-1.55Z"/>
              <g>
                <path class="cls-19" d="m49.69,19.1c-.28.91-.07,1.78.47,1.95.54.16,1.2-.44,1.47-1.35.28-.91.07-1.78-.47-1.95s-1.2.44-1.47,1.35Z"/>
                <path class="cls-13" d="m50.04,19.29c-.17.57-.04,1.12.29,1.23.34.1.75-.28.93-.85.17-.57.04-1.12-.29-1.22-.34-.1-.75.28-.93.85Z"/>
                <path class="cls-18" d="m50.18,18.5c-.09.3-.02.59.16.65.18.05.4-.15.49-.45.09-.3.02-.59-.16-.65-.18-.05-.4.15-.49.45Z"/>
              </g>
            </g>
            <path class="cls-2" d="m47.37,22.28c-.91-.45-1.5-1.37-1.82-2.31-.35-1.04-.45-2.2-.27-3.29.09-.54.27-1.09.6-1.53.05-.06-.05-.09-.09-.04-.71.82-.95,1.99-.96,3.04,0,1.15.27,2.4.95,3.34.35.48.83.86,1.41,1.02.1.03.31-.16.18-.23Z"/>
            <path class="cls-2" d="m43.93,15.64c.02-.2.06-.39.09-.59.01-.09-.14-.05-.16.02-.05.21-.12.41-.17.61-.05.19-.1.43-.02.62.03.06.09.08.15.06.06-.02.14-.08.13-.15,0-.1-.02-.2-.03-.3,0-.09,0-.19.01-.28Z"/>
            <path class="cls-2" d="m40.46,9.68c-.02-.06-.12,0-.11.05.14.6.19,1.21.15,1.82-.04.58-.14,1.19-.51,1.66-.64.82-1.88.86-2.51,1.7-.08.11.08.18.16.11.23-.18.45-.35.73-.47.25-.11.51-.19.77-.29.54-.21,1.03-.56,1.34-1.06.69-1.08.33-2.39-.03-3.52Z"/>
            <path class="cls-2" d="m67.36,34.29c-.08-.03-.16.03-.2.09-.47.68-1.02,1.62-.72,2.48.05.15.25.09.33,0,.21-.21.3-.51.33-.8.03-.27.05-.55.05-.82,0-.07-.05-.1-.11-.09.11-.24.24-.48.36-.69.03-.06.03-.14-.04-.16Z"/>
            <path class="cls-2" d="m70.94,34.87s.03-.05.04-.08c.03-.05.07-.09.05-.16,0-.03-.04-.04-.06-.04-.15,0-.25.18-.31.29-.09.15-.16.32-.24.48-.07.16-.14.33-.2.5-.03.07-.06.15-.08.23-.02.04-.04.09-.03.14,0,.06.06.12.11.14.1.05.2,0,.27-.06.18-.17.29-.41.36-.65.03-.12.06-.24.08-.36.02-.11.06-.23.05-.34,0-.05-.02-.08-.05-.1Z"/>
            <path class="cls-2" d="m67.35,39.41c-.39.07-.75.15-1.15.13-.4-.01-.79-.07-1.18-.15-.69-.14-1.37-.33-2.08-.42-.71-.09-1.4-.04-2.11.02-.63.05-1.26.07-1.89.03-1.24-.06-2.49-.34-3.53-1.05-.47-.32-.88-.73-1.2-1.2-.29-.43-.52-.89-.76-1.34-.29-.53-.57-1.07-.96-1.54-.33-.4-.76-.82-1.28-.92-.11-.02-.36.17-.2.26.45.24.81.51,1.13.91.34.43.61.92.87,1.4.53.98,1.01,1.93,1.92,2.62,1,.76,2.25,1.09,3.48,1.2.64.06,1.28.05,1.93.01.71-.04,1.4-.14,2.11-.08.86.07,1.69.31,2.54.45.77.12,1.68.17,2.37-.26.04-.02.03-.08-.02-.07Z"/>
            <path class="cls-2" d="m62.7,10.47c0-.21-.03-.43-.06-.64-.03-.21-.07-.42-.13-.62-.05-.16-.11-.32-.21-.45-.11-.14-.28-.18-.42-.05-.05.05-.05.14.03.15h0s0,0-.01,0c0,0,.01,0,.02,0,0,0,.01.01.02.01,0,0,0,0,0,0,.01.02.02.03.03.05,0,.01.01.02.02.04,0,0,0,0,0,.02.05.14.09.3.12.45,0,.04.01.09.02.13,0,.05-.01.09-.02.13-.04.21-.09.41-.12.62-.03.17-.05.36,0,.53.02.08.06.15.12.2.03.03.07.04.1.06,0,0,0,0,.01,0-.03-.02-.02-.01.03,0,.02,0,.04.01.06.01.15.03.28-.06.34-.19.06-.14.06-.32.05-.47Z"/>
            <path class="cls-2" d="m66,6.82s-.06,0-.06.02c.09,1.76.07,3.51-.25,5.25-.3,1.66-.88,3.27-1.01,4.95,0,.06.08.03.09,0,.44-1.66.95-3.32,1.24-5.01.28-1.71.24-3.49,0-5.2Z"/>
            <path class="cls-17" d="m37.8,21.3c-.18-1.27-.28-2.66.03-3.93-.51.53-.94,1.13-1.16,1.84-.32,1.02-.18,2.09.05,3.11.25,1.07.58,2.11.98,3.13.68,1.72,1.6,3.48,2.92,4.82-.42-.8-.8-1.61-1.14-2.44-.86-2.09-1.37-4.29-1.68-6.53Z"/>
            <path class="cls-17" d="m46.21,10.39c-.3,0-.6.1-.87.22-1.17.55-1.92,1.64-2.35,2.82-.18.5-.33,1.03-.43,1.57.2-.61.5-1.2.9-1.73.66-.88,1.53-1.76,2.53-2.24.21-.1.43-.2.63-.32.07-.04.15-.09.21-.15,0,0,.02-.02.03-.03-.07-.03-.15-.08-.22-.1-.14-.04-.29-.05-.43-.05Z"/>
            <path class="cls-17" d="m58.71,37c-.56-.03-1.12-.09-1.63-.35-.4-.2-.74-.52-1.02-.87-.65-.8-1.18-1.68-1.99-2.34-.58-.48-1.24-.78-1.95-.92.67.3,1.3.67,1.83,1.2.74.74,1.12,1.7,1.66,2.57.26.42.58.84,1,1.11.51.32,1.13.41,1.73.39,1.25-.03,2.45-.48,3.7-.52.81-.02,1.59.11,2.36.34-.53-.34-1.11-.59-1.78-.66-1.29-.14-2.6.11-3.9.04Z"/>
            <path class="cls-17" d="m55.49,1.73c.26.03.52.08.77.15,1.4.36,2.7,1.09,3.89,1.89,1.11.75,2.11,1.67,2.9,2.76-.13-.54-.33-1.07-.6-1.56-1.35-2.43-4.29-4.11-6.96-3.24Z"/>
          </g>
          <g>
            <path class="cls-2" d="m32.83,198.07c.07-.3.09-.62,0-.92-.08-.25-.17-.46-.39-.64-.13-.11-.29-.18-.46-.23-.2-.09-.41-.16-.63-.16-.41,0-.79.14-1.09.41-.53.46-.77,1.15-.77,1.83,0,.59.29,1.23.89,1.42,1,.31,2.04-.44,2.36-1.38.02-.05.03-.11.05-.16.02-.05.04-.11.05-.17Z"/>
            <path class="cls-2" d="m35.08,199.07c-.37-.04-.8.19-.95.53-.14.32.03.66.39.69.37.04.8-.19.95-.53.14-.32-.03-.66-.39-.69Z"/>
            <path class="cls-2" d="m36.49,188.89c-.08-.24-.16-.49-.29-.72,0-.04-.03-.08-.06-.11,0,0,0,0-.01,0-.01-.02-.02-.03-.03-.05-.09-.13-.19-.26-.32-.36-.23-.17-.51-.25-.79-.21-.39.05-.74.25-.99.55-.54.4-.91,1.02-.85,1.71.05.66.61,1.17,1.17,1.44.49.23,1.06.23,1.53-.05.43-.25.73-.7.77-1.21.02-.34,0-.66-.11-.98Z"/>
            <path class="cls-2" d="m25.91,181.61c-.32-.03-.7.16-.83.47-.12.28.02.57.34.6.32.03.69-.16.83-.47.12-.28-.02-.57-.34-.6Z"/>
            <path class="cls-2" d="m16.61,159.66s-.07-.09-.11-.13c-.07-.06-.15-.1-.24-.11-.06-.02-.13-.03-.19-.02-.11,0-.21,0-.32.05-.16.05-.3.15-.44.25,0,0-.01,0-.02.01-.03.03-.06.06-.09.09-.03.03-.06.06-.09.09-.09.11-.14.23-.17.37,0,.02,0,.04,0,.05-.03.11-.03.23-.02.35,0,.08.02.17.04.24,0,.08.04.15.1.2.04.07.1.11.18.14.05.01.11.03.16.04.09.01.18,0,.27-.02.07,0,.13-.03.19-.06.1-.04.18-.09.26-.16.13-.12.24-.27.27-.45,0-.01,0-.02,0-.03.01-.03.02-.05.04-.08.01-.01.03-.03.04-.04.08-.11.15-.25.17-.38,0,0,0-.02,0-.03.02-.15,0-.22-.06-.36Z"/>
            <path class="cls-2" d="m16.34,151.11c-.02-.12-.07-.21-.16-.29,0,0-.02-.02-.02-.02-.02-.02-.04-.03-.06-.04-.01-.04-.03-.08-.04-.12-.04-.07-.09-.12-.16-.15-.04-.03-.09-.05-.14-.06-.08-.03-.16-.03-.25-.02-.06.01-.12.03-.18.04-.13.04-.24.11-.35.19-.03.03-.06.05-.09.08,0,0,0,0,0,0-.05.03-.1.06-.14.1-.15.13-.29.32-.32.52,0,.06,0,.13,0,.19,0,.07.04.13.06.19,0,0,0,0,0,.01.04.05.08.1.12.15,0,0,.02.02.03.02.06.04.13.08.19.11.13.06.29.06.43.05.01,0,.02,0,.03,0,.02,0,.05,0,.07-.01.04,0,.16-.03.23-.05.04-.01.08-.03.11-.05.04-.01.08-.03.11-.05.01,0,.02-.01.03-.02.13-.07.24-.17.33-.28.06-.08.11-.16.13-.26.03-.08.04-.17.03-.26Z"/>
            <path class="cls-2" d="m9.45,122.75c-.04-.19-.1-.41-.23-.57-.11-.13-.21-.21-.38-.23-.19-.02-.37.04-.54.12-.18.09-.33.21-.46.35-.88.31-1.2,1.56-.58,2.27.37.42,1.05.42,1.5.14.46-.29.71-.81.74-1.34.01-.25,0-.49-.05-.74Z"/>
            <path class="cls-2" d="m15.06,136.63c-.55-.05-1.17.88-.43.95.55.05,1.17-.88.43-.95Z"/>
            <path class="cls-2" d="m17.79,131.64c-.02-.17-.13-.31-.27-.4-.13-.09-.27-.13-.42-.12-.09-.2-.33-.22-.52-.16-.56.17-1.04.58-1.18,1.16-.12.47.12.99.47,1.3.19.16.48.16.71.08.14-.05.27-.12.38-.21.1-.09.18-.19.24-.31.14-.23.28-.47.4-.71.1-.2.22-.39.19-.62Z"/>
            <path class="cls-2" d="m14.36,118.85c-.57-.06-1.2.91-.45.98.57.06,1.2-.91.45-.98Z"/>
            <path class="cls-2" d="m16.55,112.2c-.42-.04-.88.66-.33.72.42.04.88-.66.33-.72Z"/>
            <path class="cls-2" d="m25.42,73.41c0-.05,0-.1-.02-.15,0-.02.02-.04.02-.06,0,0,0-.18,0-.19-.01-.14-.05-.16-.12-.25-.04-.06-.1-.1-.16-.14-.03-.04-.06-.07-.09-.11-.08-.07-.17-.11-.27-.12-.18-.05-.38-.04-.56.03-.16.06-.31.14-.45.25-.18.15-.29.35-.35.57-.02.07-.03.14-.03.21-.14.19-.23.41-.23.66,0,.18.04.32.1.49.06.16.19.3.3.43.1.12.36.14.5.12.21-.03.42-.11.57-.25.16-.15.32-.31.45-.5.15-.21.25-.41.31-.66.03-.11.02-.22.02-.33Z"/>
            <path class="cls-2" d="m21.22,92.98c-.58-.06-1.22.91-.45.99.58.06,1.22-.91.45-.99Z"/>
            <path class="cls-2" d="m20.05,86.68c-.45-.04-.94.71-.35.76.44.04.94-.71.35-.76Z"/>
            <path class="cls-2" d="m19.71,90.03s0-.01.01-.02c.02-.03.04-.06.05-.09.09-.18.13-.39.02-.58-.04-.07-.09-.13-.15-.19-.08-.06-.17-.1-.28-.11-.09-.01-.17,0-.26.02-.09.01-.18.05-.26.1-.06.03-.12.08-.17.12,0,0,0,0,0,0h0s0,0-.01,0c0,0,0,0,0,0-.02,0-.03,0-.05,0-.02-.01-.04-.02-.06-.03.02.01.04.02.06.03h0c-.24-.17-.6-.05-.79.14-.06.05-.11.12-.15.19-.03.07-.04.13-.03.21.05.15.09.29.15.44.03.07.06.14.1.21.05.08.12.16.2.22.09.06.19.11.29.16.03.02.06.04.09.05.06.05.13.08.2.09.08.03.16.03.25.02.16-.02.31-.08.44-.17.12-.08.24-.2.29-.33.02-.05.03-.1.05-.15.01-.06,0-.12-.01-.18,0-.02-.01-.05-.02-.07.02-.03.03-.05.05-.09Z"/>
            <path class="cls-2" d="m19.04,83.14c-.56-.06-1.19.9-.44.97.56.06,1.19-.9.44-.97Z"/>
            <path class="cls-2" d="m33.89,67.1s.04-.1.05-.15c.01-.02.03-.03.05-.05,0,0,.09-.16.09-.17.05-.13.03-.17,0-.28,0-.07-.04-.14-.08-.2-.01-.05-.02-.09-.03-.14-.04-.1-.1-.17-.18-.23-.14-.12-.33-.21-.51-.23-.17-.02-.35-.01-.52.02-.23.05-.41.18-.57.35-.05.05-.09.11-.12.17-.21.11-.39.26-.51.49-.08.16-.11.3-.13.48-.02.17.03.36.07.52.04.15.26.29.39.34.2.07.42.09.62.03.21-.06.43-.13.63-.24.23-.12.41-.25.58-.45.07-.08.12-.18.17-.28Z"/>
            <path class="cls-2" d="m36.3,49.72c-.49-.31-1.5.26-.85.68.49.31,1.5-.26.85-.68Z"/>
            <path class="cls-2" d="m38.12,43.58c-.38-.24-1.16.2-.66.52.38.24,1.16-.2.66-.52Z"/>
            <path class="cls-2" d="m36.29,46.4s.01,0,.02-.01c.03-.02.06-.04.09-.06.16-.12.29-.29.28-.51,0-.08-.03-.16-.05-.23-.04-.09-.11-.17-.19-.22-.07-.05-.15-.08-.24-.1-.09-.03-.18-.04-.28-.03-.07,0-.14.01-.21.03,0,0,0,0,0,0h0s-.01,0-.02,0c0,0,0,0,0,0-.02,0-.03-.01-.05-.02-.01-.02-.03-.04-.04-.06.01.02.02.04.03.05h0c-.13-.26-.51-.32-.77-.23-.08.02-.15.05-.22.1-.06.04-.1.1-.12.17-.02.15-.05.3-.07.46,0,.08-.02.15,0,.23.01.1.03.2.08.29.05.1.12.19.18.28.02.03.03.06.05.09.03.07.08.13.14.18.06.06.13.1.21.13.15.05.31.07.47.04.14-.02.3-.07.41-.16.04-.04.07-.08.11-.11.04-.05.06-.11.07-.17,0-.02,0-.05.01-.07.03-.02.05-.03.08-.05Z"/>
            <path class="cls-2" d="m38.82,39.97c-.48-.31-1.47.26-.84.66.48.31,1.47-.26.84-.66Z"/>
            <g class="cls-9">
              <path class="cls-14" d="m20.39,179.04c-.07-.2-.14-.39-.27-.56-.18-.23-.36-.38-.61-.52-.35-.2-.79-.27-1.19-.22-.09.01-.18.03-.27.06-.11-.04-.22-.07-.35-.08-.51-.04-.98.25-1.26.66-.51.76-.57,1.81-.17,2.63.2.4.56.75,1,.87.79.23,1.67,0,2.31-.52.34-.27.63-.67.76-1.09.13-.4.2-.84.06-1.25Z"/>
              <polygon class="cls-14" points="18.51 180.56 18.52 180.56 18.52 180.55 18.51 180.56"/>
            </g>
            <path class="cls-2" d="m31.85,207.02c.01-.06,0-.11-.03-.17-.55-.72-.32-.55-.58-.51-.07.01-.13.03-.2.04,0,0,0,0,0,0-.07.02-.14.06-.21.09-.12.07-.24.16-.32.27-.04.05-.08.11-.1.17-.04.08-.06.16-.05.24,0,.08,0,.16.05.23.04.07.1.13.17.16.07.05.15.08.23.08.06,0,.12,0,.18,0,.14-.02.27-.06.39-.13.04-.03.09-.06.13-.09,0,0,0,0,0,0,0,0,0,0,0,0,.01,0,.02-.01.03-.02,0,0,.02-.02.03-.03.03-.03.07-.05.09-.08.02-.02.03-.04.05-.06.01-.01.03-.02.04-.03.04-.05.07-.11.08-.17Z"/>
            <g class="cls-9">
              <path class="cls-14" d="m35.63,218.76s.05-.05.07-.07c.02-.02.03-.03.04-.05-.04.04-.08.08-.12.12Z"/>
            </g>
            <path class="cls-2" d="m36.83,209.16s-.05-.05-.07-.08c-.01-.05-.04-.1-.08-.14-.04-.06-.09-.1-.16-.12,0,0-.02,0-.02,0-.01,0-.12-.03-.14-.03-.08-.01-.15,0-.23.02-.08.01-.16.04-.23.09,0,0,0,0,0,0,0,0,0,0-.01,0-.05.03-.1.07-.15.11,0,0,0,0,0,0,0,0,0,0,0,0-.04.04-.08.08-.12.13-.05.06-.09.13-.11.21-.01.02-.02.05-.02.07,0,.05,0,.09,0,.14,0,.05.02.1.05.13.03.04.06.07.09.11,0,0,.01.01.02.02,0,0,0,0,.01.01,0,0,0,0,0,0,0,0,.01,0,.02.01.04.03.08.06.13.08,0,0,.01,0,.02,0,.05.01.1.03.16.04,0,0,.02,0,.03,0,.07,0,.14,0,.21,0,.08,0,.16-.03.23-.07.08-.03.15-.07.21-.13l.11-.11c.05-.06.08-.12.09-.19.02-.04.03-.08.02-.13,0-.06,0-.12-.04-.18Z"/>
          </g>
        </g>
        <g>
          <g>
            <path class="cls-14" d="m257.16,303.6c-7.17-18.56-23.77-32.75-41.38-42.26-11.58-6.26-24.08-9.99-35.98-15.45-8.6-3.95-15.41-8.82-22.17-15.24-.72-.68-.92-1.21-1.85-1.61-.54-.23-2.32-.05-2.59-.29-.86-.77-1.69-1.56-2.52-2.36-.16-.15-.55.17-.39.34.71.73,1.44,1.44,2.17,2.15-.8.18-1.59.46-2.33.81-2.25,1.05-4.48,2.25-6.57,3.59-8.15,5.21-14.7,13.08-18.21,22.1-2.87,7.39-4.14,16.5-.49,23.86,2.83,5.72,8.41,9.25,14.21,11.43,6.49,2.44,13.45,3.46,20.3,4.32,3.22.4,6.45.74,9.67,1.16,4.6.6,9.18,1.34,13.75,2.13,10.54,1.82,21.15,4.21,30.89,8.75,4.71,2.2,9.23,4.92,13.23,8.26,3.87,3.23,7.34,7.2,9.24,11.92,1.03,2.55,1.51,5.19,1.18,7.94-2.32,19.35-23.71,35.13-42.21,36.65-2.46.2-3.21.71-.88,1.85,4.21,2.06,14.6-.24,18.91-1.15,12.52-2.64,20.04-5.48,30.29-13.43,16.98-13.17,21.28-35.91,13.73-55.47Z"/>
            <path class="cls-3" d="m226.9,315.28c3.87,3.23,7.34,7.2,9.24,11.92,1.03,2.55,1.51,5.19,1.18,7.94-.29,2.44-.89,4.83-1.75,7.13,1.54-3.23,2.62-6.68,3.02-10.23.69-6.12-.94-12.29-3.56-17.79-2.76-5.79-6.74-10.99-11.43-15.37-10.22-9.53-23.72-14.57-36.81-18.78-6.8-2.19-13.61-4.29-20.33-6.73-5.99-2.17-11.94-4.82-16.99-8.77-2.48-1.94-4.68-4.2-6.33-6.89-1.53-2.5-2.58-5.27-3.25-8.12-.98-4.22-1.17-8.56-1.03-12.89-5.96,4.97-10.71,11.44-13.52,18.66-2.87,7.39-4.14,16.5-.49,23.86,2.83,5.72,8.41,9.25,14.21,11.43,6.49,2.44,13.45,3.46,20.3,4.32,3.22.4,6.45.74,9.67,1.16,4.6.6,9.18,1.34,13.75,2.13,10.54,1.82,21.15,4.21,30.89,8.75,4.71,2.2,9.23,4.92,13.23,8.26Z"/>
            <path class="cls-16" d="m257.16,303.6c-7.17-18.56-23.77-32.75-41.38-42.26-11.58-6.26-24.08-9.99-35.98-15.45-8.6-3.95-15.41-8.82-22.17-15.24-.72-.68-.92-1.21-1.85-1.61-.54-.23-2.32-.05-2.59-.29-.86-.77-1.69-1.56-2.52-2.36-.16-.15-.55.17-.39.34.71.73,1.44,1.44,2.17,2.15-.8.18-1.59.46-2.33.81-.35.16-.69.33-1.03.5,1.5,3.71,3.9,6.94,6.81,9.67,3.18,2.99,6.84,5.35,10.48,7.72,2.02,1.32,4.02,2.74,5.62,4.56,1.32,1.5,2.36,3.22,3.31,4.97.72,1.33,1.41,2.7,2.16,4.02,1.48,1.35,3.1,2.51,4.96,3.31,3.08,1.31,6.44,1.1,9.7.9,2.98-.18,6.14-.29,8.89,1.09,2.16,1.09,3.43,3.04,4.14,5.3.71,2.26.98,4.68,2.12,6.79,1.28,2.37,3.36,3.96,5.94,4.69,2.53.71,5.2.69,7.81.68,4.74,0,10.51-.03,13.52,4.31,1.46,2.1,1.73,4.7,2.03,7.17.14,1.12.31,2.24.73,3.29.51,1.27,1.38,2.34,2.43,3.21,1.92,1.6,4.27,2.61,6.03,4.41,1.79,1.83,2.6,4.4,2.31,6.94-.12,1.07-.41,2.11-.71,3.15-.13,1.55-.37,3.1-.28,4.65.13,2.1.91,4.08,1.77,5.97.34.76.7,1.52,1.03,2.29.4.79.72,1.6.95,2.42.68,2.04,1.01,4.15.47,6.39-.48,1.99-1.59,3.62-2.77,5.26-1.24,1.73-2.54,3.43-2.64,5.63-.09,1.96.22,3.9.01,5.87-.1.94-.25,1.95-.73,2.78,15.51-13.34,19.26-35.16,11.97-54.03Z"/>
            <path class="cls-3" d="m257.16,303.6c-7.17-18.56-23.77-32.75-41.38-42.26-11.58-6.26-24.08-9.99-35.98-15.45-8.6-3.95-15.41-8.82-22.17-15.24-.72-.68-.92-1.21-1.85-1.61-.23-.1-.68-.12-1.15-.13,3.01,3.6,5.71,7.47,7.92,11.62,3.55,6.64,5.62,13.78,6.35,21.26.47,4.78.6,9.8-.07,14.65,2.3-3.53,3.57-7.59,5.04-11.5,1-2.65,2.23-5.95,5.06-7.14,1.25-.53,2.66-.59,4-.52,2.01.1,4.01.45,5.96.88,4.35.96,8.56,2.5,12.61,4.34,8.39,3.83,16.17,9,23.32,14.81,5.99,4.87,11.31,10.39,15.59,16.84,3.97,5.98,7.05,12.61,8.78,19.59,1.64,6.62,2.04,13.58.75,20.3-1.33,6.89-4.48,13.31-9.03,18.65-2.65,3.11-5.75,5.71-8.98,8.2-3.71,2.87-7.56,5.59-11.68,7.82-3.15,1.71-6.43,2.97-9.8,4.17-.37.13-.73.26-1.1.39,1.48-.28,2.79-.57,3.78-.78,12.52-2.64,20.04-5.48,30.29-13.43,16.98-13.17,21.28-35.91,13.73-55.47Z"/>
          </g>
          <path class="cls-16" d="m242.26,359.68c-1.21.51-2.47.95-3.6,1.63-1.85,1.11-3.66,2.6-5.07,4.31,3.08-1.67,6.17-3.72,9.56-6.33-.3.14-.6.26-.89.38Z"/>
          <path class="cls-20" d="m240.09,317.12c.03.06.05.12.08.18.08.2.17.39.24.59.17.4.33.81.48,1.22.22.6.43,1.2.62,1.81.61,1.9,1.1,3.84,1.44,5.81.84,4.92.66,10.17-1.44,14.78-1.15,3.27-2.84,6.35-4.89,9.17-1.03,1.43-2.15,2.79-3.31,4.11,1.93-1.48,3.55-3.39,4.95-5.35,1.83-2.56,3.37-5.35,4.55-8.27,1.58-3.9,2.74-7.99,3.2-12.18.43-3.92.17-7.88-.59-11.75-1.27-6.39-4.06-12.34-7.83-17.63-3.69-5.18-8.2-9.7-12.95-13.91-4.53-3.42-9.37-6.46-14.22-9.37-2.51-1.51-5.01-2.98-7.61-4.32-2.57-1.33-5.18-2.66-7.5-4.41-1.08-.82-2.18-1.7-2.74-2.97-.44-.99-.46-1.91-.38-2.96.07-.91.23-2.08-.27-2.9-.36-.59-1.14-.83-1.8-.75-1.42.19-2.5,1.53-3.4,2.53-.51.57-1.02,1.16-1.61,1.65-.4.34-.88.7-1.41.66-.74-.05-1.27-.75-1.63-1.32-.6-.95-1.01-2.02-1.4-3.07-.85-2.3-1.79-4.55-2.8-6.78-.6-1.32-1.24-2.63-2.06-3.83-.34-.5-1.14.14-1.07.6.03.18.06.37.09.55-.05-.06-.09-.12-.14-.17-.12-.13-.38.05-.29.2.47.8.71,1.71.87,2.62.18,1,.31,2.01.4,3.02.2,2.19.34,4.38.35,6.58.02,2.72-.2,5.44-.52,8.13-.32,2.63-.56,5.28-.94,7.91-.19,1.3-.39,2.64-.78,3.9-.31.97-.86,2.11-.61,3.14.16.68,1.17.42,1.48.03,1.04-1.29,1.92-2.7,2.7-4.16.71-1.33,1.41-2.7,1.99-4.09.56-1.36.96-2.82,1.47-4.23.08,1.05.23,2.1.53,3.09.36,1.17,1.08,2.39,2.48,2.22,1.78-.21,3.13-1.71,4.43-2.88.51-.31,1.01-.63,1.52-.95-.05.13-.11.27-.16.41-.28.77-.62,1.75-.38,2.57.23.78,1.02.98,1.74,1.01,1.17.04,2.35-.16,3.52-.19,1.38-.04,2.65.16,3.94.64,2.46.91,4.76,2.18,6.98,3.57,2.23,1.4,4.38,2.94,6.55,4.43,2.07,1.42,4.15,2.82,6.14,4.35,4.01,3.07,7.75,6.48,11.11,10.25,4.39,4.93,8.24,10.59,10.84,16.74Z"/>
        </g>
        <g>
          <g>
            <path class="cls-10" d="m162.02,251.17c-.76-8.82-6.16-16.9-14.96-19.41-12.41-3.54-23.41,5.19-25.98,17.06-2.68,12.35-1.07,25.37,1.23,37.67,1.39,7.43,3.3,14.77,5.72,21.94,2.07,6.12,7.56,14.15,6.44,20.76-.18,1.03-.88,1.96-.87,3.02.01,1.67,1.96,2.04,3.27,2.15,2.21.18,4.42.36,6.63.51,2.35.16,4.71.23,7.06-.04,1.94-.22,4.1-.65,5.73-1.78,1.56-1.08,2.14-2.85,1.74-4.68-.26-1.18-.84-2.25-1.29-3.37-.03-.08-.06-.16-.09-.24-.13-.8-.29-1.6-.42-2.4-2.35-13.91-4.96-26.78-.74-40.65,2.97-9.74,7.42-20.17,6.52-30.53Z"/>
            <path class="cls-17" d="m133.61,320.75c-.78-3.23-2-6.32-3.09-9.46-3.06-8.83-5.85-17.73-7.67-26.9-1.77-8.94-2.77-18.15-2.12-27.26.3-4.15.91-8.33,2.24-12.28,1.14-3.38,3.03-6.33,5.67-8.74,1.22-1.11,2.56-2.1,3.99-2.95-5.76,3-10.07,8.8-11.55,15.66-2.68,12.35-1.07,25.37,1.23,37.67,1.39,7.43,3.3,14.77,5.72,21.94,1.56,4.6,5.05,10.28,6.21,15.63-.14-1.13-.37-2.25-.62-3.31Z"/>
            <path class="cls-3" d="m156.74,325c-.03-.08-.06-.16-.09-.24-.13-.8-.29-1.6-.42-2.4-2.35-13.91-4.96-26.78-.74-40.65,2.97-9.74,7.42-20.17,6.52-30.53-.76-8.82-6.16-16.9-14.96-19.41-3.61-1.03-7.1-1.01-10.3-.19,2.1-.08,4.22.2,6.26.84,3.07.97,5.89,2.77,7.96,5.25,2.42,2.89,3.53,6.4,3.89,10.11,1.01,10.37-3.31,20.25-6.18,29.98-1.48,5.02-2.65,10.16-2.6,15.42.06,6.07,1.21,12.07,2.5,17.98.58,2.65,1.4,5.22,2.16,7.82.75,2.57,1.43,5.21,1.51,7.9.06,1.81-.18,3.77-1.57,5.07-1.33,1.25-3.25,1.65-5,1.91-.14.02-.33-.04-.36-.2-.15-.95-.47-2.12-1.35-2.66-1-.63-2,.32-2.6,1.06-.17.21-.48.02-.5-.21-.08-.93-.48-2.06-1.5-2.29-1.06-.25-1.91.66-2.39,1.48-.13.23-.45.16-.53-.07-.39-1.1-1.22-1.41-2.13-1.29-.26.84-.76,1.64-.75,2.54.01,1.67,1.96,2.04,3.27,2.15,2.21.18,4.42.36,6.63.51,2.35.16,4.71.23,7.06-.04,1.94-.22,4.1-.65,5.73-1.78,1.56-1.08,2.14-2.85,1.74-4.68-.26-1.18-.84-2.25-1.29-3.37Z"/>
            <g class="cls-1">
              <path class="cls-14" d="m122.01,245.6c-.07.19-.13.38-.19.57,3.29-.83,6.77-.78,10.11-1.39-3.32-.12-6.64.24-9.92.82Z"/>
              <path class="cls-14" d="m124.86,250.2c1.36-.02,2.71-.12,4.07-.23,2.3-.19,4.59-.4,6.88-.59-.75-.12-1.5-.21-2.26-.29-4.17-.41-8.37-.28-12.54.1-.08.39-.15.78-.23,1.17.03,0,.07-.01.1-.01,1.32-.13,2.65-.13,3.97-.15Z"/>
              <path class="cls-14" d="m127.14,256.4c-2.38-.16-4.8-.23-7.18,0-.05.53-.09,1.06-.12,1.59.99-.09,1.99-.2,2.97-.36,1.47-.24,2.98-.58,4.33-1.23Z"/>
              <path class="cls-14" d="m123.32,265.1c1.03.05,2.05.03,3.08.03,2.25-.01,4.56-.08,6.74-.7-.9-.22-1.8-.41-2.71-.55-3.52-.53-7.17-.56-10.72-.1,0,.42.02.85.03,1.27.09,0,.18-.01.28-.02,1.1-.05,2.2.02,3.31.07Z"/>
              <path class="cls-14" d="m119.96,269.39c.02.26.04.52.06.78,1.4-.22,2.81-.47,4.18-.83-1.41,0-2.83-.03-4.24.05Z"/>
              <path class="cls-14" d="m128.18,274.79c-1.78-.2-3.6-.16-5.38.03-.75.08-1.52.19-2.27.35.05.37.09.74.14,1.11,2.87-.69,5.87-.81,8.79-1.29-.42-.09-.85-.15-1.28-.2Z"/>
              <path class="cls-14" d="m125.03,285.33c-.94.23-1.86.51-2.79.8.02.12.04.24.07.36.04.23.09.45.13.68,1.98-.57,3.93-1.26,5.75-2.23-1.05-.1-2.17.15-3.16.39Z"/>
              <path class="cls-14" d="m124.45,296.21c.08.32.16.64.24.96,2.04-.93,4.29-1.42,6.24-2.53-2.22.2-4.35.93-6.48,1.56Z"/>
              <path class="cls-14" d="m136.01,303.61c-1.67.12-3.31.6-4.9,1.08-1.3.39-2.6.82-3.92,1.16.16.5.33,1,.49,1.5,1.12-.36,2.25-.69,3.36-1.08,1.78-.62,3.56-1.39,4.97-2.66Z"/>
              <path class="cls-14" d="m128.53,309.77c.17.42.34.85.53,1.28,1.08-.58,2.16-1.15,3.14-1.87-1.21.25-2.44.51-3.67.58Z"/>
              <path class="cls-14" d="m131.1,315.56c.16.34.31.68.46,1.03,2.58-1.28,5.37-2.2,7.73-3.87-2.84.51-5.51,1.75-8.19,2.84Z"/>
              <path class="cls-14" d="m133.23,320.65c.1.27.19.55.28.82,1.47-.53,2.92-1.14,4.31-1.86-1.57.17-3.11.5-4.6,1.04Z"/>
              <path class="cls-14" d="m134.32,324.52c.09.46.16.92.21,1.38,1.94-.48,3.86-1.08,5.69-1.87-1.97-.07-3.93.28-5.9.49Z"/>
              <path class="cls-14" d="m123.33,291.47c.05.24.11.49.16.73,2.25-.49,4.47-1.08,6.6-1.96-2.27.27-4.5.83-6.76,1.23Z"/>
            </g>
            <path class="cls-15" d="m139.67,334.83s.02,0,.02-.01c.1-.06.2-.13.29-.19.1-.46.19-.93.24-1.4.08-.74.13-1.64-.3-2.29-.34-.51-.91-.69-1.43-.34-.55.37-.91,1.01-1.2,1.59-.09.18-.18.38-.26.57-.22.75-.33,1.57.05,1.87.12.1.28.13.43.15.52.08,1.47.24,2.16.07Z"/>
            <path class="cls-7" d="m140.18,331.5c.02.16.02.32.02.48,0,.61-.12,1.26-.5,1.76-.43.56-1.06.69-1.74.7-.38,0-.79-.05-1.11-.26.03.19.1.34.22.44.12.1.28.13.43.15.52.08,1.47.24,2.16.07,0,0,.02,0,.02-.01.1-.06.2-.13.29-.19.1-.46.19-.93.24-1.4.06-.54.1-1.17-.05-1.72Z"/>
            <path class="cls-15" d="m143.92,335.18s.01,0,.02-.01c.09-.05.17-.11.26-.17.09-.41.17-.82.21-1.24.07-.65.12-1.45-.27-2.02-.3-.45-.81-.61-1.27-.3-.48.33-.8.89-1.06,1.4-.08.16-.16.33-.23.5-.2.66-.29,1.39.04,1.65.11.08.24.11.38.13.46.07,1.3.21,1.91.06Z"/>
            <path class="cls-7" d="m144.14,331.73c-.04-.05-.08-.1-.12-.15.03.26.06.53.07.79.02.57-.03,1.2-.33,1.71-.33.55-.94.77-1.56.68-.44-.07-.68-.28-.79-.56-.02.34.03.64.21.79.11.08.24.11.38.13.46.07,1.3.21,1.91.06,0,0,.01,0,.02-.01.09-.05.17-.11.26-.17.09-.41.17-.82.21-1.24.07-.65.12-1.45-.27-2.02Z"/>
            <path class="cls-15" d="m134.11,334.35c.22.06.44.11.67.15.32-.04.62-.13.82-.31.13-.53.23-1.07.27-1.61.05-.71.05-1.52-.35-2.15-.19-.3-.41-.39-.66-.32-.14.1-.28.21-.41.33-.2.17-.38.36-.56.56-.37.67-.68,1.37-.83,2.11-.04.2-.07.44-.05.66.29.29.69.47,1.09.58Z"/>
            <path class="cls-7" d="m135.53,330.43c-.07-.11-.15-.18-.23-.24.1.28.15.59.18.89.05.47.03.93-.03,1.4-.06.38-.15.79-.37,1.12-.3.45-.78.61-1.31.53-.14-.02-.28-.06-.42-.11.23.15.49.25.76.33.22.06.44.11.67.15.32-.04.62-.13.82-.31.13-.53.23-1.07.27-1.61.05-.71.05-1.52-.35-2.15Z"/>
          </g>
          <g>
            <path class="cls-10" d="m86.7,247.73c-1.15-5.86-2.97-11.46-5.78-16.74-2.33-4.38-5.21-8.93-9.63-11.44-3.9-2.21-8.66-3.4-13.1-2.28-4.75,1.19-8.18,5.02-9.74,9.56-.59,1.71-.92,3.5-1.04,5.31-.29,1.65-.4,3.34-.35,5.03.26,7.64,4.25,14.33,6.91,21.31,2.91,7.64,4.52,15.8,5.78,23.85,1.27,8.13,2.1,16.31,3.14,24.47.99,7.74,2.09,15.47,2.48,23.26-.16.78-.11,1.61-.43,2.35-.41.97-1.16,1.76-1.51,2.76-.22.65-.25,1.37.14,1.96,1.32,2.02,12.71,1.13,15.88.15,1.82-.57,3.11-1.55,3.31-3.53.31-3.13-.04-6.09-.04-9.21-.3-6.65-.36-13.3-.21-19.95.15-6.51.57-13.01,1.62-19.44,1.02-6.23,2.29-12.43,3-18.71.71-6.25.78-12.51-.44-18.7Z"/>
            <path class="cls-3" d="m86.7,247.73c-1.15-5.86-2.97-11.46-5.78-16.74-2.33-4.38-5.21-8.93-9.63-11.44-2.75-1.56-5.92-2.6-9.11-2.7.53.15,1.06.33,1.58.54,3.74,1.55,6.88,4.37,9.41,7.47,2.6,3.19,4.58,6.78,5.78,10.72,1.51,4.95,2.03,10.16,2.09,15.31.12,10.93-1.66,21.82-2.98,32.64-.72,5.9-1.34,11.86-1.28,17.81.06,5.76,1.32,11.41,2.3,17.06.48,2.77.9,5.57,1.07,8.38.13,2.05.35,4.43-.71,6.3-.7,1.23-1.94,1.87-3.27,2.21-1.65.42-3.35.54-5,.95-.2.05-.35-.09-.37-.28-.09-.87-.37-1.83-.98-2.48-.79-.83-1.7-.34-2.37.37-.12.12-.38.11-.46-.06-.41-.96-1.13-1.47-1.95-1.65-.03.09-.06.18-.1.26-.41.97-1.16,1.76-1.51,2.76-.22.65-.25,1.37.14,1.96,1.32,2.02,12.71,1.13,15.88.15,1.82-.57,3.11-1.55,3.31-3.53.31-3.13-.04-6.09-.04-9.21-.3-6.65-.36-13.3-.21-19.95.15-6.51.57-13.01,1.62-19.44,1.02-6.23,2.29-12.43,3-18.71.71-6.25.78-12.51-.44-18.7Z"/>
            <g class="cls-5">
              <path class="cls-2" d="m61.95,257.08c2.08-.41,4.25-1.18,5.66-2.82-1.29,0-2.56.26-3.8.6-2.59.69-5.08,1.66-7.79,1.78-.97.05-1.91-.02-2.84-.17.18.44.36.88.53,1.32.22-.01.45-.02.67-.03,2.53-.12,5.08-.19,7.57-.68Z"/>
              <path class="cls-2" d="m55.18,261.9c.07.21.14.43.2.65,1.93-.47,3.84-1.03,5.62-1.91-1.94.42-3.86.97-5.82,1.26Z"/>
              <path class="cls-2" d="m58.27,273.95c.07.35.14.7.2,1.05,1.73-.54,3.43-1.2,4.89-2.24-1.72.28-3.37.94-5.09,1.19Z"/>
              <path class="cls-2" d="m59.93,283.54c.08.51.16,1.03.23,1.54,2.15-.71,4.23-1.77,5.82-3.32-2.06.39-4.02,1.26-6.05,1.78Z"/>
              <path class="cls-2" d="m63.78,286.95c-1.1.12-2.2.32-3.28.57.05.37.1.74.15,1.1,2.87-.43,5.8-.55,8.59-1.39-1.75-.52-3.66-.48-5.46-.28Z"/>
              <path class="cls-2" d="m61.12,292.28c.04.34.09.68.13,1.02,1.43-.24,2.86-.55,4.21-1.07-1.44.06-2.89.09-4.33.06Z"/>
              <path class="cls-2" d="m61.61,296.27c.06.48.12.96.17,1.45,2.29-.28,4.57-.67,6.75-1.42-2.31-.06-4.64.27-6.93-.03Z"/>
              <path class="cls-2" d="m62.21,301.2c.04.35.09.69.13,1.04,1.2-.35,2.43-.62,3.58-1.1-1.23-.09-2.47.05-3.71.06Z"/>
              <path class="cls-2" d="m63.46,311.18c.08.59.15,1.17.23,1.76,1.82-.4,3.62-.9,5.2-1.85-1.8-.1-3.62.11-5.43.1Z"/>
              <path class="cls-2" d="m47.76,242.25c.09.39.19.77.29,1.16,1.64.36,3.32.54,5,.62-1.78-.56-3.53-1.18-5.29-1.78Z"/>
              <path class="cls-2" d="m47.06,236.86c0,.1,0,.2,0,.3.01.29.03.58.05.87.95.24,1.91.45,2.88.51-.95-.6-1.94-1.15-2.93-1.68Z"/>
              <path class="cls-2" d="m53.31,233.93c1.34-.09,2.71-.33,4-.75-3.33.24-6.73-.06-9.9-1.11,0,.02,0,.05,0,.07-.07.41-.13.81-.18,1.22,1.97.56,4.05.72,6.08.57Z"/>
              <path class="cls-2" d="m70.69,265.09c-1.05.06-2.09.26-3.12.53-2.45.63-4.82,1.54-7.31,2.04-1.1.22-2.23.35-3.34.31.23.92.45,1.85.66,2.78,2.55-.31,5.07-1.07,7.42-2.1,2.03-.89,4.06-2.02,5.68-3.55Z"/>
            </g>
            <path class="cls-15" d="m69.07,338.03s.02-.03.03-.04c.09-.13.13-.29.17-.44.15-.56.29-1.12.33-1.7.31-5.16-5.21,1.28-3.74,2.33.09.06.19.08.3.09.66.09,2.41.4,2.92-.24Z"/>
            <path class="cls-7" d="m69.15,333.98c.11.63.03,1.3-.1,1.92-.11.52-.26,1.14-.62,1.54-.43.48-1.24.61-1.85.59-.33-.01-.68-.09-.96-.24.03.16.1.29.23.38.09.06.19.08.3.09.66.09,2.41.4,2.92-.24.01-.01.02-.03.03-.04.09-.13.13-.29.17-.44.15-.56.29-1.12.33-1.7.06-1.07-.12-1.63-.44-1.86Z"/>
            <path class="cls-15" d="m64.56,337.96c.45-.58.86-1.19,1.12-1.87.25-.64.46-1.36.44-2.05,0-.58-.31-1.18-.89-1.21-.46.24-.87.63-1.2.97-.35.37-.66.79-.91,1.24-.27.47-.5,1.04-.41,1.59.13.82,1.05,1.49,1.84,1.33Z"/>
            <path class="cls-7" d="m65.64,332.96c.04.3.06.6.07.9,0,.62-.08,1.26-.3,1.85-.21.54-.57,1.17-1.09,1.46-.56.31-1.13.08-1.54-.35.23.73,1.06,1.29,1.79,1.14.45-.58.86-1.19,1.12-1.87.25-.64.46-1.36.44-2.05,0-.42-.17-.86-.49-1.07Z"/>
            <path class="cls-17" d="m65.38,330.05c-.08.38-.1.77-.15,1.16.59-1.3.49-3.04.45-4.34-.08-2.66-.08-5.32-.23-7.98-.3-5.43-.92-10.84-1.49-16.24-.58-5.45-1.17-10.9-1.91-16.34-.71-5.27-1.46-10.59-2.71-15.76-1.21-5-3.02-9.83-4.87-14.62-1.35-3.49-2.72-6.94-3.66-10.56-1.52-5.88-2.33-12.36-.71-18.31.75-2.75,2.1-5.35,4.12-7.38.69-.69,1.44-1.29,2.24-1.83-3.85,1.6-6.64,5.02-8.01,8.98-.59,1.71-.92,3.5-1.04,5.31-.29,1.65-.4,3.34-.35,5.03.26,7.64,4.25,14.33,6.91,21.31,2.91,7.64,4.52,15.8,5.78,23.85,1.27,8.13,2.1,16.31,3.14,24.47.99,7.74,2.09,15.47,2.48,23.26Z"/>
          </g>
          <path class="cls-14" d="m151.66,289.42c3.09-.32,6.17-.75,9.25-1.21.36-.37.71-.75,1.06-1.14,2.91-3.25,5.14-6.98,6.72-11.04,3.66-9.42,4.8-19.7,2.22-29.55-1.29-4.94-3.42-9.64-6.26-13.88-15-22.38-40.87-35.37-66.12-42.58-6.99-2-14.24-3.77-21.53-3.98-10.05-.29-18.75,3.64-26.06,10.39-4.18,3.86-7.66,8.43-10.48,13.36-1.45,2.54-2.73,5.17-3.85,7.88-.69,1.66-1.3,3.34-1.79,5.04-1.31,7.23-1.24,14.6,1.1,21.76,3.96,12.14,13.97,20.35,26.14,23.51,1.64.43,3.33.79,5.05,1.07.2.18.38.37.58.56,1.6,1.46,3.27,2.83,5.01,4.11.65.75,1.33,1.48,2.02,2.19,5.81,5.97,12.51,10.87,20.09,14.36,8.55,3.93,17.89,6.12,27.33,5.66,9.44-.46,18.99-2.93,27.84-6.34.56-.05,1.13-.1,1.69-.16Z"/>
          <path class="cls-16" d="m48.43,200.12c4.12,4.67,11.33-.06,15.38-2.41,3.3-1.92,6.68-4.06,10.5-4.74,1.78-.32,3.62-.27,5.34.29,1.62.52,3.15,1.4,4.62,2.23,3,1.69,5.9,3.32,9.4,3.61,3.1.25,6.24.07,9.27.93,2.56.72,4.67,2.26,6.43,4.22,1.2,1.33,2.2,2.82,3.39,4.15,1.12,1.26,2.35,2.43,3.7,3.43,2.51,1.88,5.41,3.12,8.45,3.86,3.25.79,6.59.91,9.88,1.45,2.53.42,5.05,1.13,7.07,2.76,2.4,1.93,3.52,4.67,4.82,7.37,1.01,2.09,2.25,3.99,4.38,5.05,1.09.54,2.28.89,3.45,1.22,1.17.33,2.41.55,3.53,1.03,1.67.71,3.04,1.98,4.22,3.32,1.43,1.62,2.65,3.42,3.83,5.22,1.87,2.87,3.61,6,5.83,8.67-.23-1.77-.56-3.53-1.02-5.28-1.29-4.94-3.42-9.64-6.26-13.88-15-22.38-40.87-35.37-66.12-42.58-6.99-2-14.24-3.77-21.53-3.98-10.05-.29-18.75,3.64-26.06,10.39-1.05.97-2.06,1.98-3.02,3.04.16.23.33.45.51.66Z"/>
          <path class="cls-6" d="m66.71,191.37c1.33,1.21,3.37,1,4.99.66,1.78-.37,3.48-1.02,5.23-1.49,2.07-.56,4.31-.78,6.44-.52,2.13.26,4.13,1.03,6.05,1.97,2.33,1.14,4.57,2.57,7,3.51,2.34.9,4.79,1.12,7.27,1.19,2.3.06,4.62,0,6.86.58,7.81,2.02,11.99,9.99,19.34,12.9,2.08.82,4.32,1.05,6.46,1.66,2.16.61,4.03,1.68,5.67,3.2,1.62,1.5,2.98,3.28,4.71,4.66,2.03,1.62,4.47,2.16,6.88,2.97,1.7.57,3.37,1.24,4.97,2.05-15.35-17.61-37.94-28.36-60.05-34.68-6.99-2-14.24-3.77-21.53-3.98-3.97-.12-7.72.43-11.26,1.54-.29,1.36-.16,2.75.98,3.79Z"/>
          <path class="cls-3" d="m44.94,203.04c-.1.18-.2.36-.29.54.53-.8,1.1-1.57,1.71-2.32-.49.58-.96,1.18-1.42,1.78Z"/>
          <path class="cls-3" d="m170.63,268.01c-.29-1.64-.32-3.3-.35-4.96-.13-.75-.27-1.51-.41-2.26-1.05-5.38-2.65-10.7-5.65-15.22.01.12.03.24.05.36.41,3.9.03,7.88-.84,11.7-.93,4.06-2.43,8-4.44,11.65-1.96,3.56-4.44,6.88-7.46,9.61-2.83,2.56-6.18,4.59-9.88,5.58-2.53.68-5.29.78-7.64-.52-2.07-1.15-3.47-3.17-4.38-5.31-1.11-2.61-1.62-5.46-1.87-8.28-.29-3.14-.24-6.3,0-9.44.2-2.63.55-5.26,1.04-7.86-.56,1.63-1.06,3.28-1.53,4.93-.8,2.81-1.58,5.62-2.28,8.45-.49,1.97-.99,3.94-1.72,5.83-.59,1.55-1.31,3.08-2.46,4.3-4.21,4.52-11.46,3.2-16.81,2.11-2.5-.51-5.11-1.29-7.05-3.01-1.77-1.56-2.6-3.78-2.87-6.08-.39-3.27.15-6.63.14-9.91,0-3.21-.27-6.63-1.8-9.51-.16,4.55-.28,9.15-1.71,13.51-.1.32-.55.25-.57-.08-.3-4.59.02-9.19-.13-13.78-.15-4.52-.94-8.89-2.65-13.08-2.3-5.63-5.93-11.1-11.38-14.1-5.26-2.9-12.39-3.47-17.28.46-4.64,3.74-6.58,10.15-6.5,15.93.11,7.95,3.31,15.19,6.51,22.31.1.23-.06.49-.33.43-4.17-1.03-8.09-2.95-11.36-5.75-5.12-4.38-8.23-10.59-9.37-17.16-.61-1.96-1.03-3.97-1.3-6.01-.39-2.9-.46-5.84-.27-8.76.18-2.73.6-5.44,1.25-8.09-.24.55-.48,1.1-.71,1.65-.69,1.66-1.3,3.34-1.79,5.04-1.31,7.23-1.24,14.6,1.1,21.76,3.96,12.14,13.97,20.35,26.14,23.51,1.64.43,3.33.79,5.05,1.07.2.18.38.37.58.56,1.6,1.46,3.27,2.83,5.01,4.11.65.75,1.33,1.48,2.02,2.19,5.81,5.97,12.51,10.87,20.09,14.36,8.55,3.93,17.89,6.12,27.33,5.66,9.44-.46,18.99-2.93,27.84-6.34.56-.05,1.13-.1,1.69-.16,3.09-.32,6.17-.75,9.25-1.21.36-.37.71-.75,1.06-1.14,2.91-3.25,5.14-6.98,6.72-11.04.88-2.28,1.62-4.61,2.19-6.97-.1-.35-.18-.7-.25-1.05Z"/>
          <g>
            <path class="cls-14" d="m92.35,249.53c-1.15-5.86-2.97-11.46-5.78-16.74-2.33-4.38-5.21-8.93-9.63-11.44-3.9-2.21-8.66-3.4-13.1-2.28-4.75,1.19-8.18,5.02-9.74,9.56-.59,1.71-.92,3.5-1.04,5.31-.29,1.65-.4,3.34-.35,5.03.26,7.64,4.25,14.33,6.91,21.31,2.91,7.64,4.52,15.8,5.78,23.85,1.27,8.13,2.1,16.31,3.14,24.47.99,7.74,2.09,15.47,2.48,23.26-.16.78-.11,1.61-.43,2.35-.41.97-1.16,1.76-1.51,2.76-.22.65-.25,1.37.14,1.96,1.32,2.02,12.71,1.13,15.88.15,1.82-.57,3.11-1.55,3.31-3.53.31-3.13-.04-6.09-.04-9.21-.3-6.65-.36-13.3-.21-19.95.15-6.51.57-13.01,1.62-19.44,1.02-6.23,2.29-12.43,3-18.71.71-6.25.78-12.51-.44-18.7Z"/>
            <path class="cls-3" d="m92.35,249.53c-1.15-5.86-2.97-11.46-5.78-16.74-2.33-4.38-5.21-8.93-9.63-11.44-2.75-1.56-5.92-2.6-9.11-2.7.53.15,1.06.33,1.58.54,3.74,1.55,6.88,4.37,9.41,7.47,2.6,3.19,4.58,6.78,5.78,10.72,1.51,4.95,2.03,10.16,2.09,15.31.12,10.93-1.66,21.82-2.98,32.64-.72,5.9-1.34,11.86-1.28,17.81.06,5.76,1.32,11.41,2.3,17.06.48,2.77.9,5.57,1.07,8.38.13,2.05.35,4.43-.71,6.3-.7,1.23-1.94,1.87-3.27,2.21-1.65.42-3.35.54-5,.95-.2.05-.35-.09-.37-.28-.09-.87-.37-1.83-.98-2.48-.79-.83-1.7-.34-2.37.37-.12.12-.38.11-.46-.06-.41-.96-1.13-1.47-1.95-1.65-.03.09-.06.18-.1.26-.41.97-1.16,1.76-1.51,2.76-.22.65-.25,1.37.14,1.96,1.32,2.02,12.71,1.13,15.88.15,1.82-.57,3.11-1.55,3.31-3.53.31-3.13-.04-6.09-.04-9.21-.3-6.65-.36-13.3-.21-19.95.15-6.51.57-13.01,1.62-19.44,1.02-6.23,2.29-12.43,3-18.71.71-6.25.78-12.51-.44-18.7Z"/>
            <path class="cls-3" d="m92.35,249.53c-1.15-5.86-2.97-11.46-5.78-16.74-1.14-2.13-2.4-4.31-3.91-6.26,2.72,4.41,4.58,9.37,5.76,14.41,1.92,8.16,2.24,16.67,1.52,25-.39,4.62-1.23,9.17-2.06,13.73-1.05,5.75-2.09,11.52-2.56,17.35-.47,5.81-.2,11.56.47,17.34.58,5,1.29,9.99,1.69,15.01.21,2.6.3,5.94-.46,8.78.77-.59,1.28-1.42,1.4-2.59.31-3.13-.04-6.09-.04-9.21-.3-6.65-.36-13.3-.21-19.95.15-6.51.57-13.01,1.62-19.44,1.02-6.23,2.29-12.43,3-18.71.71-6.25.78-12.51-.44-18.7Z"/>
            <g class="cls-5">
              <path class="cls-2" d="m67.6,258.88c2.07-.41,4.25-1.18,5.66-2.82-1.29,0-2.56.26-3.8.6-2.59.69-5.08,1.66-7.79,1.78-.97.05-1.91-.02-2.84-.17.18.44.36.88.53,1.32.22-.01.44-.02.67-.03,2.53-.12,5.08-.19,7.57-.68Z"/>
              <path class="cls-2" d="m60.83,263.7c.07.21.13.43.2.65,1.93-.47,3.84-1.03,5.62-1.91-1.94.42-3.86.97-5.82,1.26Z"/>
              <path class="cls-2" d="m63.92,275.74c.07.35.14.7.2,1.05,1.73-.54,3.43-1.2,4.89-2.24-1.72.28-3.37.94-5.09,1.19Z"/>
              <path class="cls-2" d="m65.58,285.33c.08.51.16,1.03.23,1.54,2.15-.71,4.23-1.77,5.82-3.32-2.06.39-4.02,1.26-6.05,1.78Z"/>
              <path class="cls-2" d="m69.43,288.75c-1.1.12-2.2.32-3.28.57.05.37.1.74.15,1.1,2.87-.43,5.8-.55,8.59-1.39-1.75-.52-3.66-.48-5.46-.28Z"/>
              <path class="cls-2" d="m66.77,294.07c.04.34.09.68.13,1.02,1.43-.24,2.86-.55,4.21-1.07-1.44.06-2.89.09-4.33.06Z"/>
              <path class="cls-2" d="m67.26,298.07c.06.48.12.96.17,1.45,2.29-.28,4.57-.67,6.75-1.42-2.31-.06-4.64.27-6.93-.03Z"/>
              <path class="cls-2" d="m67.86,303c.04.35.09.69.13,1.04,1.2-.35,2.43-.62,3.58-1.1-1.23-.09-2.47.05-3.71.06Z"/>
              <path class="cls-2" d="m69.11,312.97c.08.59.15,1.17.23,1.76,1.82-.4,3.62-.9,5.2-1.85-1.8-.1-3.62.11-5.43.1Z"/>
              <path class="cls-2" d="m53.41,244.05c.09.39.19.77.29,1.16,1.64.36,3.32.54,5,.62-1.78-.56-3.53-1.18-5.29-1.78Z"/>
              <path class="cls-2" d="m52.71,238.66c0,.1,0,.2,0,.3.01.29.03.58.05.87.95.24,1.91.45,2.88.51-.95-.6-1.94-1.15-2.93-1.68Z"/>
              <path class="cls-2" d="m58.96,235.72c1.34-.09,2.71-.33,4-.75-3.33.24-6.73-.06-9.9-1.11,0,.02,0,.05,0,.07-.07.41-.13.81-.18,1.22,1.97.56,4.05.72,6.08.57Z"/>
              <path class="cls-2" d="m76.33,266.89c-1.05.06-2.09.27-3.12.53-2.45.63-4.82,1.54-7.31,2.04-1.1.22-2.23.35-3.34.31.23.92.45,1.85.66,2.78,2.55-.31,5.07-1.07,7.42-2.1,2.03-.89,4.06-2.02,5.68-3.55Z"/>
            </g>
            <path class="cls-15" d="m74.72,339.82s.02-.03.03-.04c.09-.13.13-.29.17-.44.15-.56.29-1.12.33-1.7.31-5.16-5.21,1.28-3.74,2.33.09.06.19.08.3.09.66.09,2.41.4,2.92-.24Z"/>
            <path class="cls-7" d="m74.8,335.78c.11.63.03,1.3-.1,1.92-.11.52-.26,1.14-.62,1.54-.43.48-1.24.61-1.85.59-.33-.01-.68-.09-.96-.24.03.16.1.29.23.38.09.06.19.08.3.09.66.09,2.41.4,2.92-.24.01-.01.02-.03.03-.04.09-.13.13-.29.17-.44.15-.56.29-1.12.33-1.7.06-1.07-.12-1.63-.44-1.86Z"/>
            <path class="cls-15" d="m70.21,339.76c.45-.58.86-1.19,1.12-1.87.25-.64.46-1.36.45-2.05,0-.58-.31-1.18-.89-1.21-.46.24-.87.63-1.2.97-.35.37-.66.79-.91,1.24-.27.47-.5,1.04-.41,1.59.13.82,1.05,1.49,1.84,1.33Z"/>
            <path class="cls-7" d="m71.29,334.76c.04.3.06.6.07.9,0,.62-.08,1.26-.3,1.85-.21.54-.57,1.17-1.1,1.46-.56.31-1.13.08-1.54-.35.23.73,1.06,1.29,1.79,1.14.45-.58.86-1.19,1.12-1.87.25-.64.46-1.36.45-2.05,0-.42-.17-.86-.49-1.07Z"/>
            <path class="cls-17" d="m71.02,331.85c-.08.38-.1.77-.15,1.16.59-1.3.49-3.04.45-4.34-.08-2.66-.08-5.32-.23-7.98-.3-5.43-.92-10.84-1.49-16.24-.58-5.45-1.17-10.9-1.91-16.34-.71-5.27-1.46-10.59-2.71-15.76-1.21-5-3.02-9.83-4.87-14.62-1.35-3.49-2.72-6.94-3.66-10.56-1.52-5.88-2.33-12.36-.71-18.31.75-2.75,2.1-5.35,4.12-7.38.69-.69,1.44-1.29,2.24-1.83-3.85,1.6-6.64,5.02-8.01,8.98-.59,1.71-.92,3.5-1.04,5.31-.29,1.65-.4,3.34-.35,5.03.26,7.64,4.25,14.33,6.91,21.31,2.91,7.64,4.52,15.8,5.78,23.85,1.27,8.13,2.1,16.31,3.14,24.47.99,7.74,2.09,15.47,2.48,23.26Z"/>
          </g>
          <g>
            <path class="cls-14" d="m167.67,256.3c-.76-8.82-6.16-16.9-14.96-19.41-12.41-3.54-23.41,5.19-25.98,17.06-2.68,12.35-1.07,25.37,1.23,37.67,1.39,7.43,3.3,14.77,5.72,21.94,2.07,6.12,7.56,14.15,6.44,20.76-.18,1.03-.88,1.96-.87,3.02.01,1.67,1.96,2.04,3.27,2.15,2.21.18,4.42.36,6.63.51,2.35.16,4.71.23,7.06-.04,1.94-.22,4.1-.65,5.73-1.78,1.56-1.08,2.14-2.86,1.74-4.68-.26-1.18-.84-2.25-1.29-3.37-.03-.08-.06-.16-.09-.24-.13-.8-.29-1.6-.42-2.4-2.35-13.91-4.96-26.78-.74-40.65,2.97-9.74,7.42-20.17,6.52-30.53Z"/>
            <path class="cls-17" d="m139.26,325.88c-.78-3.23-2-6.32-3.09-9.46-3.06-8.83-5.85-17.73-7.67-26.9-1.77-8.94-2.77-18.15-2.12-27.26.3-4.15.91-8.33,2.24-12.28,1.14-3.38,3.03-6.33,5.67-8.74,1.22-1.11,2.56-2.1,3.99-2.95-5.76,3-10.07,8.8-11.55,15.66-2.68,12.35-1.07,25.37,1.23,37.67,1.39,7.43,3.3,14.77,5.72,21.94,1.56,4.6,5.05,10.28,6.21,15.63-.14-1.13-.37-2.25-.62-3.31Z"/>
            <path class="cls-3" d="m162.39,330.13c-.03-.08-.06-.16-.09-.24-.13-.8-.29-1.6-.42-2.4-2.35-13.91-4.96-26.78-.74-40.65,2.97-9.74,7.42-20.17,6.52-30.53-.76-8.82-6.16-16.9-14.96-19.41-3.61-1.03-7.1-1.01-10.3-.19,2.1-.08,4.22.2,6.26.84,3.07.97,5.89,2.77,7.96,5.25,2.42,2.89,3.53,6.4,3.89,10.11,1.01,10.37-3.31,20.25-6.18,29.98-1.48,5.02-2.65,10.16-2.6,15.42.06,6.07,1.21,12.07,2.5,17.98.58,2.65,1.4,5.22,2.16,7.82.75,2.57,1.43,5.21,1.51,7.9.06,1.81-.18,3.77-1.57,5.07-1.33,1.25-3.25,1.65-5,1.91-.14.02-.33-.04-.36-.2-.15-.95-.47-2.12-1.35-2.66-1-.63-2,.32-2.6,1.06-.17.21-.48.02-.5-.21-.08-.93-.48-2.06-1.5-2.3-1.06-.25-1.91.66-2.39,1.48-.13.23-.45.16-.53-.07-.39-1.1-1.22-1.41-2.13-1.29-.26.84-.76,1.64-.75,2.54.01,1.67,1.96,2.04,3.27,2.15,2.21.18,4.42.36,6.63.51,2.35.16,4.71.23,7.06-.04,1.94-.22,4.1-.65,5.73-1.78,1.56-1.08,2.14-2.86,1.74-4.68-.26-1.18-.84-2.25-1.29-3.37Z"/>
            <path class="cls-3" d="m162.39,330.13c-.03-.08-.06-.16-.09-.24-.13-.8-.29-1.6-.42-2.4-2.35-13.91-4.96-26.78-.74-40.65,2.97-9.74,7.42-20.17,6.52-30.53-.3-3.52-1.35-6.91-3.04-9.89.03.08.07.16.1.25,1.49,4.02,1.8,8.27,1.39,12.51-.39,4.11-1.39,8.07-2.71,11.97-1.36,4.01-2.99,7.91-4.4,11.9-1.39,3.94-2.36,8-2.74,12.16-.38,4.12-.28,8.32.17,12.43.43,3.96.73,7.94,1.49,11.85.37,1.89.84,3.77,1.52,5.58.71,1.89,1.8,3.56,2.74,5.34.86,1.64,1.38,3.37,1.53,5.15.14-.66.14-1.36-.02-2.07-.26-1.18-.84-2.25-1.29-3.37Z"/>
            <g class="cls-1">
              <path class="cls-14" d="m127.66,250.74c-.07.19-.13.38-.19.57,3.29-.83,6.77-.78,10.11-1.39-3.32-.12-6.64.24-9.92.82Z"/>
              <path class="cls-14" d="m130.5,255.33c1.36-.02,2.71-.12,4.07-.23,2.3-.19,4.59-.4,6.88-.59-.75-.12-1.5-.21-2.26-.29-4.17-.41-8.37-.28-12.54.1-.08.39-.15.78-.23,1.17.03,0,.07-.01.1-.01,1.32-.13,2.65-.13,3.97-.15Z"/>
              <path class="cls-14" d="m132.79,261.53c-2.38-.16-4.8-.23-7.18,0-.05.53-.09,1.06-.12,1.59.99-.09,1.99-.2,2.97-.36,1.47-.24,2.98-.58,4.33-1.23Z"/>
              <path class="cls-14" d="m128.96,270.24c1.03.05,2.05.03,3.08.03,2.25-.01,4.56-.08,6.74-.7-.9-.22-1.8-.41-2.71-.55-3.52-.53-7.17-.56-10.72-.1,0,.42.02.85.03,1.27.09,0,.18-.01.28-.02,1.1-.05,2.2.02,3.31.07Z"/>
              <path class="cls-14" d="m125.61,274.52c.02.26.04.52.06.78,1.4-.22,2.81-.47,4.18-.83-1.41,0-2.83-.03-4.24.05Z"/>
              <path class="cls-14" d="m133.82,279.92c-1.78-.2-3.6-.16-5.38.03-.75.08-1.52.19-2.27.35.05.37.09.74.14,1.11,2.87-.69,5.87-.81,8.79-1.29-.42-.09-.85-.15-1.28-.2Z"/>
              <path class="cls-14" d="m130.68,290.47c-.94.23-1.86.51-2.79.8.02.12.04.24.07.36.04.23.09.45.13.68,1.98-.57,3.93-1.26,5.75-2.23-1.05-.1-2.17.15-3.16.39Z"/>
              <path class="cls-14" d="m130.1,301.34c.08.32.16.64.24.96,2.04-.93,4.29-1.42,6.24-2.53-2.22.2-4.35.93-6.48,1.56Z"/>
              <path class="cls-14" d="m141.66,308.74c-1.67.12-3.31.6-4.9,1.08-1.3.39-2.6.82-3.92,1.16.16.5.33,1,.49,1.5,1.12-.36,2.25-.69,3.36-1.08,1.78-.62,3.56-1.39,4.97-2.66Z"/>
              <path class="cls-14" d="m134.17,314.91c.17.42.34.85.53,1.28,1.08-.58,2.16-1.15,3.14-1.87-1.21.25-2.44.51-3.67.59Z"/>
              <path class="cls-14" d="m136.75,320.7c.16.34.31.68.46,1.02,2.58-1.28,5.37-2.2,7.73-3.87-2.84.51-5.51,1.75-8.19,2.84Z"/>
              <path class="cls-14" d="m138.88,325.78c.1.27.19.55.28.82,1.47-.53,2.92-1.14,4.31-1.86-1.57.17-3.11.5-4.6,1.04Z"/>
              <path class="cls-14" d="m139.97,329.65c.09.46.16.92.21,1.38,1.94-.48,3.86-1.08,5.69-1.87-1.97-.07-3.93.29-5.9.49Z"/>
              <path class="cls-14" d="m128.98,296.61c.05.24.11.49.16.73,2.25-.49,4.47-1.08,6.6-1.96-2.27.27-4.5.83-6.76,1.23Z"/>
            </g>
            <path class="cls-15" d="m145.32,339.97s.02,0,.02-.01c.1-.06.2-.13.29-.19.1-.46.19-.93.24-1.4.08-.74.13-1.64-.3-2.29-.34-.51-.91-.69-1.43-.34-.55.37-.91,1.01-1.2,1.59-.09.18-.18.38-.26.57-.22.75-.33,1.57.05,1.87.12.1.28.13.43.15.52.08,1.47.24,2.16.07Z"/>
            <path class="cls-7" d="m145.83,336.63c.02.16.02.32.02.48,0,.61-.12,1.26-.5,1.76-.43.56-1.06.69-1.74.7-.38,0-.79-.05-1.11-.26.03.19.1.34.22.44.12.1.28.13.43.15.52.08,1.47.24,2.16.07,0,0,.02,0,.02-.01.1-.06.2-.13.29-.19.1-.46.19-.93.24-1.4.06-.54.1-1.17-.05-1.72Z"/>
            <path class="cls-15" d="m149.57,340.31s.01,0,.02-.01c.09-.05.17-.11.26-.17.09-.41.17-.82.21-1.24.07-.65.12-1.45-.27-2.02-.3-.45-.81-.61-1.27-.3-.48.33-.8.89-1.06,1.4-.08.16-.16.33-.23.5-.2.66-.29,1.39.04,1.65.11.08.24.11.38.13.46.07,1.3.21,1.91.06Z"/>
            <path class="cls-7" d="m149.79,336.87c-.04-.05-.08-.1-.12-.15.03.26.06.53.07.79.02.57-.03,1.2-.33,1.71-.33.55-.94.77-1.56.68-.44-.07-.68-.28-.79-.56-.02.34.03.64.21.79.11.08.24.11.38.13.46.07,1.3.21,1.91.06,0,0,.01,0,.02-.01.09-.05.17-.11.26-.17.09-.41.17-.82.21-1.24.07-.65.12-1.45-.27-2.02Z"/>
            <path class="cls-15" d="m139.76,339.48c.22.06.44.11.67.15.32-.04.62-.13.82-.31.13-.53.23-1.07.27-1.61.05-.71.05-1.52-.35-2.15-.19-.3-.41-.39-.66-.32-.14.1-.28.21-.41.33-.2.17-.38.36-.56.56-.37.67-.68,1.37-.83,2.11-.04.2-.07.44-.05.66.29.29.69.47,1.09.58Z"/>
            <path class="cls-7" d="m141.18,335.57c-.07-.11-.15-.18-.23-.24.1.28.15.59.18.89.05.47.03.93-.03,1.4-.06.38-.15.79-.37,1.12-.3.45-.78.61-1.31.53-.14-.02-.28-.06-.42-.11.23.15.49.25.76.33.22.06.44.11.67.15.32-.04.62-.13.82-.31.13-.53.23-1.07.27-1.61.05-.71.05-1.52-.35-2.15Z"/>
          </g>
          <g>
            <path class="cls-2" d="m69.31,205.37c.07-.52-.2-1-.48-1.41-.06-.06-.12-.12-.19-.18-.12-.08-.24-.13-.38-.13-.09-.01-.18,0-.28,0,0,0,0,0,0,0-.11-.09-.28-.1-.41-.08-.16.02-.35.07-.47.18-.1.09-.21.17-.3.27-.08.09-.16.19-.23.3-.11.15-.19.32-.27.49-.12.26-.2.56-.2.84,0,.32.06.6.19.89.15.34.36.58.63.84.16.15.53.15.72.11.28-.07.59-.21.77-.44.01-.01.02-.03.03-.04.03-.01.06-.02.09-.04.02,0,.04-.02.05-.03.02,0,.04-.02.08-.04,0,0,.02-.01.02-.02.07-.05.13-.1.19-.16,0,0,.01,0,.02-.02,0,0,0,0,0,0,.07-.07.12-.14.17-.22,0,0,0,0,0,0,.04-.06.08-.14.11-.23,0,0,0,0,0-.01,0,0,0,0,0,0,.01-.03.03-.07.04-.1.03-.1.07-.25.07-.33,0-.08,0-.16-.02-.24.01-.06.03-.11.04-.16Z"/>
            <path class="cls-2" d="m72.57,207.82c-.83,0-1.6,1.47-.5,1.47.83,0,1.6-1.47.5-1.47Z"/>
            <path class="cls-2" d="m79.34,212.55s0,0,0-.01c0-.01,0-.02,0-.03,0-.02-.02-.25-.02-.27,0,0,0-.01,0-.02,0-.01,0-.02-.01-.03,0-.02-.01-.04-.02-.07,0-.02,0-.04-.01-.06,0,0,0,0,0-.01,0-.03-.09-.21-.11-.24,0,0-.01-.01-.02-.02-.01-.01-.02-.03-.03-.04,0,0,0-.01,0-.01,0,0,0,0,0,0-.03-.03-.06-.06-.09-.09-.03-.03-.06-.06-.09-.09-.07-.03-.15-.07-.22-.1,0,0,0,0-.01,0,0,0,0,0-.01-.01-.03-.02-.06-.04-.09-.06-.07-.04-.17-.09-.25-.1-.12-.03-.23-.03-.35,0-.1.02-.2.06-.28.11-.1.05-.18.11-.25.19-.09.09-.16.2-.2.32-.02.06-.04.13-.06.19-.03.04-.06.07-.06.08,0,0,0,.01-.01.02-.05.09-.11.22-.15.32-.02.05-.02.09-.03.15-.02.09-.03.1-.03.15,0,.02,0,.03,0,.05.02.22.01.5.18.67.07.07.14.14.21.2,0,0,.02.02.03.02,0,0,.01,0,.02,0,0,0,0,0,0,0,.04.02.19.1.23.11,0,0,0,0,.01,0,0,0,.26.04.26.04,0,0,0,0,0,0,.09,0,.19-.02.28-.03.1-.03.2-.06.29-.09.1-.05.19-.11.29-.16.14-.09.25-.2.34-.34.07-.07.12-.16.16-.25.05-.08.08-.17.09-.26.03-.08.04-.17.02-.25Z"/>
            <path class="cls-2" d="m107.46,204.93c-.23-.12-.47-.19-.71-.24-.02-.03-.04-.06-.07-.09-.19-.21-.41-.34-.69-.42-1.38-.36-2.73.55-3.49,1.63-.78,1.12-.97,2.6-.22,3.78.67,1.07,1.96,1.57,3.18,1.35,1.69-.3,2.88-1.87,3.17-3.48.18-1-.23-2.07-1.17-2.54Z"/>
            <path class="cls-2" d="m115.17,229.17c-.78,0-1.5,1.38-.47,1.38.78,0,1.5-1.38.47-1.38Z"/>
            <path class="cls-2" d="m110.61,228.13c-.27-1.43-1.31-2.59-2.87-1.56-.43.29-.69.76-.86,1.25-.39,1.13-.3,2.92,1.07,3.35,2.23.7,2.98-1.35,2.66-3.04Z"/>
            <path class="cls-2" d="m122.5,238.6c-.03-.1-.09-.18-.19-.24-.06-.03-.13-.06-.19-.09-.15-.04-.31-.04-.46,0-.08.03-.16.05-.25.08-.17.08-.32.18-.45.32l-.26.26c-.09.09-.16.19-.21.31-.06.1-.09.21-.1.33-.01.11,0,.21.06.3.03.1.09.18.19.24.06.03.13.06.19.09.15.04.3.04.46,0,.08-.03.16-.05.25-.08.17-.08.32-.18.45-.32l.26-.26c.09-.09.16-.19.21-.31.06-.1.09-.21.1-.33.01-.11,0-.21-.06-.3Z"/>
            <path class="cls-2" d="m132.03,234.37c-.01-.05-.04-.09-.09-.12-.05-.06-.11-.1-.19-.12-.02,0-.04-.02-.06-.02,0,0-.02,0-.02-.01,0,0-.01,0-.02,0l-.18-.03c-.07,0-.13.01-.2.02-.11.02-.2.06-.29.12-.03.02-.07.04-.1.06h-.01s-.02.02-.02.02c-.02,0-.03.02-.05.03-.11.07-.19.16-.26.27-.05.07-.08.15-.09.23-.02.07-.02.15,0,.22.03.1.08.18.16.23.01.01.03.02.04.04,0,0,.01.01.02.02,0,0,0,0,.01.01.07.06.24.1.33.1.03,0,.07,0,.1,0,.1,0,.2-.03.29-.07,0,0,.01,0,.02,0h.03s.04-.03.07-.03c.06-.03.12-.07.18-.1l.16-.13c.04-.05.08-.1.12-.15.05-.07.08-.15.09-.24.02-.05.02-.1.01-.16,0-.05,0-.1-.04-.15Z"/>
            <path class="cls-2" d="m99.08,236.32c-.02-.06-.03-.13-.05-.19-.03-.14-.04-.25-.13-.39-.09-.15-.25-.27-.42-.31-.03,0-.21-.03-.24-.03-.09,0-.17,0-.26.03-.28.06-.55.21-.74.42-.12.13-.23.28-.28.45-.03.08-.04.16-.05.24,0,.01,0,.02,0,.03,0,.03-.01.05-.01.08,0,.04,0,.08,0,.12,0,.09-.01.17,0,.26-.01.17.03.32.12.46.06.06.11.11.17.17.15.09.3.14.48.14.15,0,.29-.02.42-.07.15-.04.3-.11.42-.2,0,0,0,0,.01,0,.06-.02.12-.04.17-.07.11-.06.21-.15.27-.25.02-.04.04-.08.06-.12.02-.07.03-.14.02-.21,0-.01.01-.02.02-.04.06-.16.07-.33.03-.5Z"/>
            <g class="cls-9">
              <path class="cls-14" d="m44.63,227.11c0-.06,0,0,0,0h0Z"/>
              <path class="cls-14" d="m46.64,226.44c-.02-.09-.06-.16-.13-.21-.03-.05-.08-.08-.14-.09-.08-.05-.17-.07-.26-.06-.07,0-.13.01-.2.02-.12.03-.22.07-.32.13-.04,0-.08,0-.12.01,0,0,0,0,0,0,0,0-.01,0-.02,0-.02,0-.04,0-.05,0h0c-.05.02-.1.03-.16.05-.02,0-.14.08-.15.09-.02.02-.16.13-.07.06-.03.03-.06.05-.09.08,0,0-.01.01-.02.02-.05.06-.1.12-.14.18,0,0,0,0,0,0,0,0,0,0,0,0-.03.06-.06.12-.09.18-.01.06-.03.12-.04.18,0,0,0,0,0,0,0,.02,0,.04,0,.09,0,.03,0,.06,0,.09.02.05.05.1.07.16,0,0,0,0,0,.01,0,0,0,0,0,.01,0,0,0,0,0,0,.02.02.1.1.12.12,0,0,.01.01.02.02,0,0,0,0,.01,0,.02,0,.15.07.16.08.06.02.13.02.19.03,0,0,.02,0,.03,0,.08,0,.15,0,.23-.02,0,0,0,0,.01,0,.04-.01.09-.03.11-.04.03,0,.08-.02.11-.04.01,0,.02,0,.03-.01.08-.04.16-.08.23-.13.02-.01.05-.03.07-.05.11-.09.22-.19.32-.29.08-.07.13-.16.17-.26.05-.08.07-.17.08-.27,0-.06,0-.11-.01-.17Z"/>
            </g>
            <g class="cls-9">
              <path class="cls-14" d="m50.39,221.84s-.01-.02-.02-.03c.06-.08.11-.17.11-.27,0-.12-.04-.2-.13-.28-.15-.13-.31-.25-.48-.35-.17-.09-.34-.19-.52-.25-.17-.05-.36-.08-.54-.06-.25.02-.49.06-.71.18-.18.09-.31.17-.45.3-.11.1-.19.19-.28.29-.05.06-.1.12-.14.19-.05.09-.09.18-.13.28-.05.12-.07.26-.09.38-.04.2-.02.42.03.62.05.22.15.44.27.63.14.24.35.44.55.63.11.08.23.12.36.13.14.03.28.03.42,0,.1-.03.2-.06.3-.1.12-.05.23-.12.34-.2.1-.08.2-.16.3-.24.02-.01.04-.03.06-.05.07-.05.13-.11.19-.15.16-.1.29-.23.39-.38.11-.13.2-.27.25-.43.02-.1.04-.2.06-.3.01-.19-.03-.37-.14-.53Z"/>
              <path class="cls-14" d="m47.27,221.5s.07-.08.1-.12c.02-.02.04-.05.06-.08-.05.07-.1.13-.15.2Z"/>
            </g>
            <path class="cls-2" d="m55.09,220.19c-.78,0-1.5,1.38-.47,1.38.78,0,1.5-1.38.47-1.38Z"/>
            <path class="cls-2" d="m47.65,207.26s-.07-.07-.11-.11c-.03-.07-.07-.14-.13-.19-.07-.08-.15-.13-.26-.16-.01,0-.03,0-.04,0-.02,0-.19-.03-.2-.03-.11,0-.22.02-.33.06-.12.03-.23.08-.33.16,0,0,0,0,0,0,0,0-.01,0-.02.01-.06.05-.14.12-.21.18,0,0,0,0,0,0,0,0,0,0,0,0-.05.07-.1.13-.16.2-.07.1-.11.21-.12.32-.02.04-.02.07-.02.11,0,.07.01.14.02.21.02.08.04.14.09.19.05.05.1.1.15.15.01,0,.02.02.03.03,0,0,.01.01.02.02,0,0,0,0,0,0,0,0,.02.01.03.02.06.04.13.07.2.09.01,0,.02,0,.03,0,.08.01.16.03.23.03.01,0,.03,0,.04,0,.1,0,.21-.01.3-.04.12-.02.23-.07.32-.13.11-.05.21-.13.29-.22l.14-.18c.06-.09.1-.18.11-.29.02-.06.03-.12.01-.19,0-.09-.03-.18-.08-.26Z"/>
            <path class="cls-2" d="m98.18,246.91c-.09-.13-.2-.24-.32-.35-.02-.02-.05-.04-.07-.06,0,0-.01,0-.02,0-.03-.01-.08-.04-.13-.06-.05-.03-.11-.06-.17-.07,0,0,0,0,0,0-.01,0-.27-.04-.28-.04-.01,0-.02,0-.03,0,0,0,.01,0,.02,0,0,0-.02,0-.03,0-.08,0-.16.01-.24.02-.01,0-.03,0-.04,0-.1.03-.21.07-.31.1-.1.06-.2.12-.31.17,0,0,0,0,0,0l-.27.23s0,0,0,0c0,0,0,0-.01.02,0,0,0,0,0,0-.07.09-.14.17-.2.26,0,0,0,0,0,0,0,0,0,.01-.01.02-.03.05-.05.11-.07.15-.05.08-.09.18-.1.28-.02.05-.03.09-.03.14,0,.01.02.26.02.27,0,0,0,0,0,0,0,0,0,.02,0,.02.05.17.14.31.29.41.15.1.32.15.51.15.14,0,.28-.03.42-.07.13.03.26.02.39,0,.09-.03.19-.06.28-.09.15-.06.28-.15.39-.26.08-.06.15-.13.21-.22.09-.1.16-.22.21-.36.02-.08.03-.16.05-.25.01-.16-.03-.31-.12-.44Z"/>
            <path class="cls-2" d="m98.27,258.81c-.49,0-1.01.34-1.17.82-.14.43.12.85.59.85s1.01-.34,1.17-.82c.14-.43-.12-.85-.59-.85Z"/>
            <g class="cls-9">
              <path class="cls-14" d="m123.77,251.3s-.09-.06-.14-.09c0,0,0,0,0-.01.02-.11.04-.21.07-.32.02-.16,0-.3-.09-.44-.03-.1-.08-.18-.17-.24-.1-.12-.22-.2-.38-.23-.11-.02-.21-.03-.32-.05-.12.01-.23.02-.35.03-.19.04-.37.11-.53.21-.18.09-.34.21-.48.36-.1.11-.19.22-.27.35-.12.21-.21.42-.23.67,0,.13,0,.27.05.4.02.06.1.23.13.28.03.06.05.06.12.13.07.07.09.1.16.14.05.03.11.07.16.1.15.1.32.15.51.15.21,0,.41-.04.6-.13.24-.1.46-.28.63-.49.04,0,.09,0,.13,0,.13-.03.28-.11.37-.21.08-.09.16-.21.16-.34,0-.11-.04-.21-.13-.28Z"/>
              <path class="cls-14" d="m120.94,251.95s0,0,0,0c-.01-.02-.01-.03,0,0Z"/>
            </g>
            <path class="cls-2" d="m141.16,233.1c-.03-.12-.1-.21-.2-.28-.11-.07-.23-.1-.35-.1-.15,0-.29.03-.42.09-.06.02-.13.04-.19.07-.06.04-.13.07-.19.11-.05.05-.11.09-.16.14-.04.05-.08.11-.12.16-.05.08-.09.16-.1.25-.02.05-.02.11-.01.17,0,.06,0,.11.04.15.01.05.04.1.09.13.05.06.12.11.2.12.06.02.11.05.17.07.13.03.26.04.4,0,.15-.03.29-.1.42-.19.13-.09.24-.2.32-.33.06-.09.1-.18.11-.28.03-.09.03-.18,0-.27Z"/>
          </g>
          <path class="cls-20" d="m44.78,243.02c-.88-2.17-1.64-4.39-2.21-6.66-.39-1.55-.6-3.16-.81-4.75-.47-3.52-.68-7.07-.61-10.62-.39,2.08-.7,4.18-.9,6.29-.38,3.91-.43,7.88.15,11.77.54,3.59,1.62,7.14,3.56,10.23,1.82,2.9,4.37,5.22,7.37,6.84-.12-.22-.24-.44-.35-.65-2.21-4.08-4.44-8.16-6.19-12.45Z"/>
          <path class="cls-20" d="m103.81,271.88c-.99-.57-1.92-1.24-2.79-1.98-1.83-1.53-3.42-3.36-4.75-5.34-.14-.21-.27-.41-.41-.62.18.8.39,1.58.65,2.36.43,1.3,1,2.55,1.77,3.69.77,1.14,1.83,2.13,2.95,2.92,4.14,2.91,9.48,3.34,14.43,3.03-2.62-.93-5.34-1.54-7.98-2.43-1.31-.44-2.67-.93-3.87-1.64Z"/>
          <path class="cls-3" d="m44.74,204.52c5.23-5.18,11.93-8.86,18.81-11.33,3.36-1.21,6.86-2.18,10.4-2.65,4.12-.55,8.35-.53,12.48-.15,8.21.74,16.18,3.1,23.72,6.39,7.59,3.31,14.76,7.53,21.62,12.15,6.14,4.14,12.02,8.73,17.3,13.94,5.29,5.22,9.99,11.09,13.5,17.66,3.55,6.64,5.62,13.78,6.35,21.26.43,4.37.58,8.93.09,13.39,3.39-9.18,4.39-19.13,1.9-28.67-1.29-4.94-3.42-9.64-6.26-13.88-15-22.38-40.87-35.37-66.12-42.58-6.99-2-14.24-3.77-21.53-3.98-10.05-.29-18.75,3.64-26.06,10.39-4.18,3.86-7.66,8.43-10.48,13.36-.01.03-.03.05-.04.08,1.27-1.93,2.7-3.74,4.33-5.35Z"/>
        </g>
      </g>
    </g>
  </g>
</svg>