<?xml version="1.0" encoding="UTF-8"?>
<svg xmlns="http://www.w3.org/2000/svg" viewBox="0 0 2398.65 1498.85">
  <defs>
    <style>
      .cls-1, .cls-2, .cls-3, .cls-4, .cls-5, .cls-6, .cls-7, .cls-8, .cls-9, .cls-10, .cls-11, .cls-12, .cls-13, .cls-14, .cls-15, .cls-16, .cls-17 {
        stroke-width: 0px;
      }

      .cls-1, .cls-2, .cls-3, .cls-4, .cls-5, .cls-8, .cls-9, .cls-10, .cls-11, .cls-12, .cls-14, .cls-15, .cls-17 {
        fill-rule: evenodd;
      }

      .cls-1, .cls-2, .cls-4, .cls-13 {
        fill: #ff8580;
      }

      .cls-2, .cls-15 {
        opacity: .2;
      }

      .cls-3, .cls-5, .cls-6, .cls-10, .cls-12, .cls-15, .cls-17 {
        fill: #b43040;
      }

      .cls-3, .cls-7, .cls-14 {
        opacity: .7;
      }

      .cls-4, .cls-10 {
        opacity: .5;
      }

      .cls-5, .cls-18 {
        opacity: .4;
      }

      .cls-7, .cls-11, .cls-14 {
        fill: #fed8b3;
      }

      .cls-8 {
        fill: #ffab41;
      }

      .cls-9 {
        fill: #5c0f1a;
      }

      .cls-16 {
        fill: #fff;
        opacity: 0;
      }

      .cls-17 {
        opacity: .6;
      }
    </style>
  </defs>
  <g id="Bg">
    <polygon class="cls-16" points="0 1498.85 0 5.66 2398.65 0 2398.65 1495.43 0 1498.85"/>
  </g>
  <g id="Layer_1" data-name="Layer 1">
    <g>
      <polygon class="cls-12" points="171.7 1498.85 151.97 1350.16 2033.01 1371.12 2014.93 1498.85 171.7 1498.85"/>
      <polygon class="cls-12" points="125.7 1337.75 139.83 1371.61 2053.27 1371.61 2072.28 1337.75 125.7 1337.75"/>
      <polygon class="cls-8" points="125.7 1337.75 395.65 1296.21 1803.24 1296.21 2072.28 1337.75 125.7 1337.75"/>
      <path class="cls-9" d="M161.98,1425.04c260.02-56.71,1375.11-63.45,1863.65-1.34l6.68-52.06H154.25l7.73,53.39Z"/>
      <path class="cls-10" d="M807.1,1305.53c63.66,14.04,29.91,6.71,153.73,33.34h589.14l129.8-43.73c-863.61,0-700.42-3.47-872.67,10.39Z"/>
      <g>
        <g>
          <path class="cls-11" d="M994.84,1202.36c-12.92,12.92-32.04,13.09-46.24,5.14,9.99-76.19-3.02-226.73-12.33-297.69l42.64-11.2c0,54.01.72,26.04-2.77,55.75-9.71,81.55.4,167.61,18.7,248.01Z"/>
          <path class="cls-11" d="M1024.43,1181.81c-1.95,3.51-9.68,17.64-11.61,21.17l-17.98-.62-3.6-16.29c15.41-85.39-6.63-194.88-15.11-231.72-3.99-17.62-4.41-5.61,2.77-44.19,30.42,75.65,41.63,190.34,45.52,271.64Z"/>
          <path class="cls-11" d="M1022.07,1186.07c0,.46.06-.57-4.11,40.54l-34.63,17.98c-12.65-2.11-45.04-9.01-54.62-17.98,22.89-31.36,20.54-28.71,21.84-28.57,23.47,3.75,52.45,1.38,71.52-11.97Z"/>
          <path class="cls-11" d="M1070.62,1269.15l-4.68,1.7s-19.94-24.82-23.79-30.83c-3.25-5.03-18.7-11.38-24.2-13.41-3.32-10.67-4.8-26.66-.67-37.61,2.21-5.8,4.7-7.96,7.14-10.38,8.31,7.89,31.61,31.05,38.54,41.1,8.32,12.18,7.66,49.43,7.66,49.43Z"/>
          <path class="cls-11" d="M986.67,1242.85c-4.63,6.39-46.45,63.8-53.69,67-7.42,3.27-65.03,6.83-75.32,6.83l1.28-11.15h-51.84s12.02-17.98,16.7-20.09c4.73-2.16,41.57-3.85,41.57-3.85l63.35-54.98c23.12-5.7,37.15-2.88,45.62,1.85,0,.45,10.07,5.12,12.33,14.39Z"/>
          <path class="cls-1" d="M1024.43,1178.62c-1.18,1.17-4.36-166.09-45.52-268.46v-11.56l-42.64,11.2s1.08,8.22,2.62,22.2l26.67,38.54s10.69,192,7.5,204.85c-3.24,12.84-23.38,22.5-23.38,22.5,2.35.59,5.71,1,29.23,5.09-7.47,41.62-.85,22.17-35.91,96.8,60.6-70.89,22.35-45.87,74.96-73.16,0,0,3.91,1.44,8.58,3.55l13.36-36.22c-8.27-8.48-15.47-15.31-15.47-15.31ZM976.13,954.35c8.48,36.84,30.52,146.33,15.11,231.72-15.86-74.87-24.2-155.41-15.11-231.72Z"/>
          <path class="cls-11" d="M1196.32,729.31v28.62s-186.69,69.16-204.67,94.08c-8.48,11.82-12.74,46.6-12.74,46.6-20.85,6.19-44.87,12.62-46.76,11.35-3.88,0-12.81-24.12-14.75-30.42-5.64-18.9-14.48-14.75,97.36-84.37,18.83-11.75,96-61.03,138.78-90.17l42.77,24.3Z"/>
          <path class="cls-12" d="M1196.32,730.39v27.54s-186.69,69.16-204.67,94.08c-8.48,11.82-12.74,46.6-12.74,46.6-6.83,2.03-38.26,11.35-46.81,11.35-4.93-2.26-15.35-30.42-14.64-30.42,25.33,7.3,52.66-16.29,52.66-16.29,74.99-57.88,109.72-84.32,138.98-128.6,25.19-16.71,30.05-19.84,44.44-29.65,46.73,26.53,41.78,23.25,42.77,25.38Z"/>
          <path class="cls-12" d="M940.27,1238.02l-43.36,52.3c-28,2.93-37.97,15.21-37.97,15.21h-51.84s12.02-17.98,16.7-20.09c4.73-2.16,41.57-3.85,41.57-3.85l63.35-54.98,11.56,11.41Z"/>
          <path class="cls-6" d="M891.14,1291.99c-11.25-8.64-25.67-9.11-25.82-9.12l.06-2.57c.62.01,15.39.49,27.32,9.64l-1.57,2.04Z"/>
          <path class="cls-13" d="M932.09,1310.77c-18.26-17.5-35.12-19.16-35.29-19.17l.22-2.56c.72.06,17.88,1.7,36.85,19.88l-1.78,1.86Z"/>
          <path class="cls-13" d="M1043.16,1240.82l-2.01-1.6c.42-.52,10.34-12.88,23.37-17.01l.78,2.45c-12.29,3.9-22.03,16.04-22.13,16.16Z"/>
          <path class="cls-13" d="M985.84,1243.83c-.14-.12-13.84-11.15-45.31-4.55l-.53-2.51c32.8-6.9,46.9,4.61,47.49,5.1l-1.65,1.96Z"/>
          <path class="cls-6" d="M1016.76,1227.06c-9.16-24.29,6.48-45.8,6.64-46.02l2.06,1.53c-.15.21-14.96,20.63-6.31,43.59l-2.4.91Z"/>
          <path class="cls-6" d="M936.02,911.07l.48-2.52c.18.03,18.82,3.3,41.72-11.03l1.36,2.18c-17.16,10.74-34.83,13.1-43.56,11.37Z"/>
          <path class="cls-14" d="M942.74,878.42l14.49-16.12,21.67-5.85s-12.18,16.7-36.17,21.97Z"/>
        </g>
        <path class="cls-2" d="M1195.63,728.9l-42.08-23.89c-35.67,24.3-103.09,67.9-138.78,90.17-111.3,69.28-103.02,65.41-97.36,84.37,4.31,14.02,12.06,30.42,14.75,30.42.69.46,3.67-.11,4.49-.25-1.1.29,23.55,180.97,13.03,288.19-26.39,36.16-8.27,17.7-84.31,83.7,0,0-36.84,1.7-41.57,3.85-4.68,2.11-16.7,20.09-16.7,20.09h51.84l-1.28,11.15c10.42,0,68.03-3.63,75.32-6.83,7.25-3.2,49.15-60.72,53.69-67l31.29-16.24c25.52,9.41,19.94,9.33,47.99,44.24l4.68-1.7c.65-37.81-6.77-45.71-5.72-45.71-4.07-9.52-33.63-38.32-40.47-44.82-1.13,1.13-4.44-166.29-45.52-268.46v-11.56s4.26-34.78,12.74-46.6c17.98-24.92,204.67-94.08,204.67-94.08,0-31.77.31-28.43-.69-29.03ZM991.24,1186.07c-15.86-74.86-24.2-155.41-15.11-231.72,8.48,36.84,30.52,146.33,15.11,231.72Z"/>
        <path class="cls-11" d="M2388.3,1082.49c-2.51,2.54-116.55,82.88-241.48,106.15l-14.54,10.28s-32.52-7.71-70.24,0l-11.1,8.58s-77.94-15.41-143.04-12.85l-7.71,5.14s-25.69-15.41-67.62-19.68l-8.58,4.26s-52.25-23.12-82.21-27.39l-5.14,7.71s-41.1-23.12-67.67-33.4l-7.71,5.96s-33.4-32.52-69.36-49.63l-6.83,5.96s-29.95-30.83-52.25-44.49l-9.4,3.39s-25.69-38.53-46.24-53.07c-15.62,7.76-12.72-3.74-35.97-38.54,0,0-17.11-.87-21.43-6.01-4.26-5.14-8.53-47.94-23.94-81.33,0,0-17.16-9.4-20.55-15.41-3.44-6.01-9.45-35.09-18.86-55.64-28.13,4.34-9.54-19.23-39.41-68.54l24.05-47.06c10.63,12.72,33.6,37.79,48.76,45.37,18.86,9.4,0,45.37,0,45.37l2.57,7.71c49.92,46.05,44.69,35.03,48.14,41.72,5.39,10.33-3.6,30.21-3.6,30.21v12.02s19.68,41.1,37.66,49.63v12.02s18.86,23.12,36.84,25.69v10.28c22.61,21.65,33.7,27.06,55.64,29.95v14.54s21.43,23.99,56.52,26.56v14.54s35.09,22.3,70.24,23.12l6.83,13.72s43.67,15.41,72.8,11.15v13.67s39.36,13.72,68.49,12.02l7.71,8.53s39.41,6.89,70.24,0l8.53,12.02s78.82,15.41,119.92,11.97l8.53,6.01s45.42,0,64.22-6.89l20.55,6.89s116.48-18.86,233.78-82.21h12.84Z"/>
        <path class="cls-1" d="M2386.35,1083.88c-15.47,10.89-120.9,82.67-239.53,104.76l-14.54,10.28s-32.52-7.71-70.24,0l-11.1,8.58s-77.94-15.41-143.04-12.85l-7.71,5.14s-25.69-15.41-67.62-19.68l-8.58,4.26s-52.25-23.12-82.21-27.39l-5.14,7.71s-41.1-23.12-67.67-33.4l-7.71,5.96s-33.4-32.52-69.36-49.63l-6.83,5.96s-29.95-30.83-52.25-44.49l-9.4,3.39s-25.69-38.53-46.24-53.07c-15.62,7.76-12.72-3.74-35.97-38.54,0,0-17.11-.87-21.43-6.01-4.26-5.14-8.53-47.94-23.94-81.33,0,0-17.16-9.4-20.55-15.41-3.44-6.01-9.45-35.09-18.86-55.64-28.13,4.34-9.54-19.23-39.41-68.54l24.05-47.06c12.57,15.04,18.55,19.93,18.55,20.45l-8.74,69,15.41,8.99,23.53-7.71,2.57,7.71s-15.41,17.16-17.11,29.54c-1.75,12.43,5.96,35.56,5.96,35.56,0,0,42.39-4.32,59.29-23.38,5.39,10.33-3.6,30.21-3.6,30.21v12.02l-25.28,16.7s4.88,48.66,12.43,61.19c0,0,21.37-23.94,50.51-28.26v12.02s-23.12,8.12-28.26,23.53c0,0,13.72,30.67,22.25,37.82,0,0,22.3-35.25,42.85-35.66v10.28s-17.57,8.53-21.43,28.26l34.27,45.01s8.99-29.59,42.8-43.31v14.54s-17.11,6.88-25.28,31.7l46.24,37.25s16.7-36.84,35.55-42.39v14.54s-18.39,12.85-23.99,33.4l66.38,31.29s13.72-33.86,27.85-41.57l6.83,13.72s-17.98,9.4-18.39,33.4l55.64,26.56s17.57-45.83,35.55-48.81v13.67s-16.29,13.72-19.73,35.14l67.67,23.12s-.87-21.01,20.55-46.24l7.71,8.53s-10.28,19.73-12.43,37.71l63.81,6.42s2.57-32.99,18.86-44.14l8.53,12.02s-13.26,20.91-11.1,39.36l125.88,9.45s-4.32-24.87,5.14-36.84l8.53,6.01s-3.85,14.95,0,27.8l59.55-5.96s-3.03-21.01,4.68-28.72l20.55,6.89s-5.14,11.97,0,17.98c0,0,136.87-23.89,244.67-98.8Z"/>
        <path class="cls-11" d="M720.33,412.4s18.84-37.25,27.4-44.1c8.56-6.85,55.74-20.31,68.38-10.28,8.56,5.99-37.12,58.87-37.12,58.87l-58.66-4.5Z"/>
        <path class="cls-11" d="M810.24,412.4s8.56-54.94,23.12-74.35c14.56-19.41,74.52-44.11,86.49-45.96,3.16-.49,15.98-1.16,16.14,0,1.87,13.67-60.67,94.42-60.67,94.42l-65.08,25.9Z"/>
        <path class="cls-11" d="M896.3,398.27s24.83-64.22,54.8-83.06c29.97-18.84,107.9-24.98,115.6-23.19,7.71,1.79,0,12.17,0,12.17,0,0-65.08,29.86-95.05,69.25l-47.1,30.83-28.26-5.99Z"/>
        <path class="cls-11" d="M981.5,385.21s19.7-32.89,41.96-47.17c22.26-14.27,84.86-21.13,96.43-18.56,7.06.86-3.95,14.85-5.66,18.56-1.71,3.71-87.35,66.22-87.35,66.22l-45.39-19.05Z"/>
        <g>
          <path class="cls-1" d="M477.83,573.42s-.79-29.36-2.86-30.91c-2.07-1.56-39.89-9.11-52.38-22.52,0,0,44.81-9.53,67.66-1.74l10.37,44.42s-6.49,14.26-22.8,10.75Z"/>
          <path class="cls-13" d="M475.81,543.49l-1.66-1.96c18.5-15.7,15.05-22.56,15.01-22.63l2.19-1.34c.54.85,4.66,8.79-15.54,25.93Z"/>
          <path class="cls-1" d="M508.56,550.17s13.22-44.15,12.25-50.01c-.98-5.86-29.81-26.55-56.96-30.73,3.23,15.17,18.48,27.56,30.92,39.24l-6.54,59.77s15.78-2.47,20.34-18.27Z"/>
          <path class="cls-1" d="M717.91,645.73l-36.7-30.64c23.66-36.38,56.78-108.24,29.05-141.75-3.38-8.91-12.43-34.22-12.2-41.4.48-8.26,51.15-18.21,57.03-14.31,5.84,3.86,20.14,26.99,21.5,34.38,1.29,7.35-18.92,37.13-24.48,51.02-5.55,14.01-22.73,123.77-24.46,133.68-1.23,7.46-6.65,9.34-9.73,9.03Z"/>
          <path class="cls-1" d="M717.91,645.73c-19.5,6-10.27,5.95-33.37-3.05-49.92-19.49-104.41-31.55-147.17-35.5l-8.68-8.4,9.57-14.4c44.11,18.21,103.1,29.14,142.94,30.7,39.37,1.2,36.7,30.64,36.7,30.64Z"/>
          <path class="cls-1" d="M707.86,648.8c-.88.37-4.2,1.31-4.81,1.5-54.19,14.09-120.82.98-177.86-46.11,24.67-4.73,14.78-5.26,33.85,5.73,19.71,11.24,40.93,21.3,62.63,27.92,18.39,5.58,48.93,10.34,62.87,4.85.45,0-.41-.13,23.32,6.12Z"/>
          <path class="cls-1" d="M546.5,587.63s-26.85-23.16-28.96-30.31c-2.11-7.15-8.98-7.15-8.98-7.15,0,0-10.71,15.8-30.72,23.25l-2.07,8.12s32.82,14.34,46.27,27.66c0,0,14.09,1.4,24.46-21.57Z"/>
          <path class="cls-13" d="M494.28,509.86l.96-2.38c.57.23,13.95,5.4,24.55-8.11l2.02,1.59c-7.98,10.16-20.3,12.05-27.54,8.9Z"/>
          <path class="cls-1" d="M723.23,644.29c5.85-33.1,14.43-94.39-3.48-122.61,2.68-18.36.9-35.8-9.48-48.35-3.62-9.53-11.48-31.17-12.16-41.29.76,2.02,13.26,34.85,22.3,43.16,9.33,8.6,26.41,10.83,26.41,10.83l28.46-27.79c-4.46,11.7-18.63,33.45-23.17,44.78-5.55,14.01-22.73,123.77-24.46,133.68-.69,4.19-2.51,6.44-4.42,7.59Z"/>
          <path class="cls-1" d="M707.86,648.8c-.64.27,1.45-.34-14.4,3.65-35.39-12.15-20.43-5.23-8.92-9.77-37.98-14.82-75.53-25.27-125.5-32.77,1.98,1.13,4.15,2.37,6.49,3.63-7.52,2.16-14.47,4.02-20.29,5.53-5.14-3.4-10.33-7.13-15.45-11.23,6.34-4.26,15.21-12.48,16.71-20.22l12.3,11.89c107.21,21.65,154.65,49.17,149.07,49.28Z"/>
        </g>
        <g>
          <path class="cls-1" d="M671.81,420.25s-40.67,78.63-36.39,194.88c4.28,116.25,94,197.6,94,197.6h13.04s-113.19-150.89-31.46-350.24l-39.19-42.24Z"/>
          <path class="cls-1" d="M747.6,431.67s-58.78,212.58,38.5,388.77l13.42,1.96s-37.3-213.47-4.39-390.73h-47.53Z"/>
          <path class="cls-1" d="M826.38,412.4s-47.39,169.81,35.68,375.93h15.12s-46.04-235.06,4.84-384.06l-55.64,8.13Z"/>
          <path class="cls-1" d="M688.78,450.25s-93.61,195.92,44.69,365.9l8.99-3.42s-108.31-131.87-31.46-350.24l-22.22-12.24Z"/>
          <path class="cls-1" d="M767.08,447.94s-46.45,172.34,19.02,372.5h13.42s-36.09-223.5-7.62-363.08l-24.82-9.42Z"/>
          <path class="cls-1" d="M851.21,424.85s-37.4,183.22,10.85,363.48h15.12s-37.96-145.15-6.27-356.66l-19.7-6.82Z"/>
          <path class="cls-1" d="M906.43,404.13s-47.39,162.52,35.68,359.79h15.12s-32.86-247.92,4.84-367.58l-55.64,7.79Z"/>
          <path class="cls-1" d="M931.26,416.04s-37.4,175.36,10.85,347.88h15.12s-24.69-136.16-6.27-341.35l-19.7-6.53Z"/>
          <path class="cls-1" d="M968.62,426.84s-40.08,137.45,30.17,304.29h12.79s-27.79-209.67,4.09-310.87l-47.06,6.58Z"/>
          <path class="cls-1" d="M989.3,426.66s-31.31,158.56,9.49,304.46h12.79s-26.91-128.25-.12-299.46l-22.17-5Z"/>
        </g>
        <g class="cls-18">
          <path class="cls-15" d="M783.21,663.46c-4.5-92.26.3-169.23,11.92-231.79h-28.76c-4.16-6.48-8.6-12.29-11.27-14.05-5.88-3.9-56.55,6.06-57.03,14.31-.16,5.02,4.12,18.18,5.58,22.64l-31.83-34.32s-39.49,76.43-36.52,189.94c-24.13-3.69-73.92-14.78-88.86-22.59-.72-.62-26.81-23.23-28.89-30.28-2.11-7.15-8.98-7.15-8.98-7.15,0,0,13.22-44.15,12.25-50.01-.98-5.86-29.81-26.55-56.96-30.73,3.23,15.17,18.48,27.56,30.92,39.24-2.8,25.58-1.51,22.36-4.05,11.51-.07-1.29-.45-1.93-.45-1.93-22.85-7.79-67.66,1.74-67.66,1.74,12.49,13.42,50.31,20.97,52.38,22.52,2.07,1.56,2.86,30.91,2.86,30.91l-2.07,8.12c52.49,22.94,40.57,31.94,53.6,25.97,32.43,25.43,69.03,42.58,110.83,46.94,18.05,88.57,85.65,158.28,90.56,158.28.91,1.14,1.78,2.29,2.71,3.42l8.99-3.42c-24.44-32.67-50.71-94.21-57.12-158.96,6.76-.95,16.04-2.67,22.48-4.94,13.01-4.58,12.25-2.45,15.4-4.54,1.91-1.16,3.72-3.4,4.42-7.59,12.26-70.42-13.9,52.69,58.45,183.74,26.11,3.81,7.15,19.02-2.89-156.98ZM684.42,642.72v-.09s.12.05.12.05l-.12.04ZM559.04,609.91c25.46,3.82,52.23,9.19,77.06,16.34.45,5.34,1.12,10.57,1.9,15.75-27.17-5.6-55.09-18.47-78.97-32.09ZM683.49,611.42c.41-41.78,7.47-89.4,25.26-142.15.91,2.5,1.51,4.06,1.51,4.06,27.43,33.15-4.59,101.79-26.77,138.09Z"/>
          <path class="cls-12" d="M882.02,404.26l-55.64,8.13s-47.39,169.81,35.68,375.93h15.12c-21.21-108.34-30.99-279.15,4.84-384.06Z"/>
          <path class="cls-12" d="M962.07,396.34l-55.64,7.79s-47.39,162.52,35.68,359.79h15.12c-12.71-95.93-24.21-275.39,4.84-367.58Z"/>
          <path class="cls-12" d="M1015.67,420.25l-47.06,6.58s-40.08,137.45,30.17,304.29h12.79c-10.49-79.16-19.91-234.7,4.09-310.87Z"/>
        </g>
        <path class="cls-1" d="M1180.65,596.83c4.65,36.98-19.86,117.69-53.11,138.83,0,0,.69,22.68,31.09,36.81l4.89-17.54s52.06-11.99,70.89-37.68c18.84-25.69,0-107.9,0-107.9l-53.77-12.52Z"/>
        <path class="cls-11" d="M599.62,156.91s41.79-8.44,49.5,0c7.71,8.44,12.84,48.69,7.71,57.25-5.14,8.56-27.57,20.61-27.57,20.61l-29.64-77.86Z"/>
        <path class="cls-11" d="M649.89,272.54s27.49-4.98,38.62,0c11.13,4.99,17.98,27.25,17.13,34.1-.86,6.85-30.93,31.4-30.93,31.4l-24.82-65.5Z"/>
        <path class="cls-11" d="M677.8,358.02s34.69,0,45.82,6.85c11.13,6.85,3.43,29.97,0,35.97-3.43,5.99-22.26,11.56-22.26,11.56l-23.56-54.38Z"/>
        <path class="cls-1" d="M736.47,412.4s18.84-37.25,27.4-44.1c8.56-6.85,43.67-16.27,52.24-10.28,8.56,5.99-20.98,58.86-20.98,58.86l-58.66-4.48Z"/>
        <path class="cls-1" d="M826.38,412.4s8.56-54.94,23.12-74.35c14.56-19.41,74.5-47.67,86.49-45.96,11.99,1.71-44.53,94.42-44.53,94.42l-65.08,25.9Z"/>
        <path class="cls-1" d="M912.44,398.27s24.83-64.22,54.81-83.06c29.97-18.84,100.19-24.98,107.9-23.19,7.71,1.79,7.71,12.17,7.71,12.17,0,0-65.08,29.86-95.05,69.25l-47.1,30.83-28.26-5.99Z"/>
        <path class="cls-1" d="M997.64,385.21s19.7-32.89,41.96-47.17c22.26-14.27,73.24-19.41,80.29-18.56,7.06.86,12.19,14.85,10.48,18.56-1.71,3.71-87.34,66.22-87.34,66.22l-45.39-19.05Z"/>
        <path class="cls-11" d="M1082.42,416.9s21-9.21,37.47-4.5c16.47,4.71,20.34,32.11,18.84,38.11-1.51,5.99-28.01,18.84-28.01,18.84l-28.31-52.45Z"/>
        <path class="cls-3" d="M1156.68,743.76l64.46,10.32,50.12-83.39-42.51-68.62-32.45,21.15c-4.74,9.3-29.84,85.09-39.63,120.55Z"/>
        <path class="cls-11" d="M1130.71,486.47s32.21-8.66,42.49-2.66c10.28,5.99,22.26,17.6,23.12,26.17.86,8.56-17.13,26.16-17.13,26.16l-48.48-49.66Z"/>
        <path class="cls-11" d="M1196.31,561.83s24.07-8.56,33.87-8.56,20.08,9.42,23.5,16.27c3.43,6.85-23.5,28.58-23.5,28.58l-33.87-36.28Z"/>
        <path class="cls-11" d="M1227.12,614.94l-14.54,12.84h-18.6s-6.47-28.52-23.12-41.98l3.19-16.7c-9.71-8.09-3.99-5.78-26.31-9.61,0,0-13.51-28.93-39.87-46.24,2.46-9.73,3.1-5.53-3.8-18.65l-5.81,4.47s-18.65-37.87-53.28-44.91l2.57-14.18-10.94-8.32-9.61,8.99s-12.84-8.37-39.87-8.99l-2.57-13.46-5.75-3.24-6.42,12.18s-23.12-8.32-46.24-3.19l-7.04-11.56-9.81,3.24-4.37,10.89s-46.86,5.14-82.82,22.5l-11.56-9.66-14.13,2.57-4.51,15.41s-38.56-5.14-80.9,5.14c-20.23-7.25-13.5-3.05-28.91-19.27l-20.55-2.57s-12.18-36.63-36.63-61.66c5.43-13.88,5.19-9.55,1.95-19.27l-23.12-1.95s1.64-27.18-17.47-58.21l2.11-155.83c58.2,66.97,49.95,64.05,47.58,73.52-3.1,9.75-8.77,22.3-12.79,31.03-.22.52-1.29-1.63,10.79,19.52,0,0,43,11.66,48.81,19.37,5,6.66-5.41,37.23-8.38,45.06l.67,11.46s33.4,25.69,35.3,33.4c1.61,6.63-6.48,28.92-8.99,35.3l9.2,12.18s31.29-27.59,51.84-30.16c20.55-2.57,32.73,22.46,32.73,22.46l10.94-1.91s45.16-45.83,64.84-48.4c7.4-.98,14.23,2.67,19.83,7.6,23.47,23.69,6.9,19.83,26.41,19.83,6.83-12.7,22.71-36.96,35.97-42.85,17.11-7.71,31.7,24.87,31.7,24.87,16.43-1.68.99.82,34.01-14.18,7.3-3.29,14.34-5.86,18.19-5.55,10.28.87,24.87,41.1,24.87,41.1,15.06,9.34,7.07,5.16,23.43,11.41.45,0,18.77,7.14,22.81,10.02,5.49,3.91,10.96,43.86,11.77,50.51l11.35,12.02s35.97,21.37,39.36,28.26c3.44,6.83,8.58,26.52,8.58,26.52l8.58,13.71s32.52,7.71,39.36,13.72c6.26,5.41,1.24,43.23,0,51.38Z"/>
        <path class="cls-11" d="M1317.04,733.93c-38.54,47.12-77.07,51.38-77.07,51.38,0,0-37.66-23.12-81.33-12.84-2.88-1.6-21.93-18.88-19.68-24.82,2.57-6.83,29.08,3.44,64.22-23.12,26.48-20.07,22.17-73.28,13.67-104.45l3.44-13.72s16.29-14.54,24.82-17.98c0,0,52.25,41.98,95.93,55.64,0,0,14.54,42.85-23.99,89.91Z"/>
        <path class="cls-10" d="M1317.04,733.93c-38.54,47.12-77.07,51.38-77.07,51.38,0,0-37.66-23.12-81.33-12.84-.46-.26-.35-.72-1.95-8.53,0,0,39.61-6.01,57.19-18.86,17.57-12.85,34.68-58.21,34.68-58.21l1.65-63.97-30.43,10.33c-.46,0-.27-3.4-2.93-13.15l3.44-13.72s16.29-14.54,24.82-17.98c0,0,52.25,41.98,95.93,55.64,0,0,14.54,42.85-23.99,89.91Z"/>
        <path class="cls-17" d="M1230.21,575.68c0,9.92-.49,22.27-3.08,39.25l-14.54,12.84h-18.6s-6.47-28.52-23.12-41.98l3.19-16.7c-9.71-8.09-3.99-5.78-26.31-9.61,0,0-13.51-28.93-39.87-46.24,2.46-9.73,3.1-5.53-3.8-18.65l-5.81,4.47s-18.65-37.87-53.28-44.91l2.57-14.18-10.94-8.32-9.61,8.99s-12.84-8.37-39.87-8.99l-2.57-13.46-5.75-3.24-6.42,12.18s-23.12-8.32-46.24-3.19l-7.04-11.56-9.81,3.24-4.37,10.89s-46.86,5.14-82.82,22.5l-11.56-9.66-14.13,2.57-4.51,15.41s-38.56-5.14-80.9,5.14c-20.23-7.25-13.5-3.05-28.91-19.27l-20.55-2.57s-12.18-36.63-36.63-61.66c5.43-13.88,5.19-9.55,1.95-19.27l-23.12-1.95s1.64-27.18-17.47-58.21l2.11-155.83s48.76,56.11,49.38,64.43c.53,6.54-7.47,22.86-14.75,40.49l10.94,19.16-34.32,51.59,7.09,12.85s52.18-.03,77.33-40.49c.93,12.54-9.66,40.49-9.66,40.49l.67,11.46s-12.64,23.48-36.22,34.53c0,0,33.63,18.34,70.9,7.5-2.21,11-8.37,26.67-8.37,26.67l9.2,12.18-4.83,30.21s47.89-1.34,73.99-14.59l15.41-23.32,10.94-1.91,6.83,14.54s67.05-8.99,80.05-22.25c12.38-12.59-.77-31.14-2.06-32.93,9.2,8.17,15.11,19.68,15.11,19.68h11.15s12.43-23.12,26.26-35.97l8.01,18.55,31.65,8.63,1.75-9.2c16.43-1.68.99.82,34.01-14.18l7.09,30.06,38.28,12.38v-5.45c12.13,7.52,4.95,3.8,21.12,9.97.45,0-.03-.34,5.91,24.35l26.56,21.63c1.34,8.22,2.11,14.55,2.11,14.55,12.42,13.13,8.54,6.51,16.49,30l27.13,14.95,24.25,35.55,3.85,29.03,28.77,8.73c.14-.18,9.65-11.76,9.81-11.92Z"/>
        <path class="cls-1" d="M838.8,404.26h43.22s62.17,76.56,50.53,194.71c-14.98,152.11-137.42,227.03-137.42,227.03,0,0,98.91-120.53,101.47-227.89,2.57-107.36-57.8-193.85-57.8-193.85Z"/>
        <path class="cls-11" d="M826.38,440.2l12.42-35.94s69.29,35.51,69.42,193.85c.11,140.98-113.09,227.89-113.09,227.89l-18.06,10.28s92.56-98.05,93.84-221.15c1.28-123.1-44.53-174.93-44.53-174.93Z"/>
        <path class="cls-1" d="M947.98,385.21l30.62,7.92s103.82,216.65-116.54,412.75c0,0,158.71-178.54,85.92-420.67Z"/>
        <path class="cls-11" d="M937.66,422.43l10.32-37.22s109.61,203.16-85.92,420.67l-10.85,6.85s137.87-176.4,86.45-390.3Z"/>
        <path class="cls-1" d="M1020.67,398.48l30.62,7.92s87.74,208.73-131.96,381.92c0,0,163.09-144.29,101.33-389.84Z"/>
        <path class="cls-11" d="M1010.35,435.7l10.32-37.22s110.04,177.2-101.33,389.84l-10.84,6.85s153.28-145.58,101.86-359.47Z"/>
        <path class="cls-1" d="M1095,440.2l24.9,29.13s29.32,158.43-131.67,294.59h-9.33s137.25-153.34,116.11-323.72Z"/>
        <path class="cls-11" d="M1068.59,464.63l26.41-24.43s48.4,180.71-116.11,323.72h-5.87s118.82-113.89,95.57-299.29Z"/>
        <path class="cls-3" d="M849.2,481.69l44.78,7.38,39.56,64.19c-3.17-54.34-11.92-94.15-48.07-133.01l-54.33,6.48c-8.63,24.42-6.32-1.53,18.06,54.96Z"/>
        <path class="cls-1" d="M1163.52,520.09l14.81,33.17s1.62,103.19-76.69,157.78c0,0,71.91-95.67,61.88-190.95Z"/>
        <path class="cls-11" d="M1132.58,536.14l30.94-16.04s8.93,128.01-61.88,190.95h-10.44s55.87-49.45,41.39-174.9Z"/>
        <path class="cls-11" d="M1305.07,1224.61c-11.31,7.71-34.17,4.2-47.12,0-10.07-76.96-46.36-180.83-77.79-248.06,30.11-12.64,45.01-21.43,45.01-21.43l12.43,39.15c2.77,69.66,23.84,143.23,53.95,204.95,7.98,16.37,13.19,24.74,13.51,25.38Z"/>
        <path class="cls-11" d="M1334.61,1217.77l-29.54,6.83-7.96-14.44c0-67.04-42.3-162.94-74.86-218.47l1.23-23.12c53.54,52.64,94.96,176.63,111.13,249.19Z"/>
        <path class="cls-11" d="M1334.61,1217.77c-17.89,32.02-17.17,31.04-17.62,31.5-17.17,6.5-52.38-1.68-69.05-7.09l7.55-34.22,36.07-8.73,30.67-28.57c17.11,23.58,12.38,47.12,12.38,47.12Z"/>
        <path class="cls-11" d="M1394.36,1267.56l-7.71,2.57s-21.53-27.95-26.05-30.83c-4.07-2.69-27.82-8.9-32.37-10.12,1.04-15.63-.58-39.49-6.01-58.52,11.36,6.42,57.32,33.34,63.09,45.16,6.47,13.2,9.04,51.74,9.04,51.74Z"/>
        <path class="cls-11" d="M1317.04,1249.22c.45,0-39.75,77.62-45.42,83.29-4.31,4.32-89,6.82-95,6.99l-5.45-2.93,5.45-9.92h-48.81s20.55-21.84,27.64-24.41c7.04-2.57,35.97-3.55,35.97-3.55l56.52-56.52c27.76-3.75,55.78,1.17,69.11,7.04Z"/>
        <path class="cls-13" d="M771.98,682.48l-1.67-1.95c15.81-13.58,7.22-37.54,7.13-37.78l2.41-.89c.1.26,9.31,25.87-7.86,40.62Z"/>
        <path class="cls-13" d="M947.27,570.83l-2-1.61c.21-.26,21.16-25.61,49.48-3.69l-1.57,2.03c-26.32-20.37-45.12,2.3-45.91,3.27Z"/>
        <polygon class="cls-12" points="355.83 404.26 551.07 304.19 531.8 224.86 387.94 270.33 355.83 404.26"/>
        <path class="cls-11" d="M595.15,194.45l-11.1,131.02c-14.59,23.12-47.99,42.85-47.99,42.85-79.64-.87-132.71,61.65-140.42,71.93-7.71,10.28-35.97,26.51-54.82,29.08-18.8,2.57-56.16-3.08-56.16-3.08l99.25-105.49c41.01-13.31,67.15-40.66,69.99-42.08,8.92-7.79,23.67-22.62,24.25-23.79,4.59-4.59,2.85-2.21,24.51-47.32l92.48-53.13Z"/>
        <path class="cls-11" d="M595.15,194.45c-12.9,36.37-53.5,78.37-82.21,101.06,0,0-15.11-2.26-34.78-.62-48.83,3.91-72.4,24.19-94.33,65.97-11.41,21.76-20.85,47.25-25.02,63.97-28.38,28.38-80.57,44.49-84.78,44.49-58.21-28.26-77.89-107.02-77.89-107.02,10.28-67.67,106.16-188.16,106.16-188.16l14.99-55.9c79.64-61.66,214.77-53.54,228.64-48.81,7.57,2.6,32.94,29.09,36.38,39.41,3.44,10.28,12.85,85.6,12.85,85.6Z"/>
        <path class="cls-1" d="M383.8,369.41c52.14-19.89,112.45-43.68,139.65-78.4l33.4-30.19s28.58-43.99,35.32-58.12l-38.21,55.55c-34.34,27.14-52.65,29.91-75.74,36.59,0,0-33.46,41.57-94.3,65.91,0,0-19.77,48.42-24.41,61.59-4.64,13.17-74.84,43.9-74.84,43.9,0,0,67.35-26.58,74.59-34.58,10.06-11.13,24.55-62.26,24.55-62.26Z"/>
        <path class="cls-1" d="M379.81,257.83c-5.56-6.08,24.83-65.47,42.39-83.69,17.55-18.21,41.53-37.05,49.24-37.05s29.12,16.7,34.25,31.68c5.14,14.99-7.71,69.79-32.54,83.92-24.83,14.13-79.64,20.12-93.34,5.14Z"/>
        <path class="cls-12" d="M390.2,224.86s-2.88,17.98,0,23.12c2.88,5.14,43.13.43,59.4-8.56,16.27-8.99,35.54-53.52,35.11-70.22-.43-16.7-7.79-33.78-13.27-32.11-5.48,1.67-54.58,25.26-81.24,87.77Z"/>
        <path class="cls-1" d="M303.16,396.34c-7.53-1.75-4.71-43.17-2.57-58.3,2.14-15.13,38.96-32.46,47.95-33.86,8.99-1.4,11.13,32.03,3.43,51.93-7.71,19.89-36.82,43.01-48.81,40.23Z"/>
        <path class="cls-12" d="M298.26,373.02s5.76,5.99,9.62,5.13c3.85-.86,29.01-25.85,31.26-48.81,2.25-22.96,0-22.05,0-22.05,0,0-31.59,12.22-37.42,27.2-5.83,14.97-3.46,38.53-3.46,38.53Z"/>
        <path class="cls-12" d="M251.78,358.02c-4.28-2.57-6.42-41.53-3.85-50.74,2.57-9.21,37.25-42.64,45.81-57.18,8.56-14.54,25.26-38.94,28.69-40.23,3.43-1.28,12.42,29.97,11.99,51.38-.43,21.41-12.09,35.11-15.47,37.68-3.37,2.57-24.11,14.13-34.29,22.69-10.18,8.56-32.88,36.39-32.88,36.39Z"/>
        <path class="cls-12" d="M251.78,358.02l12.86-15.27s-2.55-29.9,0-38.57c2.55-8.68,43.23-37.79,50.51-49.78,7.28-11.99,13.19-32.82,13.19-32.82,0,0-2.06-7.86-5.91-11.71-41.36,61.58-35.75,47.05-74.5,97.41,0,0-5.57,31.04,3.85,50.74Z"/>
        <path class="cls-4" d="M317.29,118.25l95.48,6.85,51.81-25.69c61.74-10.29,64.27-14.24-8.13,11.99,0,0-49,23.12-67.53,73.22l-76.33-15.84-10.28,5.37,14.99-55.9Z"/>
        <path class="cls-5" d="M595.15,194.45l-11.1,131.02c-14.59,23.12-47.99,42.85-47.99,42.85-79.64-.87-132.71,61.65-140.42,71.93-7.71,10.28-35.97,26.51-54.82,29.08-18.8,2.57-56.16-3.08-56.16-3.08-5.81,1.85-9.66,2.82-10.48,3.03l-1.28-3.03c15.16-5.86,22.45-26.05,22.45-26.05-10.53-20.81-10.58-54.31-10.58-54.98,2.57,22.92,22.25,35.04,22.25,35.04,33.81-10.12,60.58-58.62,76.81-85.75,16.29-27.18,49.27-50.56,49.27-50.56,24.71-4.95,79.18-20.74,88.01-44.34,8.45-22.18,4.12-53.71-2.8-74.47l46.47-68.1-11.71-22.86c10.53,8.73,26.56,26.67,29.23,34.68,3.44,10.28,12.85,85.6,12.85,85.6Z"/>
        <path class="cls-1" d="M1322.23,1170.66c-1.26,1.26-31.44-125.5-89.71-192.42l-7.35-23.12s-14.9,8.79-45.01,21.43c0,0,1.85,3.96,4.98,11.05,0,0,29.9,7.5,42.54,24.05,12.64,16.49,39.15,177.26,38.84,180.45-.31,3.18-12.9,5.29-12.9,5.29l1.85,10.58h38.02c13.89,32.65,11.56,22.11,11.56,46.7-36.66,84.95-33.9,78.29-33.45,77.84,6.87-6.87,33.25-61.52,56.62-103.32,0,0,2.88.77,6.99,1.85,2.58-33.39,15-42.43,15-43.52-14.54-9.25-28-16.85-28-16.85ZM1239.97,1024.74c20.55,40.74,52.25,111.7,56.62,169.76l-5.04,4.73c-16.44-33.71-43.11-97.93-51.58-174.49Z"/>
        <path class="cls-5" d="M1267.81,1244.75c-5.44,12.43,13.03-29.36-25.18,56.52l-46.29,9.61-19.73,15.77h-48.81s20.55-21.84,27.64-24.41c7.04-2.57,35.97-3.55,35.97-3.55l56.52-56.52,19.88,2.57Z"/>
        <path class="cls-11" d="M1328.8,717.44c-2.57,13.51-73.83,107.28-93.72,156.71-19.94,49.48-9.92,80.97-9.92,80.97,0,0-33.04,25.69-55.34,21.22-7.46-8.6-26.9-33.78-23.43-44.6,2.52-7.81,23.79-12.59,54.62-66.54,31.98-55.92,53.63-142.39,52.97-178.34,0,0,26-22.71,29.9-24.61,4.26-1.7,28.61,2.91,33.14,3.8,0,0,14.33,37.92,11.77,51.38Z"/>
        <path class="cls-5" d="M1328.8,717.44c-2.57,13.51-73.83,107.28-93.72,156.71-19.94,49.48-9.92,80.97-9.92,80.97,0,0-33.04,25.69-55.34,21.22,0,0-8.74-10.07-15.62-21.17,14.18,6.99,42.13-.05,42.13-.05l12.38-35.35s44.96-98.24,45.27-124.6c.26-20.3-7.45-33.7-10.99-38.79-2.25-3.37-3.1,1.81,5.81-25.28l13.2,22.97,48.81-33.4v-42.59l-26.92-15.82c4.26-1.7,28.61,2.91,33.14,3.8,0,0,14.33,37.92,11.77,51.38Z"/>
        <path class="cls-13" d="M1361.86,1239.56l-2.51-.53c.05-.24,5.22-23.86,25.93-24.5l.08,2.57c-18.71.58-23.45,22.24-23.5,22.46Z"/>
        <path class="cls-13" d="M1270.39,1332.87c-7.46-24.73-27.87-30.31-28.07-30.37l.65-2.49c.9.23,22.01,6.01,29.88,32.11l-2.46.74Z"/>
        <path class="cls-6" d="M627,361.01l-.29-2.56c.26-.03,26.73-3.21,47.14-21.37l1.71,1.92c-21.04,18.72-48.29,21.98-48.56,22.01Z"/>
        <path class="cls-6" d="M661.88,441.9l-.69-2.48c.33-.09,32.78-9.29,38.95-27.43l2.43.83c-6.6,19.43-39.3,28.7-40.69,29.08Z"/>
        <path class="cls-6" d="M797.64,442.3l-2.47-.72c4.27-14.63-1.1-23.96-1.15-24.06l2.21-1.32c.25.42,6.02,10.32,1.42,26.09Z"/>
        <path class="cls-6" d="M920.3,412.86l-2.4-.91c4.27-11.23-1.39-16.77-1.63-17l1.75-1.88c.3.28,7.19,6.88,2.28,19.8Z"/>
        <path class="cls-6" d="M1174.67,589.26l-1.87-1.77c12.9-13.61,13.67-37.45,13.68-37.69l2.57.07c-.03,1.02-.82,25.06-14.38,39.39Z"/>
        <path class="cls-13" d="M1313.42,1255.63c-17.48-14.74-46.06-7.25-46.35-7.18l-.67-2.48c1.22-.33,30.16-7.93,48.68,7.69l-1.66,1.97Z"/>
        <path class="cls-6" d="M1327.18,1229.91c-.19-.28-18.7-27.76-5.51-57.61l2.35,1.03c-12.6,28.52,5.1,54.86,5.28,55.12l-2.12,1.46Z"/>
        <path class="cls-6" d="M1206.84,1309.56c-17.33-13.14-16.6-7.11-15.05-12.09.23.07,5.8,1.85,16.6,10.04l-1.55,2.05Z"/>
        <path class="cls-6" d="M1180.26,977.83l-.2-2.56c.27-.02,27.12-2.33,44.16-21.01l1.9,1.73c-17.74,19.45-44.72,21.75-45.86,21.84Z"/>
        <path class="cls-6" d="M586.85,285.16l-.75-2.46c22.38-6.83,35.61-34.32,35.74-34.6l2.32,1.1c-.55,1.17-13.83,28.79-37.31,35.96Z"/>
        <path class="cls-6" d="M1356.81,803.7l-.74-2.46c.26-.08,26.4-8.1,32.57-24.1l2.4.92c-6.62,17.17-33.1,25.29-34.23,25.63Z"/>
        <path class="cls-6" d="M1395.88,874.82l-.05-2.57c.24,0,23.72-.65,40.26-15.94l1.75,1.88c-17.27,15.97-40.95,16.61-41.95,16.63Z"/>
        <path class="cls-6" d="M1442.46,961.2l-2.49-.65c.07-.28,7.6-28.05,34.5-30.91l.27,2.56c-25.16,2.67-32.22,28.74-32.29,29Z"/>
        <path class="cls-6" d="M1478.33,999.99l-2.3-1.16c.42-.84,10.56-20.61,34.83-33.09l1.17,2.28c-23.53,12.11-33.61,31.76-33.71,31.96Z"/>
        <path class="cls-6" d="M1534.03,1049.56l-2.4-.92c.46-1.21,11.63-29.59,35.02-38.45l.91,2.4c-22.3,8.45-33.42,36.68-33.53,36.97Z"/>
        <path class="cls-6" d="M1593.08,1088.18l-2.32-1.1c.57-1.2,14.16-29.51,32.44-35.81l.84,2.43c-17.26,5.95-30.82,34.19-30.96,34.48Z"/>
        <path class="cls-6" d="M1670.21,1131.69l-2.45-.77c.46-1.48,11.59-36.27,32.54-42.82l.77,2.45c-19.67,6.15-30.75,40.79-30.86,41.14Z"/>
        <path class="cls-6" d="M1742.97,1157.51l-2.35-1.03c.63-1.44,15.61-35.25,32.31-43.48l1.14,2.3c-15.87,7.83-30.95,41.87-31.09,42.22Z"/>
        <path class="cls-6" d="M1833.86,1180.24l-2.55-.25c.12-1.25,3.19-30.85,17.45-46.17l1.88,1.75c-13.66,14.69-16.74,44.38-16.77,44.67Z"/>
        <path class="cls-6" d="M1909.18,1194.79l-2.55-.28c.18-1.61,4.53-39.48,21.2-48.92l1.27,2.24c-15.53,8.79-19.87,46.58-19.91,46.96Z"/>
        <path class="cls-6" d="M2061.18,1199.87c-.16-.15-16.26-14.99-5.42-35.77l2.28,1.19c-9.9,18.98,4.25,32.12,4.86,32.67l-1.72,1.91Z"/>
        <path class="cls-6" d="M2146.11,1189.72c-.15-.1-14.63-9.78-5.55-25.65l2.23,1.28c-7.86,13.74,4.21,21.89,4.73,22.23l-1.4,2.15Z"/>
        <path class="cls-3" d="M863.27,675.21l30.38,9.45,11.09,13.95c18.68-37.99,21.89-61.9,29.25-103.47l-64.02,39.06s-2.11,24.01-6.7,41.02Z"/>
        <path class="cls-3" d="M927.89,657.37l29.34-1.83,34.38-48.95c8.03-37.09,7.46-26.99,4.39-42.65l-51.79,24.44s-9.49,48.26-16.32,68.99Z"/>
        <g>
          <path class="cls-11" d="M777.06,643.43s-21.2-40.93-25.97-44.46c-4.78-3.53-39.88,1.65-62.31,17.52,12.87,8.66,32.45,6.96,49.5,6.7l36.86,47.5s9.63-12.74,1.92-27.27Z"/>
          <path class="cls-11" d="M993.96,566.54l-47.68,3.49c-8.29-42.59-34.45-117.27-77.69-122.08-8.62-4.04-32.73-15.96-37.56-21.27-5.39-6.27,24.1-48.66,31.03-49.94,6.88-1.28,33.24,5.4,39.36,9.76,5.95,4.33,12.32,40.11,17.88,53.69,5.75,13.92,69.72,104.76,75.37,113.09,4.3,6.22,1.71,11.35-.72,13.26Z"/>
          <path class="cls-11" d="M993.96,566.54c-6.52,11.85-4.61,8.71-5.09,9.2v.05c-3.19,6.35.66,2.67-21.01,11.77-49.43,20.71-96.97,49.93-130.45,76.81h-12.07l-3.13-17.01c44.35-17.58,94.34-50.73,124.08-77.33,29.13-26.51,47.68-3.49,47.68-3.49Z"/>
          <path class="cls-11" d="M988.88,575.74c0,9.33-52.25,86.26-162.31,94.95,14.3-20.35-2.83,4.07,10.84-15.52,38.73-6.99,94.48-26.45,122.49-56.88,14.97-16.51-3.18-4.51,28.98-22.56Z"/>
          <path class="cls-11" d="M830.38,643.97s-35.4,2.02-41.89-1.65c-6.49-3.67-11.42,1.11-11.42,1.11,0,0,3.29,18.8-5.92,38.07l4.16,7.28s33.56-12.51,52.49-12.3c0,0,11.1-8.79,2.59-32.51Z"/>
          <path class="cls-11" d="M771.15,681.5s-20.98-20.55-23.55-20.23c-2.57.32-35,21.19-53.31,20.23,0,0,25.58-38.01,47.42-48.29l38.34,24.71s5.25,14.76-8.91,23.58Z"/>
          <path class="cls-13" d="M738.77,624.38l-.96-2.38c.56-.23,13.77-5.82,12.01-22.9l2.55-.26c1.96,19.04-13.45,25.48-13.6,25.54Z"/>
          <path class="cls-13" d="M748.88,661.4l-2.56-.25c2.38-24.14-4.87-26.67-4.95-26.7l.64-2.48c.98.24,9.46,3.08,6.86,29.44Z"/>
          <path class="cls-1" d="M996.79,561.81c-18.82-27.88-55.26-77.87-87.76-85.7-10.84-15.05-24.25-26.36-40.44-28.16-9.14-4.29-29.91-14.41-37.46-21.22,1.95.92,33.76,15.83,46.04,15.52,12.69-.31,26.51-10.58,26.51-10.58l1.13-39.77c4.93,11.51,9.86,36.99,14.49,48.3,5.75,13.92,69.72,104.76,75.37,113.09,2.42,3.49,2.67,6.37,2.11,8.53Z"/>
          <path class="cls-1" d="M988.88,575.74c0,.46-5.09,8.29-7.81,12.64-33.88,15.87-18.32,10.44-13.2-.82-37.69,15.79-71.93,34.41-112.98,63.71,2.21-.57,4.62-1.18,7.19-1.9-3.9,6.78-7.6,12.95-10.74,18.09-6.06,1.13-12.38,2.05-18.91,2.67,1.61-7.53,2.24-19.57-2.05-26.15h17.1c92.09-58.98,145.3-72.17,141.4-68.24Z"/>
        </g>
        <path class="cls-6" d="M998.32,432.41l-2.55-.26c3.98-39.28-11.68-55.05-11.84-55.2l1.79-1.84c.69.66,16.73,16.66,12.61,57.31Z"/>
        <path class="cls-6" d="M1064.07,448.19l-2.49-.62c6.57-26.39,1.43-48.21,1.38-48.43l2.49-.6c.06.22,5.35,22.63-1.38,49.66Z"/>
        <path class="cls-14" d="M1168.49,958.18l36.49-27.7-8.63,24.64c-12.11,3.85-5.97,3.06-27.86,3.06Z"/>
        <path class="cls-14" d="M1253.82,739.82l41.74-8.7s-30.04,21.99-33.54,22.95c-3.51.96-8.19-14.25-8.19-14.25Z"/>
        <path class="cls-14" d="M264.65,342.76h33.13s-.83-22.03,22.73-29.69v-15.54s-41.71,24.41-55.86,45.24Z"/>
        <path class="cls-14" d="M212.46,350.36l24.77-18.14,10.7-24.94s37.41-45.23,50.32-64.55l-25.35,3.07s-57.86,64.31-60.44,104.56Z"/>
        <path class="cls-14" d="M395.65,169.8h21.19s35.97-33.56,53.95-39.98l-6.95-21.09s-42.5,11.14-68.19,61.07Z"/>
        <path class="cls-14" d="M650.78,383.24l34.73-9.8,24.22,12.3s-29.46,10.74-58.95-2.49Z"/>
        <path class="cls-14" d="M719.99,416.9l41.68,7.95,24.38-20.58s-6.81-10.84-23.65-9.85c-16.84.99-42.4,22.48-42.4,22.48Z"/>
        <path class="cls-14" d="M904.69,396.34c-16.45,36.39-12.42,26.68-18.66,44.31,0,0,13.83-6.1,17.66-8.99,3.83-2.89,1-35.32,1-35.32Z"/>
        <path class="cls-14" d="M944.95,361.61l28.08,20.87s-15.81-2.1-21.61-5.89c-5.8-3.79-6.47-14.98-6.47-14.98Z"/>
        <path class="cls-14" d="M1022.94,379.26l21.95,18.78s-14.67-2.45-18.97-6.14c-4.3-3.69-2.98-12.64-2.98-12.64Z"/>
        <path class="cls-14" d="M1665.69,1087.63l7.31,14.7s11.78-23.1,20.86-26.72c0,0-18.21-4.44-28.17,12.02Z"/>
        <path class="cls-14" d="M1771.33,1099.92s-26.33,2.34-29.54,12.09c-3.21,9.75,1.33,25.37,1.33,25.37,0,0,14.72-30.39,28.21-37.46Z"/>
        <path class="cls-14" d="M1841.98,1126.16s-28.52,8.6-19.24,36.13c0,0,8-24.98,19.24-36.13Z"/>
        <path class="cls-14" d="M1623.62,1037.94s-26.69-4.4-26.83,26.38c0,0,14.95-24.45,26.83-26.38Z"/>
        <path class="cls-14" d="M1567.1,996.84s-22.8-2.89-27.94,2.57c-5.14,5.46-6.33,24.51-6.33,24.51,0,0,21.75-24.19,34.27-27.08Z"/>
        <path class="cls-14" d="M2048.37,1158.69s-13.28,5.78-6.12,23.12c0,0,.99-14.99,6.12-23.12Z"/>
        <path class="cls-14" d="M1918.18,1135.06s-23.33,8.86-12.73,22.34c0,0,5.65-18.78,12.73-22.34Z"/>
        <path class="cls-14" d="M1436.96,935.77s5.55-20.74,37.66-16.87c0,0-16.7,1.68-37.66,16.87Z"/>
        <path class="cls-14" d="M1440.55,827.03s-30.13-10.17-44.7,20.95c0,0,26.91-4.08,44.7-20.95Z"/>
        <path class="cls-14" d="M1478.28,979.23s1.13-28.19,31.81-22.52c0,0-17.06,3.66-31.81,22.52Z"/>
        <path class="cls-14" d="M1185.17,735.58l14.14,15.93s11.53-2.24,17.5-8.88c5.97-6.64,25.8-41.62,25.8-41.62l-21.32-9.23c-4.91,20.3-17.77,35.28-36.13,43.81Z"/>
        <path class="cls-14" d="M786.45,661.27l6.74-10.97-2.52-7.18c-15.53-3.87-3.7-5-4.22,18.15Z"/>
        <path class="cls-14" d="M1132.73,488.55c18.36,14.59,14.11,10.03,19.88,20.37,0,0-15.16-6.42-16.23-9.58s-3.65-10.78-3.65-10.78Z"/>
        <path class="cls-14" d="M1202.83,582.27l24.72-3.38s-3.42,6.87-7.16,8.71c-3.74,1.84-17.56-5.33-17.56-5.33Z"/>
      </g>
      <polygon class="cls-11" points="791.26 1396.11 802.47 1469.87 1323.01 1476.3 1338.55 1396.11 791.26 1396.11"/>
      <polygon class="cls-7" points="1092.49 1396.11 1042.7 1472.84 1207.62 1474.87 1265.19 1396.11 1092.49 1396.11"/>
      <polygon class="cls-7" points="963.47 1471.86 984.57 1396.11 957.59 1396.11 942.74 1471.86 963.47 1471.86"/>
      <path class="cls-9" d="M812.41,1470c43.76,8.8-33.12,5.28,466.01,13.15l35.83-6.96-501.84-6.19Z"/>
      <polygon class="cls-1" points="1180.16 1369.58 1204.14 1338.5 1441.22 1340.97 1422.39 1369.58 1180.16 1369.58"/>
      <polygon class="cls-1" points="1441.22 1369.9 1471.84 1340.14 1518.51 1340.14 1479.87 1369.9 1441.22 1369.9"/>
      <g>
        <polygon class="cls-12" points="255.35 1317.65 286.51 1216.37 508.16 1216.37 490.28 1317.65 255.35 1317.65"/>
        <polygon class="cls-11" points="268.12 1305.96 478.18 1308.53 496.92 1223.99 292.04 1223.99 268.12 1305.96"/>
        <polygon class="cls-9" points="508.16 1216.37 523.89 1308.53 492.05 1308.53 508.16 1216.37"/>
        <polygon class="cls-9" points="317.09 1235.87 311.31 1254.08 467.37 1254.08 471.66 1235.87 317.09 1235.87"/>
      </g>
    </g>
  </g>
</svg>