<?xml version="1.0" encoding="UTF-8"?>
<svg xmlns="http://www.w3.org/2000/svg" viewBox="0 0 337.75 198.03">
  <defs>
    <style>
      .cls-1 {
        fill: #5486b8;
      }

      .cls-1, .cls-2, .cls-3, .cls-4, .cls-5, .cls-6, .cls-7, .cls-8, .cls-9, .cls-10, .cls-11, .cls-12, .cls-13, .cls-14, .cls-15, .cls-16, .cls-17, .cls-18, .cls-19, .cls-20, .cls-21, .cls-22 {
        stroke-width: 0px;
      }

      .cls-23 {
        isolation: isolate;
      }

      .cls-2, .cls-4, .cls-20 {
        fill: #e0c894;
      }

      .cls-2, .cls-9, .cls-12, .cls-15 {
        mix-blend-mode: screen;
      }

      .cls-3 {
        opacity: .63;
      }

      .cls-3, .cls-4, .cls-24, .cls-11, .cls-17, .cls-19 {
        mix-blend-mode: multiply;
      }

      .cls-3, .cls-19, .cls-21 {
        fill: #b5b6a2;
      }

      .cls-5, .cls-17 {
        fill: #656668;
      }

      .cls-24, .cls-11 {
        opacity: .57;
      }

      .cls-6 {
        fill: #284766;
      }

      .cls-7, .cls-12 {
        fill: #e0dfc4;
      }

      .cls-8 {
        fill: #fff;
      }

      .cls-9, .cls-11, .cls-22 {
        fill: #5689bc;
      }

      .cls-10 {
        fill: #231f20;
      }

      .cls-13, .cls-15 {
        fill: #5f98d1;
      }

      .cls-14 {
        fill: #bcbec0;
      }

      .cls-16 {
        fill: #ccb788;
      }

      .cls-18 {
        fill: #313239;
      }
    </style>
  </defs>
  <g class="cls-23">
    <g id="Layer_1" data-name="Layer 1">
      <g>
        <g>
          <path class="cls-1" d="m116.26,183.82c1.51-.37,3.13-.88,4.5-1.71.26-.29.5-.59.72-.91.72-1.05,1.18-2.26,1.29-3.53.17-1.9-.32-3.83-.76-5.67-.51-2.12-1.07-4.24-1.16-6.43-.09-2.25.06-4.51.33-6.74.55-4.57,1.62-9.05,2.55-13.56.95-4.57,1.59-9.15,1.82-13.82.46-9.03-.24-18.25-2.45-27.02-.92-3.65-2.12-7.26-3.77-10.65-.61-1.25-1.27-2.48-2.02-3.66-2.22-2.82-5.06-5.2-8.36-6.59-8.11-3.42-17.4,1.25-21.38,8.66-1.17,2.18-1.81,4.52-2.21,6.95-.5,3.03-.55,6.1-.32,9.16.21,2.85.72,5.66,1.16,8.48.39,2.51.79,5.06,1.76,7.44.07.36.13.72.2,1.08,2.15,11.5,4.92,23.14,3.21,34.9-.47,3.22-1.34,6.31-2.55,9.33-.92,2.3-2.02,4.53-3.04,6.78-.21.3-.43.59-.66.88-.53.66-1.09,1.3-1.67,1.91-.47.49-.96.98-1.27,1.59-.38.73-.39,1.55.29,2.1.7.55,1.73.66,2.58.69.63.02,1.29,0,1.93-.12.03.06.07.12.11.17.64.85,2.07.92,3.04.98,1.43.09,2.85.08,4.27-.15.66-.1,1.31-.23,1.96-.35.22.2.5.34.75.46.66.3,1.38.45,2.09.55,2.93.41,5.97.02,8.9-.14,2.73-.16,5.47-.41,8.13-1.06Z"/>
          <path class="cls-15" d="m86.2,116.78c.39,2.51.79,5.06,1.76,7.44.07.36.13.72.2,1.08,2.15,11.5,4.92,23.14,3.21,34.9-.47,3.22-1.34,6.31-2.55,9.33-.12.29-.25.59-.37.88,1.39-2.29,2.48-4.77,3.21-7.4,1.01-3.64,1.34-7.44,1.36-11.2.03-4.19-.38-8.36-1.01-12.5-.62-4.12-1.46-8.21-2.3-12.29-.83-4.04-1.63-8.08-2.38-12.13-1.34-7.22-2.28-14.82.64-21.78.89-2.12,2.07-4.05,3.45-5.83-1.54,1.42-2.86,3.09-3.84,4.93-1.17,2.18-1.81,4.52-2.21,6.95-.5,3.03-.55,6.1-.32,9.16.21,2.85.72,5.66,1.16,8.48Z"/>
          <path class="cls-11" d="m123.11,104.43c-.92-3.65-2.12-7.26-3.77-10.65-.61-1.25-1.27-2.48-2.02-3.66-2.22-2.82-5.06-5.2-8.36-6.59-8.11-3.42-17.4,1.25-21.38,8.66-1.17,2.18-1.81,4.52-2.21,6.95-.5,3.03-.55,6.1-.32,9.16.04.53.09,1.05.15,1.57.16-1.07.35-2.14.58-3.2.8-3.74,2-7.49,3.98-10.78,1.7-2.83,4.13-5.39,7.37-6.36,3.66-1.1,7.83.04,10.88,2.22,3.46,2.48,5.44,6.36,6.46,10.41,1.1,4.37,1.23,8.96,1.06,13.44-.19,5.07-.8,10.11-1.4,15.14-.88,7.36-1.86,14.71-2.74,22.07-.43,3.6-.95,7.23-1.02,10.85-.03,1.69.03,3.48.55,5.1.47,1.48,1.26,2.84,1.79,4.29.5,1.36.71,2.74.41,4.17-.23,1.12-.76,2.16-1.54,2.99-1.6,1.71-3.99,2.45-6.2,2.96-.17.04-.34-.05-.39-.22-.52-1.72-1.52-3.55-3.35-4.09-1.92-.57-3.89.47-5.36,1.62-.16.13-.49.12-.53-.14-.22-1.36-1.1-2.33-2.51-2.43-1.27-.1-2.6.38-3.59,1.18-.17.14-.48.12-.53-.14-.29-1.56-1.18-3.02-2.79-3.44-.05-.01-.1-.02-.16-.03-.13.28-.25.55-.38.83-.21.3-.43.59-.66.88-.53.66-1.09,1.3-1.67,1.91-.47.49-.96.98-1.27,1.59-.38.73-.39,1.55.29,2.1.7.55,1.73.66,2.58.69.63.02,1.29,0,1.93-.12.03.06.07.12.11.17.64.85,2.07.92,3.04.98,1.43.09,2.85.08,4.27-.15.66-.1,1.31-.23,1.96-.35.22.2.5.34.75.46.66.3,1.38.45,2.09.55,2.93.41,5.97.02,8.9-.14,2.73-.16,5.47-.41,8.13-1.06,1.51-.37,3.13-.88,4.5-1.71.26-.29.5-.59.72-.91.72-1.05,1.18-2.26,1.29-3.53.17-1.9-.32-3.83-.76-5.67-.51-2.12-1.07-4.24-1.16-6.43-.09-2.25.06-4.51.33-6.74.55-4.57,1.62-9.05,2.55-13.56.95-4.57,1.59-9.15,1.82-13.82.46-9.03-.24-18.25-2.45-27.02Z"/>
          <g>
            <path class="cls-5" d="m88.17,180.07c.03-.6-.1-1.26-.42-1.73-.44-.64-1.28-.79-1.99-.61-.81.21-1.55.7-2.18,1.23-.55.46-1.06.96-1.52,1.51-.83.98-2.04,2.73-.62,3.75.7.5,1.6.57,2.43.45.83-.12,1.68-.42,2.4-.85,1.31-.79,2.07-2.29,1.9-3.75Z"/>
            <path class="cls-17" d="m88.15,179.48c-1.98,1.23-3.53,3.09-4.47,5.22.07,0,.13-.01.2-.02.83-.12,1.68-.42,2.4-.85,1.31-.79,2.07-2.29,1.9-3.75,0-.19,0-.39-.03-.59Z"/>
            <path class="cls-5" d="m95.14,181.35c-.13-.48-.31-.96-.67-1.31-.04-.04-.08-.05-.13-.04-.22-.29-.5-.54-.82-.73-.81-.49-1.79-.62-2.7-.37-1.01.28-1.9.88-2.66,1.59-.35.33-.65.69-.96,1.05-.29.34-.58.67-.83,1.04-.46.67-.84,1.56-.34,2.32.48.74,1.42,1.03,2.25,1.14,1.73.22,3.56-.22,5.12-.96.92-.44,1.69-1.06,1.85-2.12.08-.53.02-1.09-.11-1.61Z"/>
            <path class="cls-17" d="m95,180.91c-2.11.71-3.73,2.83-4.28,5.04.94-.17,1.85-.48,2.69-.87.92-.44,1.69-1.06,1.85-2.12.08-.53.02-1.09-.11-1.61-.04-.15-.09-.3-.14-.45Z"/>
            <path class="cls-5" d="m104.18,183.94c-.28-1.15-.68-2.41-1.58-3.19-.68-.59-1.59-.85-2.49-.85-1.05,0-2.1.33-3.04.77-1.57.74-3.74,2.24-4.22,4.02-.08.31-.11.65-.02.97.17.59.71,1.01,1.3,1.2.92.29,1.97.16,2.92.16,1.65,0,3.29-.14,4.93-.28.79-.07,1.7-.2,2.13-.87.28-.44.27-1,.16-1.51-.03-.14-.06-.27-.1-.41Z"/>
            <path class="cls-17" d="m104.28,184.35c-.03-.14-.06-.27-.1-.41-.28-1.15-.68-2.41-1.58-3.19-.36-.31-.79-.53-1.25-.67,1.26.73,2.14,1.94,1.94,3.51-.19,1.53-1.28,2.56-2.57,3.25.42-.03.84-.07,1.26-.1.79-.07,1.7-.2,2.13-.87.28-.44.27-1,.16-1.51Z"/>
          </g>
          <g class="cls-24">
            <path class="cls-22" d="m97.75,155.52c-.71-.34-1.51-.4-2.29-.49-.79-.09-1.6-.21-2.35-.45-.03,0-.05,0-.08,0,1.13,1.27,3.05,1.29,4.73.95Z"/>
            <path class="cls-22" d="m95.51,151.86c-.19-.01-.38-.02-.57-.02-.48.05-.95.19-1.31.46.57.03,1.15.06,1.72.03.14,0,.28-.09.33-.23.04-.13-.04-.23-.17-.24Z"/>
            <path class="cls-22" d="m95.61,148.56s-.01,0-.02,0c-.03,0-.06.01-.09.02-.04.01-.07.03-.11.04,0,0-.06.02-.07.02-.08.02-.16.04-.24.06-.15.04-.31.07-.46.08-.06,0-.12.01-.18.02-.28.12-.53.3-.74.51.28.05.56.07.84.04.19-.02.38-.04.57-.09.21-.06.4-.15.58-.27.1-.06.2-.22.14-.34-.04-.09-.14-.11-.23-.1Z"/>
          </g>
        </g>
        <g>
          <path class="cls-1" d="m223.22,148.32c-.41-1.14-1.17-2.18-2.43-3.04-1.37-.94-2.94-1.54-4.36-2.41-1.38-.85-2.79-1.95-2.96-3.68-.17-1.79.46-3.64.89-5.36.55-2.21,1.2-4.4,1.8-6.6,2.8-10.35,4.36-22.77-.38-32.81-2.17-4.61-5.95-8.14-10.81-9.74-3.09-1.02-6.47-1.37-9.69-.89-3.52.53-6.83,2.07-9.71,4.14-13.25,9.54-18.36,27.92-15.16,43.48.96,4.65,2.63,9.19,4.83,13.4,1.68,3.23,3.87,6.19,6.73,8.48,2.81,2.25,6.24,3.9,9.75,4.73.67.16,1.4.29,1.98.67,2.59,1.7,1.25,7.19.78,9.58-.66,3.35-1.5,8.16-4.95,9.73-1.49.68-3.63.92-4.3,2.68-.55,1.44.86,2.49,2.13,2.71.5.09,1.01.08,1.5-.04.13.78.74,1.35,1.49,1.68,3.02,1.33,7.09.55,10.28.39,5.28-.27,11.34-.11,16.22-2.39,4.47-2.1,3.14-5.49,2.02-9.29-.81-2.75.06-5.1.87-7.78.65-2.17,1.24-4.36,1.86-6.53.99-3.48,2.83-7.76,1.62-11.13Z"/>
          <path class="cls-15" d="m187.1,156.12c-1.46-1.03-2.84-2.16-4.15-3.37-2.33-2.15-4.39-4.56-6.08-7.24-3.25-5.18-5.07-11.15-5.72-17.2-.69-6.36-.26-13,1.62-19.13,2.06-6.71,5.87-12.72,10.45-18,1.53-1.76,3.2-3.41,4.98-4.92-.91.5-1.79,1.06-2.63,1.67-13.25,9.54-18.36,27.92-15.16,43.48.96,4.65,2.63,9.19,4.83,13.4,1.68,3.23,3.87,6.19,6.73,8.48,1.89,1.52,4.07,2.75,6.36,3.65-.42-.26-.82-.54-1.23-.83Z"/>
          <path class="cls-11" d="m221.61,159.44c.99-3.48,2.83-7.76,1.62-11.13-.41-1.14-1.17-2.18-2.43-3.04-1.37-.94-2.94-1.54-4.36-2.41-1.38-.85-2.79-1.95-2.96-3.68-.17-1.79.46-3.64.89-5.36.55-2.21,1.2-4.4,1.8-6.6,2.8-10.35,4.36-22.77-.38-32.81-2.17-4.61-5.95-8.14-10.81-9.74-3.09-1.02-6.47-1.37-9.69-.89-3.52.53-6.83,2.07-9.71,4.14-4.23,3.04-7.62,6.99-10.19,11.45,1.57-2.1,3.42-3.98,5.54-5.52,2.39-1.73,5.18-3.12,8.11-3.61,2.64-.44,5.35-.05,7.66,1.34,2.24,1.34,3.94,3.42,5.18,5.69,3.23,5.94,3.57,12.96,2.75,19.53-.49,3.96-1.33,7.86-1.92,11.8-.3,2.01-.53,4.02-.62,6.05-.07,1.7-.11,3.45.34,5.1.3,1.12.86,2.13,1.71,2.93.84.79,1.87,1.36,2.89,1.88,1.22.63,2.55,1.13,3.66,1.96.99.74,1.77,1.73,2.25,2.87,1.01,2.36.83,5.06.4,7.53-.44,2.55-1.22,5.03-1.93,7.51-.42,1.45-1.05,2.83-1.56,4.25-.51,1.43-1.04,2.98-.93,4.51.1,1.38,1.1,2.45,1.81,3.57.62.98.92,2.07.16,3.07-.87,1.16-2.34,1.86-3.7,2.25-1.35.38-2.83.57-4.23.35-.54-.08-1.09-.24-1.5-.61-.42-.38-.63-.92-.97-1.36-1.04-1.34-3.16-.26-4.11.66-.15.14-.4.12-.5-.06-.98-1.71-3.43-1.88-4.73-.46-.2.21-.53.04-.54-.22-.08-1.54-1.1-1.99-2.38-1.89-1.24.43-2.52.9-3.01,2.19-.55,1.44.86,2.49,2.13,2.71.5.09,1.02.08,1.5-.04.13.78.74,1.35,1.49,1.68,3.02,1.33,7.09.55,10.28.39,5.28-.27,11.34-.11,16.22-2.39,4.47-2.1,3.14-5.49,2.02-9.29-.81-2.75.06-5.1.87-7.78.65-2.17,1.24-4.36,1.86-6.53Z"/>
          <g>
            <path class="cls-5" d="m189.88,181.87c.02-.45-.07-.94-.31-1.28-.33-.48-.95-.58-1.48-.45-.6.15-1.15.52-1.62.91-.41.34-.79.71-1.13,1.12-.62.73-1.52,2.03-.46,2.78.52.37,1.19.42,1.8.33.62-.09,1.25-.31,1.78-.63.97-.58,1.54-1.7,1.41-2.78Z"/>
            <path class="cls-17" d="m189.86,181.43c-1.47.91-2.62,2.29-3.32,3.87.05,0,.1-.01.15-.02.62-.09,1.25-.31,1.78-.63.97-.58,1.54-1.7,1.41-2.78,0-.14,0-.29-.02-.44Z"/>
            <path class="cls-5" d="m195.05,182.82c-.09-.36-.23-.72-.5-.97-.03-.03-.06-.03-.1-.03-.16-.22-.37-.4-.61-.54-.6-.37-1.33-.46-2.01-.28-.75.2-1.41.66-1.97,1.18-.26.24-.48.51-.71.78-.21.25-.43.5-.61.77-.34.5-.62,1.16-.25,1.72.36.55,1.06.77,1.67.85,1.28.17,2.64-.17,3.8-.71.68-.32,1.26-.79,1.37-1.57.06-.4.02-.81-.08-1.19Z"/>
            <path class="cls-17" d="m194.94,182.49c-1.57.53-2.77,2.1-3.18,3.74.69-.13,1.37-.35,1.99-.65.68-.32,1.26-.79,1.37-1.57.06-.4.02-.81-.08-1.19-.03-.11-.07-.22-.11-.33Z"/>
            <path class="cls-5" d="m201.76,184.74c-.21-.85-.51-1.79-1.17-2.36-.5-.44-1.18-.63-1.85-.63-.78,0-1.56.25-2.26.57-1.17.55-2.78,1.66-3.13,2.98-.06.23-.08.48-.01.72.12.44.53.75.96.89.68.22,1.46.12,2.17.12,1.22,0,2.44-.11,3.66-.21.59-.05,1.26-.15,1.58-.65.21-.33.2-.74.12-1.12-.02-.1-.05-.2-.07-.31Z"/>
            <path class="cls-17" d="m201.83,185.04c-.02-.1-.05-.2-.07-.31-.21-.85-.51-1.79-1.17-2.36-.27-.23-.59-.39-.92-.5.93.54,1.59,1.44,1.44,2.6-.14,1.14-.95,1.9-1.91,2.41.31-.02.62-.05.94-.08.59-.05,1.26-.15,1.58-.65.21-.33.2-.74.12-1.12Z"/>
          </g>
          <g class="cls-24">
            <path class="cls-22" d="m201.72,167.29c-.71-.34-1.51-.4-2.29-.49-.79-.09-1.6-.21-2.35-.45-.03,0-.05,0-.08,0,1.13,1.27,3.05,1.29,4.73.95Z"/>
            <path class="cls-22" d="m199.48,163.62c-.19-.01-.38-.02-.57-.02-.48.05-.95.19-1.31.46.57.03,1.15.06,1.72.03.14,0,.28-.09.33-.23.04-.13-.04-.23-.17-.24Z"/>
            <path class="cls-22" d="m199.57,160.33s-.01,0-.02,0c-.03,0-.06.01-.09.02-.04.01-.07.03-.11.04,0,0-.06.02-.07.02-.08.02-.16.04-.24.06-.15.04-.31.07-.46.08-.06,0-.12.01-.18.02-.28.12-.53.3-.74.51.28.05.56.07.84.04.19-.02.38-.04.57-.09.21-.06.4-.15.58-.27.1-.06.2-.22.14-.34-.04-.09-.14-.11-.23-.1Z"/>
          </g>
        </g>
        <g>
          <path class="cls-22" d="m228.48,143.82c1.02,1.18,2.09,2.32,3.23,3.4,8.88,8.46,23.71,9.59,35.33,9.58,22.23-.02,44.31-8.3,61.46-22.37,2.71-2.22,13.13-13.53,7.72-13.2-6.63.41-13.19,1.74-19.84,1.9-32.85.79-60.05-21.49-79.54-45.79-3.98-4.97-10.85-12.51-16.52-5.17-1.46,1.9-2.34,4.17-3.04,6.46-6.33,20.72-3.22,48.41,11.2,65.19Z"/>
          <path class="cls-15" d="m278.34,118.11c-5.92-2.52-11.55-5.71-16.68-9.6-3.27-2.48-6.31-5.24-9.12-8.23,2.26,3.97,5.16,7.57,8.5,10.69,4.79,4.46,10.43,7.95,16.43,10.53,6.17,2.65,12.75,4.36,19.42,5.13,6.09.71,12.3.65,18.36-.3-5.99-.05-11.98-.9-17.82-2.2-6.52-1.45-12.96-3.4-19.1-6.02Z"/>
          <path class="cls-11" d="m336.61,121.23c-2.03,2.56-4.47,4.79-7.13,6.69-4.14,2.94-8.82,5.1-13.62,6.7-5.12,1.71-10.44,2.8-15.79,3.46-5.38.66-10.81.87-16.22.65-4.91-.2-9.82-.74-14.63-1.76-2.22-.47-4.4-1.08-6.57-1.76-3.2-1.02-6.38-2.26-9.28-3.97-2.78-1.64-5.69-3.9-7-6.94-1.31-3.04-.69-6.37-.25-9.53.76-5.52,1.13-11.09.77-16.65-.24-3.79-.8-7.62-1.9-11.28-2.84-3.09-5.55-6.27-8.12-9.48-3.98-4.96-10.85-12.51-16.52-5.17-1.46,1.9-2.34,4.17-3.04,6.46-6.33,20.72-3.22,48.41,11.2,65.19,1.02,1.18,2.09,2.32,3.23,3.4,8.88,8.46,23.71,9.59,35.33,9.58,22.23-.02,44.31-8.3,61.46-22.37,2.64-2.16,12.59-12.95,8.11-13.2Z"/>
          <path class="cls-11" d="m323.61,135.45c-3.71,2.29-7.66,4.19-11.7,5.82-3.58,1.44-7.25,2.75-10.98,3.74-4.56,1.21-9.25,1.95-13.92,2.52-5.87.71-11.8,1.06-17.72.94-5.71-.12-11.5-.64-17.02-2.18-4.4-1.23-8.97-3.21-11.95-6.81-3.02-3.64-3.57-8.34-2.62-12.86.31-1.48.77-2.93,1.32-4.35.98-2.54,1.87-5.1,2.53-7.74,1.37-5.45,1.86-11.06,1.79-16.67-.06-5.11-.52-10.28-2.77-14.94-.64-1.33-1.41-2.6-2.27-3.8-.49-.59-.97-1.18-1.45-1.78-.28-.35-.58-.72-.89-1.09-.71-.78-1.46-1.52-2.24-2.23-1.75-1.6-3.64-3.11-5.65-4.41-2.58-1-5.28-.63-7.74,2.57-1.46,1.9-2.34,4.17-3.04,6.46-6.33,20.72-3.22,48.41,11.2,65.19,1.02,1.18,2.09,2.32,3.23,3.4,8.88,8.46,23.71,9.59,35.33,9.58,22.23-.02,44.31-8.3,61.46-22.37,2.12-1.74,8.99-9.07,9.24-11.99-3.65,5.3-8.64,9.62-14.13,13.01Z"/>
        </g>
        <path class="cls-13" d="m207.2,143.35c11.86-4.07,23.29-10.41,29.76-20.99,6.26-10.24,6.92-23.31,3.37-34.78-3.55-11.47-10.96-21.45-19.72-29.65-13.28-12.44-30.12-21.29-48.11-24.05-16.56-2.54-33.79.75-48.54,8.6-15.12,8.05-25.62,23.63-42.69,28.12-1.15.3-2.39.59-3.21,1.45-.77.81-1.02,1.97-1.25,3.07-3.15,15.17-8.41,29.9-15.58,43.64,1.31-2.52,29.69,15.51,32.86,17.19,10.94,5.81,22.86,9.69,35,12.05,24.09,4.69,49.77,3.8,73.36-3.13,1.59-.47,3.18-.97,4.77-1.51Z"/>
        <path class="cls-15" d="m208.82,52.13c-6.45-4.72-13.54-8.59-21.12-11.15-7.97-2.69-16.37-3.75-24.76-3.89-8.35-.14-16.71.85-24.73,3.21-6.42,1.89-12.54,4.65-18.28,8.07,3.04-1.12,6.03-2.36,9.07-3.48,4.18-1.55,8.48-2.76,12.87-3.58,8.8-1.66,17.84-1.72,26.75-1.01,7.81.62,15.52,2.4,22.88,5.08,7.23,2.64,14.13,6.18,20.55,10.43,2.52,1.68,4.97,3.46,7.34,5.35-3.31-3.25-6.82-6.29-10.56-9.03Z"/>
        <path class="cls-11" d="m240.32,87.58c-1.95-6.29-5.06-12.13-8.91-17.48.47,2.47.7,4.99.73,7.48.03,3.47-.43,7.69-3.34,10.02-3.07,2.45-7.34,1.85-10.92,1.22-2.1-.37-4.19-.85-6.32-1.1-2.09-.25-4.04-.11-6.09.35-4.77,1.07-9.29,3.17-13.21,6.08-1.96,1.45-3.82,3.11-5.38,5-1.44,1.75-2.63,3.69-3.73,5.66-2.21,3.98-4.03,8.21-6.68,11.94-2.41,3.4-5.57,6.19-9.44,7.8-3.45,1.43-7.25,1.79-10.93,1.25-7.54-1.09-14.49-5.77-18.8-11.98-2.5-3.6-3.82-7.85-5.69-11.78-2.07-4.34-4.6-8.5-8.23-11.71-3.34-2.95-7.88-3.74-11.83-5.55-1.84-.84-3.62-1.94-4.94-3.5-1.29-1.52-2.07-3.4-2.49-5.34-.87-3.98-.5-8.23.15-12.22.55-3.36,1.92-6.67,3.64-9.67-8.13,6.82-16.15,13.77-26.64,16.54-1.15.3-2.39.59-3.21,1.45-.77.81-1.02,1.97-1.25,3.07-3.14,15.17-8.41,29.9-15.58,43.64,1.31-2.52,29.69,15.51,32.86,17.19,10.94,5.81,22.86,9.69,35,12.05,24.09,4.69,49.77,3.8,73.36-3.12,1.59-.47,3.18-.97,4.77-1.51,11.86-4.07,23.29-10.41,29.76-20.99,6.26-10.24,6.92-23.31,3.37-34.78Z"/>
        <path class="cls-11" d="m242.29,97.53c-.45,6.55-2.57,12.9-6.26,18.36-.14.21-.52.21-.58-.08-.51-2.43-1.05-4.86-1.83-7.21-.71-2.14-1.63-4.23-2.95-6.06-1.41-1.96-3.27-3.38-5.4-4.48-4.28-2.22-9.3-3.03-14.08-2.41,3.62,1.8,6.35,4.85,8.11,8.51,1.73,3.59,2.6,7.53,3.08,11.46.62,5.1.63,10.3-.21,15.38-.36,2.17-.91,4.32-1.56,6.43,6.61-3.75,12.4-8.62,16.35-15.07,4.5-7.36,6.11-16.19,5.33-24.83Z"/>
        <path class="cls-11" d="m231.52,127.13c.49-5.38.07-10.95-1.3-16.18-.63-2.39-1.44-4.76-2.66-6.92-.07-.13-.15-.26-.23-.39-.04,3.18-.77,6.36-2.02,9.37-1.07,2.58-2.47,5.02-4.09,7.3-1.48,2.08-3.11,4.14-5.08,5.77-3.37,2.76-7.91,4.77-12.33,3.93-4.75-.91-8.26-5.35-8.82-10.03-.61-5.05,1.43-9.94,1.63-14.95-.91.64-1.78,1.33-2.59,2.09-3.78,3.53-6.66,8.12-8.78,12.81-1.93,4.28-2.94,8.99-5.53,12.96-4.45,6.81-13.67,8.08-21.15,8.52-3.76.22-7.59.2-11.32-.31-3.73-.51-7.23-2.03-9.55-5.08-2.23-2.93-3.18-6.64-4.01-10.16-.79-3.32-1.49-6.66-2.39-9.95-.99-3.64-2.18-7.28-3.98-10.61-1.39-2.58-3.45-5.58-6.51-6.23.08.19.15.39.23.59,2.02,5.47,2.91,11.51,3.56,17.27.38,3.37.61,6.76.51,10.15-.08,2.65-.29,5.45-1.29,7.93-.65,1.62-1.78,3.19-3.63,3.44-1.48.2-2.85-.75-3.95-1.62-1.64-1.29-3.05-2.85-4.48-4.36-1.9-2-4.06-3.78-6.06-5.67-2.23-2.1-4.43-4.22-6.6-6.38-4.19-4.17-8.3-8.37-12.7-12.32-4.97-4.47-10.06-8.83-14.9-13.45-2.79,8.29-6.24,16.37-10.29,24.13,1.31-2.52,29.69,15.51,32.86,17.19,10.94,5.81,22.86,9.69,35,12.05,24.09,4.69,49.77,3.8,73.36-3.12,1.59-.47,3.18-.97,4.77-1.51,8.89-3.05,17.53-7.38,24.02-13.81.13-.8.22-1.61.3-2.41Z"/>
        <g>
          <path class="cls-13" d="m124.11,194.81c1.51-.37,3.13-.88,4.5-1.71.26-.29.5-.59.72-.91.72-1.05,1.18-2.26,1.29-3.53.17-1.9-.32-3.83-.76-5.67-.51-2.12-1.07-4.24-1.16-6.43-.09-2.25.06-4.51.33-6.74.55-4.57,1.62-9.05,2.55-13.56.95-4.57,1.59-9.15,1.82-13.82.46-9.03-.24-18.25-2.45-27.02-.92-3.65-2.12-7.26-3.77-10.65-.61-1.25-1.27-2.48-2.02-3.66-2.22-2.82-5.06-5.2-8.36-6.59-8.11-3.42-17.4,1.25-21.38,8.66-1.17,2.18-1.81,4.52-2.21,6.95-.5,3.03-.55,6.1-.32,9.16.21,2.85.72,5.66,1.16,8.48.39,2.51.79,5.06,1.76,7.44.07.36.13.72.2,1.08,2.15,11.5,4.92,23.14,3.21,34.9-.47,3.22-1.34,6.31-2.55,9.33-.92,2.3-2.02,4.53-3.04,6.78-.21.3-.43.59-.66.88-.53.66-1.09,1.3-1.67,1.91-.47.49-.96.98-1.27,1.59-.38.73-.39,1.55.29,2.1.7.55,1.73.66,2.58.69.63.02,1.29,0,1.93-.12.03.06.07.12.11.17.64.85,2.07.92,3.04.98,1.43.09,2.85.08,4.27-.15.66-.1,1.31-.23,1.96-.35.22.2.5.34.75.46.66.3,1.38.45,2.09.55,2.93.41,5.97.02,8.9-.14,2.73-.16,5.47-.41,8.13-1.06Z"/>
          <path class="cls-15" d="m94.05,127.77c.39,2.51.79,5.06,1.76,7.44.07.36.13.72.2,1.08,2.15,11.5,4.92,23.14,3.21,34.9-.47,3.22-1.34,6.31-2.55,9.33-.12.29-.25.59-.37.88,1.39-2.29,2.48-4.77,3.21-7.4,1.01-3.64,1.34-7.44,1.36-11.2.03-4.19-.38-8.36-1.01-12.5-.62-4.12-1.46-8.21-2.3-12.29-.84-4.04-1.63-8.08-2.38-12.13-1.34-7.22-2.28-14.82.64-21.78.89-2.12,2.07-4.05,3.45-5.83-1.54,1.42-2.86,3.09-3.84,4.93-1.17,2.18-1.81,4.52-2.21,6.95-.5,3.03-.55,6.1-.32,9.16.21,2.85.72,5.66,1.16,8.48Z"/>
          <path class="cls-11" d="m130.96,115.42c-.92-3.65-2.12-7.26-3.77-10.65-.61-1.25-1.27-2.48-2.02-3.66-2.22-2.82-5.06-5.2-8.36-6.59-8.11-3.42-17.4,1.25-21.38,8.66-1.17,2.18-1.81,4.52-2.21,6.95-.5,3.03-.55,6.1-.32,9.16.04.53.09,1.05.15,1.57.16-1.07.35-2.14.58-3.2.8-3.74,2-7.49,3.98-10.78,1.7-2.83,4.13-5.39,7.37-6.36,3.66-1.1,7.83.04,10.88,2.22,3.46,2.48,5.44,6.36,6.46,10.4,1.1,4.37,1.23,8.96,1.06,13.44-.19,5.07-.8,10.11-1.4,15.14-.88,7.36-1.86,14.71-2.74,22.07-.43,3.6-.95,7.23-1.02,10.85-.03,1.69.03,3.48.55,5.11.47,1.48,1.26,2.84,1.79,4.29.5,1.36.71,2.74.41,4.17-.23,1.12-.76,2.16-1.54,2.99-1.6,1.71-3.99,2.45-6.2,2.96-.17.04-.34-.05-.39-.22-.52-1.72-1.52-3.55-3.35-4.09-1.92-.57-3.89.47-5.36,1.62-.16.13-.49.12-.53-.14-.22-1.36-1.1-2.33-2.51-2.43-1.27-.1-2.6.38-3.59,1.18-.17.14-.48.12-.53-.14-.29-1.56-1.18-3.02-2.79-3.44-.05-.01-.1-.02-.16-.03-.13.28-.25.55-.38.83-.21.3-.43.59-.66.88-.53.66-1.09,1.3-1.67,1.91-.47.49-.96.98-1.27,1.59-.38.73-.39,1.55.29,2.1.7.55,1.73.66,2.58.69.63.02,1.29,0,1.93-.12.03.06.07.12.11.17.64.85,2.07.92,3.04.98,1.43.09,2.85.08,4.27-.15.66-.1,1.31-.23,1.96-.35.22.2.5.34.75.46.66.3,1.38.45,2.09.55,2.93.41,5.97.02,8.9-.14,2.73-.16,5.47-.41,8.13-1.06,1.51-.37,3.13-.88,4.5-1.71.26-.29.5-.59.72-.91.72-1.05,1.18-2.26,1.29-3.53.17-1.9-.32-3.83-.76-5.67-.51-2.12-1.07-4.24-1.16-6.43-.09-2.25.06-4.51.33-6.74.55-4.57,1.62-9.05,2.55-13.56.95-4.57,1.59-9.15,1.82-13.82.46-9.03-.24-18.25-2.45-27.02Z"/>
          <g>
            <path class="cls-5" d="m96.02,191.06c.03-.6-.1-1.26-.42-1.73-.44-.64-1.28-.79-1.99-.61-.82.21-1.55.7-2.18,1.23-.55.46-1.06.96-1.52,1.51-.83.98-2.04,2.73-.62,3.75.7.5,1.6.57,2.43.45.83-.12,1.68-.42,2.4-.85,1.31-.79,2.07-2.29,1.9-3.75Z"/>
            <path class="cls-17" d="m95.99,190.47c-1.98,1.23-3.53,3.09-4.47,5.22.07,0,.13-.01.2-.02.83-.12,1.68-.42,2.4-.85,1.31-.79,2.07-2.29,1.9-3.75,0-.19,0-.39-.03-.59Z"/>
            <path class="cls-5" d="m102.99,192.34c-.13-.48-.31-.96-.67-1.31-.04-.04-.08-.05-.13-.04-.22-.29-.5-.54-.82-.73-.81-.49-1.79-.62-2.7-.37-1.01.28-1.9.88-2.66,1.59-.35.33-.65.69-.96,1.05-.29.34-.58.67-.83,1.04-.46.67-.84,1.56-.34,2.32.48.74,1.42,1.03,2.25,1.14,1.73.22,3.56-.22,5.12-.96.92-.44,1.69-1.06,1.85-2.12.08-.53.02-1.09-.11-1.61Z"/>
            <path class="cls-17" d="m102.85,191.9c-2.11.71-3.73,2.83-4.28,5.04.94-.17,1.85-.48,2.69-.87.92-.44,1.69-1.06,1.85-2.12.08-.53.02-1.09-.11-1.61-.04-.15-.09-.3-.14-.45Z"/>
            <path class="cls-5" d="m112.03,194.93c-.28-1.15-.68-2.41-1.58-3.19-.68-.59-1.59-.85-2.49-.85-1.05,0-2.1.33-3.04.77-1.58.74-3.74,2.23-4.22,4.02-.08.31-.11.65-.02.96.17.59.71,1.01,1.3,1.2.92.29,1.97.16,2.92.16,1.65,0,3.29-.14,4.93-.28.79-.07,1.7-.2,2.13-.87.28-.44.27-1,.16-1.51-.03-.13-.06-.27-.1-.41Z"/>
            <path class="cls-17" d="m112.13,195.34c-.03-.14-.06-.27-.1-.41-.28-1.15-.68-2.41-1.58-3.19-.36-.31-.79-.53-1.25-.67,1.26.73,2.14,1.94,1.94,3.51-.19,1.53-1.28,2.56-2.57,3.25.42-.03.84-.07,1.26-.1.79-.07,1.7-.2,2.13-.87.28-.44.27-1,.16-1.51Z"/>
          </g>
          <g class="cls-24">
            <path class="cls-22" d="m105.6,166.51c-.71-.34-1.51-.4-2.29-.49-.79-.09-1.6-.21-2.35-.45-.03,0-.05,0-.08,0,1.13,1.27,3.05,1.29,4.73.95Z"/>
            <path class="cls-22" d="m103.36,162.84c-.19-.01-.38-.02-.58-.02-.48.05-.95.19-1.31.46.57.03,1.15.06,1.72.03.14,0,.28-.09.33-.23.04-.13-.04-.23-.17-.24Z"/>
            <path class="cls-22" d="m103.46,159.55s-.01,0-.02,0c-.03,0-.06.01-.09.02-.04.01-.07.03-.11.04,0,0-.06.02-.07.02-.08.02-.16.04-.24.06-.15.04-.31.07-.46.08-.06,0-.12.01-.18.02-.28.12-.53.3-.74.51.28.05.56.07.84.04.19-.02.38-.04.57-.09.21-.06.4-.15.58-.27.1-.06.2-.22.14-.34-.04-.09-.14-.11-.23-.1Z"/>
          </g>
        </g>
        <g>
          <g>
            <path class="cls-21" d="m43.77,70.04c1.69.15,3.55-.81,4.92-1.62,1.82-1.07,3.37-2.74,4.57-4.46,1.12-1.6,1.99-3.35,2.57-5.21-.92-1.62-2.8-2.77-4.24-3.76-2.04-1.4-3.97-2.92-5.79-4.6-2.02-1.86-3.94-3.83-6.11-5.53-.95-.74-1.96-1.46-3.02-2.03-.59-.32-1.29-.62-1.98-.55-1.08.1-1.58,1.2-1.83,2.12-.42,1.54-.47,3.15-.41,4.77.75,5.44,2.65,10.84,5.48,15.42,1.7,2.12,3.43,4.32,5.83,5.45Z"/>
            <path class="cls-7" d="m39.3,63.45c-.15-1.22-.35-2.44-.61-3.64-1-4.56-2.81-8.85-4.78-13.07-.05.67-.03,1.36.03,2.03.26,3.02,1.23,6,2.37,8.8.82,2.02,1.78,4.04,2.98,5.88Z"/>
            <path class="cls-19" d="m51.6,54.98c-2.04-1.4-3.97-2.92-5.79-4.6-1.97-1.82-3.86-3.73-5.96-5.4-.01.26-.03.51-.05.76-.06.8-.13,1.6-.11,2.41.03.99.27,2,.45,2.97.2,1.07.47,2.12.8,3.16.27.86.64,1.63,1.04,2.43.37.75.73,1.53.77,2.37.04.68-.1,1.36-.32,1.99-.67,1.93-1.91,3.61-2.96,5.37,1.25,1.46,2.6,2.79,4.3,3.59,1.69.15,3.55-.81,4.92-1.62,1.82-1.07,3.37-2.74,4.57-4.46,1.12-1.6,1.99-3.35,2.57-5.21-.92-1.62-2.8-2.77-4.24-3.76Z"/>
            <g>
              <path class="cls-22" d="m123.28,93.78c.79-3.12.64-6.32-.18-9.4-.17-.53-.35-1.07-.54-1.6-.33-.91-.68-1.82-1.01-2.74-.87-2.04-1.83-4.05-2.5-6.17-.95-3-1.27-6.09-.85-9.21.79-6,.7-12.62-3.57-17.38-1.96-2.19-4.64-3.66-7.03-5.32-2.03-1.41-3.97-3-5.33-5.09-1.52-2.33-1.97-5.13-3.5-7.45-1.35-2.05-3.28-3.53-5.33-4.83-2.3-1.46-4.73-2.67-6.61-4.69-1.8-1.94-7.46-14.94-11.1-11.79-1.6,1.39-1.71,4.77-2.11,6.71-1.01,4.89-2.17,9.61-3.53,14.4-2.28,7.92-4.95,17.42-10.35,23.82-4.78,5.64-5.47,14.78-5.55,22.01-.06,5.98.87,11.95,1.85,17.83.96,5.71,2.22,11.41,4.29,16.83,1.02,2.66,2.23,5.25,3.72,7.67,1.4,2.29,3.09,4.36,4.87,6.37,1.12,1.26,2.29,2.47,3.52,3.63,2.06.52,4.16.86,6.25,1.24,3.43.61,6.77,1.47,10.03,2.71,3.25,1.23,6.38,2.74,9.49,4.29,4.97,2.48,11.59,5.64,16.67,1.7,1.6-1.24,2.55-2.89,3.19-4.7.05-.29.09-.59.13-.89.22-1.8-.14-3.56-.27-5.35-.12-1.59.06-3.08.79-4.51.61-1.19,1.44-2.24,2.21-3.34.9-1.29,1.62-2.62,1.71-4.22.08-1.61-.36-3.1-.84-4.62-.87-2.76-1.43-5.42-.83-8.3.54-2.59,1.69-5.02,2.34-7.58Z"/>
              <path class="cls-9" d="m85.09,50.02c.88-.35,1.59-1.02,2.14-1.79,1.48-2.04,2.19-4.61,2.71-7.04.19-.91.35-1.82.48-2.74-.85,1.38-1.72,2.74-2.53,4.14-1.3,2.28-2.57,4.77-2.81,7.43Z"/>
              <path class="cls-9" d="m109.06,116.97c-1.43-.17-2.88-.14-4.32-.07.72.64,1.66,1.06,2.55,1.37,1.04.36,2.17.67,3.27.78.75.08,1.55,0,2.28-.17.07-.02.16-.04.26-.06-.83-1.29-2.61-1.68-4.04-1.85Z"/>
              <path class="cls-9" d="m106.34,90.21c.48.03.98-.05,1.43-.13,1.66-.31,3.32-.93,4.77-1.79.52-.31,1.62-.97,1.82-1.69-1.51.16-3.02.68-4.4,1.28-1.25.55-2.69,1.25-3.62,2.33Z"/>
              <path class="cls-9" d="m98.73,62.88c.61.11,1.25,0,1.84-.18,1.74-.52,3.36-1.64,4.62-2.93.55-.57,1.3-1.44,1.6-2.34-1.21.64-2.46,1.22-3.66,1.88-1.55.85-3.52,1.92-4.4,3.57Z"/>
              <path class="cls-9" d="m68.69,41.27c.7-1.41,1.21-2.92,1.7-4.41.59-1.79,1.1-3.59,1.43-5.45.34-1.9.51-3.81.6-5.73-1.88,6.33-4.1,12.55-6.11,18.83,1.03-.86,1.79-2.02,2.39-3.23Z"/>
              <path class="cls-11" d="m123.28,93.78c.79-3.12.64-6.32-.18-9.4-.17-.53-.35-1.07-.54-1.6-.33-.91-.68-1.82-1.01-2.74-.87-2.04-1.83-4.05-2.5-6.17-.95-3-1.27-6.09-.85-9.21.79-6,.7-12.62-3.57-17.38-1.96-2.19-4.64-3.66-7.03-5.32-2.03-1.41-3.97-3-5.33-5.09-1.52-2.33-1.97-5.13-3.5-7.45-1.35-2.05-3.28-3.53-5.33-4.83-2.3-1.46-4.73-2.67-6.61-4.69-1.8-1.94-7.46-14.93-11.1-11.79-.38,1.33-.47,2.74-.22,4.18.2,1.18.58,2.33,1.03,3.43.47,1.13,1.11,2.18,1.55,3.32.81,2.11.73,4.36.27,6.54-.41,1.95-.99,3.88-1.5,5.81-.7,2.66-1.38,5.33-2.28,7.93-.99,2.89-2.19,5.81-4.03,8.27-1.56,2.08-3.68,3.81-6.38,3.9-.18,0-.31-.13-.37-.28-.44-1.16-.52-2.41-.41-3.65-1.07,1.98-2.27,3.83-3.66,5.47-4.78,5.64-5.47,14.78-5.55,22.01-.06,5.98.87,11.95,1.85,17.83.96,5.71,2.22,11.41,4.29,16.83,1.02,2.66,2.23,5.25,3.72,7.67,1.4,2.29,3.09,4.36,4.87,6.37,1.12,1.26,2.29,2.47,3.52,3.63,2.06.52,4.16.86,6.25,1.24,3.43.61,6.77,1.47,10.03,2.71,3.25,1.23,6.38,2.74,9.49,4.29,4.97,2.48,11.59,5.64,16.67,1.7,1.6-1.24,2.55-2.89,3.19-4.7.05-.29.09-.59.13-.89.22-1.8-.14-3.56-.27-5.35-.12-1.59.06-3.08.79-4.51.61-1.19,1.44-2.24,2.21-3.34.9-1.29,1.62-2.62,1.71-4.22.08-1.61-.36-3.1-.84-4.62-.87-2.76-1.43-5.42-.83-8.3.54-2.59,1.69-5.02,2.34-7.58Zm-31.45-43.2c-1.36,1.05-2.81,2.02-4.31,2.86-1.11.62-2.38,1.33-3.68,1.4-1.11.06-1.77-.69-1.78-1.77-.01-.87.26-1.75.55-2.56.44-1.23.95-2.44,1.49-3.63,2.17-4.74,5.02-9.11,7.86-13.46.62-1.2,1.34-2.34,2.25-3.37.29-.32.69.04.65.38-.29,2.09-.11,4.19.27,6.25.33,1.76.79,3.5.94,5.29.13,1.48-.02,2.96-.62,4.34-.76,1.74-2.14,3.13-3.62,4.28Zm5.97,19.19c-1.26-.46-1.97-1.59-1.94-2.92.05-1.68.96-3.26,1.96-4.56,1.12-1.46,2.49-2.72,3.94-3.86,2.8-2.2,5.89-3.97,9.03-5.63.77-.49,1.59-.91,2.46-1.23.24-.09-1.83,2.89-2.34,4.88-.49,1.92.79,5.51,0,7.33-1.43,3.31-5.1,4.64-8.31,5.57-1.53.44-3.23.98-4.8.41Zm15.52,54.06c-1.45.71-3.29.46-4.76-.06-1.35-.48-2.67-1.06-3.95-1.7-1.35-.68-2.73-1.46-3.83-2.51-.76-.72-1.51-1.79-1.01-2.86.53-1.14,1.94-1.34,3.06-1.42,1.75-.14,3.53.03,5.27.25,1.38.17,2.76.39,4.12.68,1.1.23,2.87.69,3.1,2.02.03.19.03.39,0,.58.24-.08-.3,4.2-1.99,5.03Zm4.05-37.14c-.39,1.87-.51,3.86-1.82,5.37-1.12,1.28-2.79,1.93-4.4,2.34-1.53.39-3.2.6-4.77.3-1-.19-2.1-.72-2.74-1.54-1.16-1.48.32-3.01,1.49-3.88,1.94-1.43,4.28-2.37,6.54-3.18,1.81-.64,3.78-1.34,5.71-1.47.2-.01.39.19.39.39-.02.59-.18,1.13-.39,1.67Z"/>
              <path class="cls-11" d="m76.52,15.71c.1.25.22.5.33.74-.44-1.11-.75-2.27-.9-3.45-.23-1.86.02-3.68.7-5.36-.33.05-.65.19-.95.46-.38,1.33-.47,2.74-.22,4.18.2,1.18.58,2.33,1.03,3.43Z"/>
              <path class="cls-11" d="m76.97,14.26c.6,2.51,1.94,5.08,3.81,6.88,1.59,1.53,3.64,2.48,5.77,2.97,2.07.48,4.3.55,6.46.21-2.18-1.35-4.42-2.54-6.19-4.44-1.53-1.65-5.85-11.28-9.35-12.2-.88,2.05-1.03,4.35-.49,6.58Z"/>
              <path class="cls-11" d="m97.2,27.52c-.63.77-1.07,1.74-1.31,2.78-.49,2.04-.38,4.24.09,6.27.5,2.2,1.53,4.19,3.32,5.62,1.9,1.52,4.35,1.76,6.55.78.62-.28,1.2-.62,1.75-1.02,0,0-.01,0-.02-.01-2.03-1.41-3.97-3-5.33-5.09-1.52-2.33-1.97-5.13-3.5-7.45-.46-.69-.98-1.32-1.55-1.89Z"/>
              <path class="cls-11" d="m112.05,58.37c.11,1.96.77,3.93,1.66,5.67.81,1.59,1.97,3.35,3.66,4.11.23.1.45.17.67.21-.06-1.23-.02-2.46.15-3.7.59-4.48.69-9.31-1.08-13.45-1.14.22-2.22.65-3.07,1.45-1.47,1.39-2.1,3.74-1.99,5.72Z"/>
              <path class="cls-11" d="m121.11,99.39c.1.06.2.1.3.15.58-1.93,1.37-3.81,1.86-5.76.79-3.12.64-6.32-.18-9.4-.11-.35-.23-.7-.36-1.05-1.41.15-2.73.71-3.72,1.81-2.42,2.69-2.27,7.13-1.02,10.3.62,1.56,1.63,3.08,3.11,3.95Z"/>
              <path class="cls-11" d="m118.9,115.74c-1.55.87-2.56,2.63-3.29,4.19-1.4,2.99-1.17,6.15-.3,9.24.4,1.44,1.12,2.91,1,4.43-.09,1.24-.73,2.27-1.48,3.23-.28.35-.56.7-.84,1.05.3-.18.59-.37.87-.6,1.6-1.24,2.55-2.89,3.19-4.7.05-.29.09-.59.13-.89.22-1.8-.14-3.56-.27-5.35-.12-1.59.06-3.08.79-4.51.61-1.19,1.44-2.24,2.21-3.34.56-.8,1.05-1.61,1.36-2.5-.99-.69-2.16-.93-3.36-.26Z"/>
              <path class="cls-13" d="m99.49,86.06c-2.38-16.25-11.79-31.35-27.69-32.41-7.76-.51-15.41,1.9-22.14,5.62-6.58,3.63-10.55,9.44-13.83,16.1-.9,1.82-1.95,3.56-3.18,5.17-2.32,3.01-5.32,5.38-8.45,7.51-4.6,3.14-10.02,5.88-13.17,10.62-.03.11-.07.23-.1.34-.37,1.23-.79,2.56-.55,3.86.25,1.39,1.16,2.55,2.11,3.55.77.81,1.61,1.53,2.38,2.34,6.34,6.6,7.65,14.18,10.3,22.58,2.38,7.54,9.81,6.33,15.94,5.23,8.91-1.6,17.83-3.2,26.74-4.81,9.67-1.74,18.44-4.59,24.82-12.57,6.42-8.03,8.61-20.9,6.83-33.13Z"/>
              <path class="cls-15" d="m64.43,103.79c-1.61,2.1-2.73,4.49-3.44,7.02.59-.82,1.17-1.65,1.74-2.49,2.11-3.07,4.19-6.21,6.59-9.07-1.84,1.26-3.52,2.76-4.88,4.54Z"/>
              <path class="cls-11" d="m34.98,123.53c-.86,1.4-1.92,2.54-3.28,3.47-2.1,1.44-4.52,2.27-6.94,3.06.13.43.26.85.4,1.28.22.7.49,1.33.79,1.89,1.73-.67,3.39-1.52,4.98-2.46.77-.46,1.55-.93,2.28-1.46.85-.61,1.52-1.46,2.23-2.22.69-.74,1.42-1.59,2.33-2.06.91-.48,1.98-.12,2.91.15.62.18,1.24.38,1.87.52.69.15,1.4.14,2.11.12.51-.01,1.03-.05,1.54-.09-.47-.12-.94-.26-1.4-.42-5.12-1.83-9.18-6.15-10.51-11.4-.18.76-.31,1.54-.36,2.32-.08,1.19.12,2.21.55,3.31.34.86.6,1.69.8,2.59.05.23.13.48.07.72-.06.25-.24.48-.37.69Z"/>
              <path class="cls-15" d="m54.81,77.91c-.4.48-.77.97-1.1,1.5-2.69,4.28-3.29,9.55-3.32,14.57.37-1.17.7-2.36,1.01-3.55.83-3.12,1.58-6.37,3.28-9.16,1.65-2.72,4.17-4.52,7.13-5.51-2.48-1.06-4.97.41-7,2.15Z"/>
              <path class="cls-15" d="m32.96,82.82c.89-.69,1.72-1.46,2.47-2.32,3.17-3.68,4.7-8.36,6.72-12.74-.13.15-.26.3-.38.46-3.5,4.51-5.61,9.9-8.81,14.6Z"/>
              <path class="cls-11" d="m99.49,86.06c-2.38-16.25-11.79-31.35-27.69-32.41-7.76-.51-15.41,1.9-22.14,5.62-1.44.79-2.74,1.69-3.95,2.68.47,1.99,1.5,3.88,2.86,5.39,1.34,1.49,3.13,2.76,5.19,2.87.29.01.48.32.33.58-.91,1.59-1.91,3.13-2.77,4.75-1.53,2.87-2.38,6.05-3.39,9.12-.78,2.37-1.66,4.74-2.91,6.9-.45.96-.95,1.9-1.52,2.79,2.65-1.61,4.44-4.19,5.89-6.95,1.47-2.81,2.64-5.81,4.41-8.46,1.59-2.39,3.9-4.21,6.54-5.31,2.52-1.04,5.4-1.4,8.05-.65,2.83.8,5,2.86,6.27,5.48.13.28-.09.69-.44.57-3.09-1.11-6.43-1.63-9.71-1.37-2.85.22-5.77,1.09-7.95,3-2.39,2.09-3.56,5.24-3.76,8.36-.18,2.77.55,5.66,2.53,7.69,2.14,2.18,5.22,2.82,8.18,2.56.29-.03.48.35.33.58-1.74,2.72-3.3,5.8-3.39,9.08.89-1.47,1.87-2.89,2.94-4.24,4.48-5.67,10.74-10.21,18.03-11.04-.87-.56-1.97-.77-2.99-.85-1.41-.11-2.83,0-4.22.24-.37.06-.66-.35-.38-.64.71-.75,1.52-1.4,2.4-1.93,3.44-2.09,8.14-2.38,11.21.54,2.65,2.52,3.33,6.38,3.07,9.88-.27,3.61-1.41,7.29-3.36,10.34-2.23,3.5-5.41,6.29-8.95,8.4-3.74,2.23-7.86,3.77-12.02,5-2.05.61-4.12,1.14-6.2,1.65-1.6.39-3.19.86-4.8,1.24-3.66.86-7.46,1.5-11.23,1.29-3.45-.19-6.99-1.21-9.06-4.17-2.55-3.64-3.21-8.24-4.84-12.3-.86-2.14-2.11-4.02-3.5-5.85-1.43-1.9-3.09-3.71-5.24-4.8-.29-.15-.21-.51,0-.67,1.39-1.06,2.73-2.2,4.03-3.38,1.5-1.37,2.95-2.8,4.27-4.34,1.2-1.4,2.37-2.93,3.09-4.64.5-1.2.8-2.64.05-3.8-.55-.85-1.48-1.36-2.48-1.69-1.86,1.83-3.95,3.43-6.11,4.9-4.6,3.14-10.02,5.88-13.17,10.62-.03.11-.07.23-.1.34-.37,1.23-.79,2.56-.55,3.86.25,1.39,1.16,2.55,2.11,3.55.77.81,1.61,1.53,2.38,2.34,6.34,6.6,7.65,14.18,10.3,22.58,2.38,7.54,9.81,6.33,15.94,5.23,8.91-1.6,17.83-3.2,26.74-4.81,9.67-1.74,18.44-4.59,24.82-12.57,6.42-8.03,8.61-20.9,6.83-33.13Z"/>
              <path class="cls-11" d="m32.85,132.15c.12-3.94-.35-7.89-1.23-11.73-.83-3.66-1.98-7.3-3.95-10.52-2.03-3.32-4.83-6.19-8.21-8.14-2.64-1.52-5.57-2.4-8.59-2.59-.36,1.19-.73,2.46-.51,3.7.25,1.39,1.16,2.55,2.11,3.55.77.81,1.61,1.53,2.38,2.34,6.34,6.6,7.65,14.18,10.3,22.58,1.26,4,3.95,5.54,7.11,5.93.36-1.69.53-3.44.58-5.12Z"/>
              <path class="cls-11" d="m99.49,86.06c-2.38-16.25-11.79-31.35-27.69-32.41-6.08-.4-12.09,1-17.65,3.41-.39,1.11-.66,2.27-.88,3.38-.39,1.96-.65,4.07-.31,6.06.25,1.44.93,2.99,2.58,3.11,1.21.09,2.43-.43,3.48-.97,1.49-.76,2.83-1.79,4.02-2.97,2.37-2.36,4.24-5.33,5.19-8.54.05-.16.2-.28.37-.28,1.65,0,3.27.35,4.78.99,5.35,2.27,8.94,7.65,11.24,12.77.14.3-.09.65-.44.57-4.98-1.13-10.17-.94-15.26-.73,6.12,1.5,12.76,2.58,18.02,6.3,2.64,1.87,4.73,4.37,6.13,7.28,1.63,3.38,2.46,7.15,2.66,10.89.4,7.36-1.83,14.75-5.95,20.83-2.05,3.03-4.56,5.76-7.44,8.03-3.23,2.55-6.93,4.51-10.71,6.13-1.98.85-4,1.59-6.04,2.24.74-.13,1.49-.27,2.23-.4,9.67-1.74,18.44-4.59,24.82-12.57,6.42-8.03,8.61-20.9,6.83-33.13Z"/>
              <g>
                <g>
                  <path class="cls-14" d="m71.44,87.93c0,5.04-4.09,9.13-9.13,9.13s-9.13-4.09-9.13-9.13,4.09-9.13,9.13-9.13,9.13,4.09,9.13,9.13Z"/>
                  <path class="cls-8" d="m70.8,87.95c0,4.73-3.83,8.56-8.56,8.56s-8.56-3.83-8.56-8.56,3.83-8.56,8.56-8.56,8.56,3.83,8.56,8.56Z"/>
                </g>
                <g>
                  <path class="cls-18" d="m70.86,88.44c0,3.76-3.05,6.8-6.8,6.8s-6.8-3.05-6.8-6.8,3.05-6.8,6.8-6.8,6.8,3.05,6.8,6.8Z"/>
                  <path class="cls-10" d="m67.64,89.09c0,1.81-1.46,3.27-3.27,3.27s-3.27-1.46-3.27-3.27,1.46-3.27,3.27-3.27,3.27,1.46,3.27,3.27Z"/>
                  <path class="cls-8" d="m64.13,86.2c0,1.19-.97,2.16-2.16,2.16s-2.16-.97-2.16-2.16.97-2.16,2.16-2.16,2.16.97,2.16,2.16Z"/>
                </g>
              </g>
              <path class="cls-11" d="m79.66,71.46c-3.42-.19-6.71-1-10.06-1.63-3.18-.6-6.55-1.01-9.71-.08-3.03.89-5.47,2.92-7.2,5.53-1.64,2.46-2.61,5.28-3.57,8.06-.55,1.59-1.08,3.19-1.75,4.74-.66,1.53-1.5,2.88-2.38,4.29-.06.09.07.1.12.05,2.07-1.81,3.24-4.68,4.26-7.17,1.11-2.73,2-5.55,3.42-8.15,1.42-2.6,3.45-4.89,6.26-5.99,3.08-1.21,6.57-.85,9.76-.37,3.53.53,7.19,1.49,10.78,1.1.19-.02.35-.37.08-.38Z"/>
              <g>
                <path class="cls-16" d="m29.3,126.47c-.7-1.45-1.98-2.43-3.61-2.51-1.92-.09-3.76.89-5.23,2.05-.06.05-.1.09-.13.14-1.71.14-3.41.39-5.06.52-4.08.33-8.49-.27-12.1,2.09-.22.14-.48.43-.37.72,1.19,3.09,4.15,5.06,7.05,6.36,3.09,1.39,6.46,2.23,9.82,2.63,1.72.2,3.49.31,5.21.1,1.69-.2,3.51-.73,4.54-2.19.97-1.38,1.07-3.19.94-4.82-.13-1.66-.34-3.59-1.07-5.11Z"/>
                <path class="cls-4" d="m30.37,131.58c-.13-1.66-.34-3.59-1.07-5.11-.7-1.45-1.98-2.43-3.61-2.51-1.92-.09-3.76.89-5.23,2.05-.06.05-.1.09-.13.14-1.71.14-3.41.39-5.06.52-4.08.33-8.49-.27-12.1,2.09-.22.14-.48.43-.37.72.26.68.61,1.3,1.03,1.88.7.26,1.42.47,2.15.63,4.38.96,8.93.66,13.35,1.43,1.89.33,3.85.86,5.42,2.01.98.72,1.72,1.64,2.22,2.69.97-.34,1.86-.87,2.46-1.73.97-1.38,1.07-3.19.94-4.82Z"/>
                <path class="cls-20" d="m1.12,117.78c-.36,1.84-.75,3.68-.97,5.55-.34,2.95-.44,7.68,3.61,7.78.61.01,1.21-.09,1.81-.16.81-.1,1.63-.17,2.44-.21,1.58-.09,3.17-.09,4.76-.05,3.25.08,6.49.35,9.75.35,1.45,0,2.94,0,4.37-.22.88-.14,1.78-.42,2.47-1.01.4-.35.68-.77.87-1.24-.26-3.23-1.04-6.44-1.96-9.54-.39-1.34-.82-2.67-1.3-3.97-.16-.45-.33-.89-.52-1.33-.23-.53-.55-1-.86-1.49-2.43-3.87-5.02-8.03-8.7-10.83-1.46-1.11-3.32-2.08-5.21-1.84-1.62.21-2.98,1.3-4.04,2.49-2.69,3.05-4.25,7.14-5.39,10.99-.47,1.56-.82,3.14-1.14,4.73Z"/>
                <path class="cls-2" d="m7.36,104.83c-.51.84-.98,1.69-1.42,2.56-1.26,2.51-2.25,5.17-2.84,7.91-.53,2.5-.71,5.13-.13,7.64,1.45-.3,2.76-1,3.72-2.17,1.87-2.28,2.17-5.56,2.07-8.39-.1-2.55-.55-5.14-1.39-7.56Z"/>
                <path class="cls-4" d="m28.27,119.03c-.39-1.34-.82-2.67-1.3-3.97-.16-.45-.33-.89-.52-1.33-.23-.53-.55-1-.86-1.49-2.43-3.87-5.02-8.03-8.7-10.83-1.46-1.11-3.32-2.08-5.21-1.84-.65.08-1.26.31-1.82.63,1.61.11,3.06,1.13,4.18,2.31,1.9,2,3.32,4.43,4.36,6.98,1.06,2.6,1.76,5.41,1.82,8.23.05,2.11-.22,4.52-1.46,6.3-2.05,2.93-5.99,3.13-9.22,3.49-1.83.2-3.68.44-5.41,1.1-1.02.39-1.92.96-2.68,1.67.55.51,1.31.82,2.32.84.61.01,1.21-.09,1.81-.16.81-.1,1.63-.17,2.44-.21,1.58-.09,3.17-.09,4.76-.05,3.25.08,6.49.35,9.75.35,1.45,0,2.94,0,4.37-.22.88-.14,1.78-.42,2.47-1.01.4-.35.68-.77.87-1.24-.26-3.23-1.04-6.44-1.96-9.54Z"/>
              </g>
              <path class="cls-7" d="m24.79,81.9c-2.94-1.89-5.79-3.9-8.56-6.02-1.35-1.03-4.38-4.57-6.29-3.93-1.84.62-2.17,3.75-2.21,5.32-.1,3.65.42,7.32,1.52,10.81.97,3.1,2.71,8.25,5.37,10.34,5.03,3.97,15.72-6.3,15.91-11.1.09-2.18-3.5-3.99-5.01-4.95-.24-.15-.48-.31-.72-.46Z"/>
              <path class="cls-12" d="m12.32,89.13c.87,2.09,1.97,4.29,3.61,5.92-.89-5.66-3.68-10.67-6.23-15.75.05.37.1.75.16,1.12.48,2.98,1.3,5.93,2.46,8.71Z"/>
              <path class="cls-3" d="m25.51,82.37c-.24-.15-.48-.31-.72-.46-2.94-1.89-5.79-3.9-8.56-6.02-1.35-1.03-4.38-4.57-6.29-3.93-1.84.62-2.17,3.75-2.21,5.32-.1,3.65.42,7.32,1.52,10.81.97,3.1,2.71,8.25,5.37,10.34,5.03,3.97,15.72-6.3,15.91-11.1.09-2.18-3.5-3.99-5.01-4.95Zm-3.6,12.9c-1.32,1.66-3.56,2.07-5.49,1.33-.93-.35-1.78-.92-2.44-1.67-.79-.9-1.28-2.08-1.79-3.16-1.24-2.61-2.28-5.33-2.96-8.14-.56-2.31-.88-4.73-.63-7.1-.11-1.04-.13-2.62,1.05-2.39.47.09.87.46,1.2.78.52.5.97,1.07,1.4,1.65.89,1.17,1.64,2.44,2.53,3.61,1.22,1.6,2.68,3.03,3.99,4.56,2.3,2.67,5.92,7.02,3.13,10.53Z"/>
              <path class="cls-7" d="m54.06,68.94c1.69.15,3.55-.81,4.92-1.62,1.82-1.07,3.37-2.74,4.57-4.46,1.12-1.6,1.99-3.35,2.57-5.21-.92-1.62-2.8-2.77-4.24-3.76-2.04-1.4-3.97-2.92-5.79-4.6-2.02-1.86-3.94-3.83-6.11-5.53-.95-.74-1.96-1.46-3.02-2.03-.59-.32-1.29-.62-1.98-.55-1.08.1-1.58,1.2-1.83,2.12-.42,1.54-.47,3.15-.41,4.77.75,5.44,2.65,10.84,5.48,15.42,1.7,2.12,3.43,4.32,5.83,5.45Z"/>
              <path class="cls-12" d="m53.62,65.38c-.33-1.31-.77-2.58-1.3-3.82-1.97-4.56-5.02-8.49-7.73-12.62.06.29.12.58.19.86.8,3.29,2.37,6.38,4.14,9.25,1.37,2.23,2.91,4.41,4.71,6.33Z"/>
              <path class="cls-3" d="m61.89,53.89c-2.04-1.4-3.97-2.92-5.79-4.6-2.02-1.86-3.94-3.83-6.11-5.53-.95-.74-1.96-1.46-3.02-2.03-.59-.32-1.29-.62-1.98-.55-1.08.1-1.58,1.2-1.83,2.12-.29,1.06-.4,2.15-.42,3.26.24-1.49.74-2.94,1.75-4.07.12-.13.32-.13.47-.06,1.22.59,2.12,1.74,2.9,2.81.98,1.35,1.83,2.78,2.75,4.17.76,1.15,1.6,2.18,2.57,3.16,1.21,1.2,2.51,2.32,3.67,3.57.88.95,1.95,2.11,2.31,3.39.24.88.14,1.84-.03,2.73-.41,2.1-1.39,4.2-2.75,5.87-.17.21-.36.42-.56.62,1.14-.3,2.26-.9,3.17-1.43,1.82-1.07,3.37-2.74,4.57-4.46,1.12-1.6,1.99-3.35,2.57-5.21-.92-1.62-2.8-2.77-4.24-3.76Z"/>
            </g>
            <g>
              <path class="cls-7" d="m87.55,20.65c.82-.49,1.33-1.32,1.67-2.23.12-.84.21-1.68.29-2.52.25-2.58.31-5.18.16-7.77-.2-1.48-.48-2.96-.88-4.4-.35-1.25-.84-2.91-2.1-3.54-1.13-.56-2.42.22-3.29.93-1.44,1.18-2.56,2.72-3.53,4.29-.99,1.61-1.84,3.32-2.46,5.12-.33,1.68-.4,3.44.23,5.04.94,1.39,2.06,2.67,3.35,3.71,1.7,1.37,4.42,2.62,6.53,1.37Z"/>
              <path class="cls-3" d="m89.68,8.13c-.2-1.48-.48-2.96-.88-4.4-.35-1.25-.84-2.91-2.1-3.54-.98-.49-2.07.03-2.91.64.66.09,1.25.44,1.58,1.14.57,1.23.29,2.79.05,4.06-.25,1.35-.64,2.65-.73,4.03-.11,1.62-.21,3.36-.98,4.82-.52.99-1.53,1.93-2.69,2.06-1.57.17-2.79-1.09-3.66-2.41.08.35.17.71.31,1.05.94,1.39,2.06,2.67,3.35,3.71,1.7,1.37,4.42,2.62,6.53,1.37.82-.49,1.33-1.32,1.67-2.23.12-.84.21-1.68.29-2.52.25-2.58.31-5.18.16-7.77Z"/>
              <path class="cls-7" d="m102.21,24.4c-.7.55-1.39,1.13-2.08,1.67-.92.71-2.05,1.42-3.06,2.24-1.1,1.36-1.98,2.89-1.84,4.65.2,2.44,2.07,4.66,3.69,6.37,1.26,1.33,3.18,3.16,5.19,2.59,1.78-.51,2.45-2.8,2.87-4.38.46-1.71.78-3.47,1.19-5.19.51-2.16,1.07-4.48.79-6.71-.45-3.6-3.54-3-6.75-1.24Z"/>
              <path class="cls-3" d="m108.96,25.64c-.12-.96-.44-1.62-.88-2.04-.12.49-.26.97-.41,1.45-.49,1.5-1.16,2.92-1.79,4.36-.9,2.05-1.79,4.18-3.19,5.94-.56.71-1.27,1.41-2.18,1.64-.77.19-1.57.09-2.24-.34-1.52-.95-2.22-2.94-2.57-4.61-.07-.35-.14-.73-.19-1.11-.22.64-.33,1.31-.28,2.01.2,2.44,2.07,4.66,3.69,6.37,1.26,1.33,3.18,3.16,5.19,2.59,1.78-.51,2.45-2.8,2.87-4.38.46-1.71.78-3.47,1.19-5.19.5-2.16,1.07-4.48.79-6.71Z"/>
              <path class="cls-7" d="m128.27,52.65c-4.44-.8-15.22-3.28-14.6,4.23.22,2.75.4,8.06,3.86,8.84.91.21,1.86,0,2.75-.27,3.69-1.08,7.23-3.03,10.11-5.6.95-.85,2.23-2.03,2.38-3.38.19-1.73-3.22-3.6-4.49-3.83Z"/>
              <path class="cls-3" d="m130.37,56.37c-1.32.99-2.71,1.75-4.19,2.45-2.25,1.07-4.56,2.46-7.06,2.81-1.78.25-3.26-.59-4.02-2.22-.78-1.68-.84-3.66-.58-5.47.03-.19.06-.38.1-.57-.7.8-1.08,1.93-.95,3.5.22,2.75.4,8.06,3.86,8.84.91.21,1.86,0,2.75-.27,3.69-1.08,7.23-3.03,10.11-5.6.95-.85,2.23-2.03,2.38-3.38.06-.51-.2-1.03-.63-1.52-.58.48-1.16.96-1.76,1.41Z"/>
              <path class="cls-7" d="m137.24,87.18c-2.73-1.21-5.64-2-8.59-2.45-4.5-.68-9.19-1.21-9.89,4.52-.29,2.35-.13,5.16,1.87,6.74,2.34,1.85,5.42.69,7.87-.35,2.78-1.19,5.47-2.61,8.01-4.25,1.85-1.19,3.38-3.05.73-4.22Z"/>
              <path class="cls-3" d="m138.24,87.83c-1.64.84-3.3,1.67-5,2.4-2.11.9-4.29,1.7-6.56,2.07-1.72.28-3.99.51-5.43-.7-1.14-.95-1.27-2.53-1.01-3.9.17-.93.52-1.84.99-2.68-1.27.68-2.18,1.97-2.46,4.24-.29,2.35-.13,5.16,1.87,6.74,2.34,1.85,5.42.69,7.87-.35,2.78-1.19,5.47-2.61,8.01-4.25,1.54-.99,2.84-2.43,1.73-3.57Z"/>
              <path class="cls-7" d="m135.46,121.69c-.64-.47-1.39-.8-2.13-1.08-1.73-.67-3.56-1.1-5.37-1.49-1.39-.29-2.79-.52-4.18-.81-1.07-.22-2.14-.45-3.22-.6-.15.05-.3.1-.45.15-.7.25-1.28.54-1.79,1.1-1.22,1.35-1.64,3.34-1.69,5.11-.04,1.51.13,3.44,1.23,4.59.85.89,2.11,1,3.27.97.04,0,.09,0,.13,0,2.52-.57,4.97-1.34,7.43-2.11,1.58-.5,3.16-1.06,4.64-1.81.75-.38,1.5-.8,2.13-1.36.41-.37.91-.9.84-1.5-.05-.5-.49-.88-.87-1.16Z"/>
              <path class="cls-3" d="m131.97,124.22c-2.23.63-4.58.98-6.9.95-1.78-.02-3.99-.2-5.42-1.38-1.31-1.09-1.61-2.98-1.05-4.54.11-.3.24-.58.4-.84-.24.15-.46.33-.67.56-1.22,1.35-1.64,3.34-1.69,5.11-.04,1.51.13,3.44,1.23,4.59.85.89,2.11,1,3.27.97.04,0,.09,0,.13,0,2.52-.57,4.97-1.34,7.43-2.11,1.58-.5,3.16-1.06,4.64-1.81.75-.38,1.5-.8,2.13-1.36.41-.37.91-.9.84-1.5-.01-.13-.05-.25-.11-.36-1.32.78-2.81,1.32-4.25,1.72Z"/>
            </g>
          </g>
          <path class="cls-6" d="m43.15,125.14c-2.64-.42-4.99-1.73-6.72-3.77-1.21-1.44-2.28-3.09-2.94-4.88.29,2.43,1.1,4.8,2.88,6.48-.3.65-.64,1.27-1.09,1.87-.75,1-1.66,1.92-2.62,2.71-.9.74-1.87,1.42-2.94,1.9-1.17.52-2.43.8-3.69.97-2.66.35-5.38.17-8.05.11-2.53-.06-5.07-.08-7.6-.21-1.07-.06-2.15-.09-3.21.05-.83.11-1.75.33-2.31,1-.07.09.04.14.11.08.7-.69,1.83-.76,2.76-.78,1.01-.03,2.02.05,3.03.15,2.65.25,5.32.41,7.97.59,2.66.18,5.32.42,7.98,0,2.51-.39,4.74-1.5,6.68-3.13,1.11-.93,2.13-1.96,2.99-3.12.31-.42.65-.91.94-1.42,1.24.86,2.69,1.5,4.17,1.79,1.18.23,2.54.29,3.67-.22-.67-.02-1.34-.07-2-.17Z"/>
        </g>
        <g>
          <path class="cls-13" d="m237.35,159.31c-.41-1.14-1.17-2.18-2.43-3.04-1.37-.94-2.94-1.54-4.36-2.41-1.38-.85-2.79-1.95-2.96-3.68-.17-1.79.46-3.64.89-5.36.55-2.21,1.2-4.4,1.8-6.6,2.8-10.35,4.36-22.77-.38-32.81-2.17-4.61-5.95-8.14-10.81-9.74-3.09-1.02-6.47-1.37-9.69-.89-3.52.53-6.83,2.07-9.71,4.14-13.25,9.54-18.36,27.92-15.16,43.48.96,4.65,2.63,9.19,4.83,13.4,1.68,3.23,3.87,6.19,6.73,8.48,2.81,2.25,6.24,3.9,9.75,4.73.67.16,1.4.29,1.98.67,2.59,1.7,1.25,7.19.78,9.58-.66,3.34-1.5,8.16-4.95,9.73-1.49.68-3.63.92-4.3,2.68-.55,1.44.86,2.49,2.13,2.71.5.09,1.01.08,1.5-.04.13.78.74,1.35,1.49,1.68,3.02,1.33,7.09.55,10.28.39,5.28-.27,11.34-.11,16.22-2.39,4.47-2.1,3.14-5.49,2.02-9.29-.81-2.75.06-5.1.87-7.78.65-2.17,1.24-4.36,1.86-6.53.99-3.48,2.83-7.76,1.62-11.13Z"/>
          <path class="cls-15" d="m201.23,167.11c-1.46-1.03-2.84-2.16-4.15-3.37-2.33-2.15-4.39-4.56-6.08-7.24-3.25-5.18-5.07-11.15-5.72-17.2-.69-6.36-.26-13,1.62-19.13,2.06-6.71,5.87-12.72,10.45-18,1.53-1.76,3.2-3.41,4.98-4.92-.91.5-1.79,1.06-2.63,1.67-13.25,9.54-18.36,27.92-15.16,43.48.96,4.65,2.63,9.19,4.83,13.4,1.68,3.23,3.87,6.19,6.73,8.48,1.89,1.52,4.07,2.75,6.36,3.65-.42-.26-.82-.54-1.23-.83Z"/>
          <path class="cls-11" d="m235.74,170.43c.99-3.48,2.83-7.76,1.62-11.13-.41-1.14-1.17-2.18-2.43-3.04-1.37-.94-2.94-1.54-4.36-2.41-1.38-.85-2.79-1.95-2.96-3.68-.17-1.79.46-3.64.89-5.36.55-2.21,1.2-4.4,1.8-6.6,2.8-10.35,4.36-22.77-.38-32.81-2.17-4.61-5.95-8.14-10.81-9.74-3.09-1.02-6.47-1.37-9.69-.89-3.52.53-6.83,2.07-9.71,4.14-4.23,3.04-7.62,6.99-10.19,11.45,1.57-2.1,3.42-3.98,5.54-5.52,2.39-1.73,5.18-3.12,8.11-3.61,2.64-.44,5.35-.05,7.66,1.34,2.24,1.34,3.94,3.42,5.18,5.69,3.23,5.94,3.57,12.96,2.75,19.53-.49,3.96-1.33,7.86-1.92,11.8-.3,2.01-.53,4.02-.62,6.05-.07,1.7-.11,3.45.34,5.1.3,1.12.86,2.13,1.71,2.93.84.79,1.87,1.36,2.89,1.88,1.22.63,2.55,1.13,3.66,1.96.99.74,1.77,1.73,2.25,2.87,1.01,2.36.83,5.06.4,7.53-.44,2.55-1.21,5.03-1.93,7.51-.42,1.45-1.05,2.83-1.56,4.25-.51,1.43-1.04,2.98-.93,4.51.1,1.38,1.1,2.45,1.81,3.57.62.98.92,2.07.16,3.07-.87,1.16-2.34,1.86-3.7,2.25-1.35.38-2.83.57-4.23.35-.54-.08-1.09-.24-1.5-.61-.42-.38-.63-.92-.97-1.36-1.04-1.34-3.16-.26-4.11.66-.15.14-.4.12-.5-.06-.98-1.71-3.43-1.88-4.73-.46-.2.21-.53.04-.54-.22-.08-1.54-1.1-1.99-2.38-1.89-1.24.43-2.52.9-3.01,2.19-.55,1.44.86,2.49,2.13,2.71.5.09,1.01.08,1.5-.04.13.78.74,1.35,1.49,1.68,3.02,1.33,7.09.55,10.28.39,5.28-.27,11.34-.11,16.22-2.39,4.47-2.1,3.14-5.49,2.02-9.29-.81-2.75.06-5.1.87-7.78.65-2.17,1.24-4.36,1.86-6.53Z"/>
          <g>
            <path class="cls-5" d="m204,192.86c.02-.45-.07-.94-.31-1.28-.33-.48-.95-.58-1.48-.45-.6.15-1.15.52-1.62.91-.41.34-.79.71-1.13,1.12-.62.73-1.52,2.03-.46,2.78.52.37,1.19.42,1.8.33.62-.09,1.25-.31,1.78-.63.97-.58,1.54-1.7,1.41-2.78Z"/>
            <path class="cls-17" d="m203.98,192.42c-1.47.91-2.62,2.29-3.32,3.87.05,0,.1,0,.15-.02.62-.09,1.25-.31,1.78-.63.97-.58,1.54-1.7,1.41-2.78,0-.14,0-.29-.02-.44Z"/>
            <path class="cls-5" d="m209.18,193.81c-.09-.35-.23-.71-.5-.97-.03-.03-.06-.03-.1-.03-.16-.22-.37-.4-.61-.54-.6-.37-1.33-.46-2.01-.28-.75.2-1.41.66-1.97,1.18-.26.24-.48.51-.71.78-.21.25-.43.5-.61.77-.34.5-.62,1.16-.25,1.72.36.55,1.06.77,1.67.85,1.28.17,2.64-.17,3.8-.71.68-.32,1.26-.79,1.37-1.57.06-.4.02-.81-.08-1.19Z"/>
            <path class="cls-17" d="m209.07,193.48c-1.57.53-2.77,2.1-3.18,3.74.69-.13,1.37-.35,1.99-.65.68-.32,1.26-.79,1.37-1.57.06-.4.02-.81-.08-1.19-.03-.11-.07-.22-.11-.33Z"/>
            <path class="cls-5" d="m215.89,195.73c-.21-.85-.51-1.79-1.17-2.36-.5-.44-1.18-.63-1.85-.63-.78,0-1.56.25-2.26.57-1.17.55-2.78,1.66-3.13,2.98-.06.23-.08.48-.01.72.12.44.53.75.96.89.68.22,1.46.12,2.17.12,1.22,0,2.44-.11,3.66-.21.59-.05,1.26-.15,1.58-.65.21-.33.2-.74.12-1.12-.02-.1-.05-.2-.07-.31Z"/>
            <path class="cls-17" d="m215.96,196.03c-.02-.1-.05-.2-.07-.31-.21-.85-.51-1.79-1.17-2.36-.27-.23-.59-.39-.92-.5.93.54,1.59,1.44,1.44,2.6-.14,1.14-.95,1.9-1.91,2.41.31-.02.62-.05.94-.08.59-.05,1.26-.15,1.58-.65.21-.33.2-.74.12-1.12Z"/>
          </g>
          <g class="cls-24">
            <path class="cls-22" d="m215.85,178.28c-.71-.34-1.51-.4-2.29-.49-.79-.09-1.6-.21-2.35-.45-.03,0-.05,0-.08,0,1.13,1.27,3.05,1.29,4.73.95Z"/>
            <path class="cls-22" d="m213.61,174.61c-.19-.01-.38-.02-.57-.02-.48.05-.95.19-1.31.46.57.03,1.15.06,1.72.03.14,0,.28-.09.33-.23.04-.13-.04-.23-.17-.24Z"/>
            <path class="cls-22" d="m213.7,171.32s-.01,0-.02,0c-.03,0-.06.01-.09.02-.04.01-.07.03-.11.04,0,0-.06.02-.07.02-.08.02-.16.04-.24.06-.15.04-.31.07-.46.08-.06,0-.12.01-.18.02-.28.12-.53.3-.74.51.28.05.56.07.84.04.19-.02.38-.04.57-.09.21-.06.4-.15.58-.27.1-.06.2-.22.14-.34-.04-.09-.14-.11-.23-.1Z"/>
          </g>
        </g>
      </g>
    </g>
  </g>
</svg>