<svg width="156" height="59" viewBox="0 0 156 59" fill="none" xmlns="http://www.w3.org/2000/svg">
<ellipse cx="29" cy="29.5" rx="29" ry="29.5" fill="#303030"/>
<path d="M12.6129 18.3048H11.2104V20.0897H46.7809V18.3048H44.996L28.9319 8.23291L12.6129 18.3048Z" fill="white"/>
<path d="M43.3386 42.146V20.8547H39.1313V42.146H38.8764V42.7834H38.2389V44.1858H44.1036V42.7834H43.5936V42.146H43.3386Z" fill="white"/>
<path d="M35.1791 42.146V20.8547H30.9718V42.146H30.5893V42.7834H30.0794V44.1858H35.944V42.7834H35.4341V42.146H35.1791Z" fill="white"/>
<path d="M27.0195 42.146V20.8547H22.8123V42.146H22.4298V42.7834H21.9198V44.1858H27.7845V42.7834H27.2745V42.146H27.0195Z" fill="white"/>
<path d="M18.86 42.146V20.8547H14.6528V42.146H14.2703V42.7834H13.7603V44.1858H19.625V42.7834H19.115V42.146H18.86Z" fill="white"/>
<path d="M41.6812 45.3333H16.1827V46.0982H41.6812V45.3333Z" fill="white"/>
<path d="M43.9761 46.3532H13.8878V47.8831H43.9761V46.3532Z" fill="white"/>
<path d="M47.0359 48.1381H11.2104L12.4854 49.2855H45.3785L47.0359 48.1381Z" fill="white"/>
<path d="M12.6129 18.3048H11.2104V20.0897H46.7809V18.3048H44.996L28.9319 8.23291L12.6129 18.3048Z" stroke="black" stroke-width="0.472303"/>
<path d="M43.3386 42.146V20.8547H39.1313V42.146H38.8764V42.7834H38.2389V44.1858H44.1036V42.7834H43.5936V42.146H43.3386Z" stroke="black" stroke-width="0.472303"/>
<path d="M35.1791 42.146V20.8547H30.9718V42.146H30.5893V42.7834H30.0794V44.1858H35.944V42.7834H35.4341V42.146H35.1791Z" stroke="black" stroke-width="0.472303"/>
<path d="M27.0195 42.146V20.8547H22.8123V42.146H22.4298V42.7834H21.9198V44.1858H27.7845V42.7834H27.2745V42.146H27.0195Z" stroke="black" stroke-width="0.472303"/>
<path d="M18.86 42.146V20.8547H14.6528V42.146H14.2703V42.7834H13.7603V44.1858H19.625V42.7834H19.115V42.146H18.86Z" stroke="black" stroke-width="0.472303"/>
<path d="M41.6812 45.3333H16.1827V46.0982H41.6812V45.3333Z" stroke="black" stroke-width="0.472303"/>
<path d="M43.9761 46.3532H13.8878V47.8831H43.9761V46.3532Z" stroke="black" stroke-width="0.472303"/>
<path d="M47.0359 48.1381H11.2104L12.4854 49.2855H45.3785L47.0359 48.1381Z" stroke="black" stroke-width="0.472303"/>
<path d="M90.3621 40.4514C90.3621 41.4315 90.0072 42.2764 89.2975 42.9861C88.6216 43.662 87.7936 44 86.8135 44H72.6192C71.6392 44 70.7943 43.662 70.0845 42.9861C69.4086 42.2764 69.0707 41.4315 69.0707 40.4514V22.7086C69.0707 21.7285 69.4086 20.9005 70.0845 20.2246C70.7943 19.5149 71.6392 19.16 72.6192 19.16H86.8135C87.7936 19.16 88.6216 19.5149 89.2975 20.2246C90.0072 20.9005 90.3621 21.7285 90.3621 22.7086V26.2571H86.3066V22.7086H73.1262V40.4514H86.3066V36.9029H90.3621V40.4514ZM114.717 40.4514C114.717 41.4315 114.362 42.2764 113.652 42.9861C112.976 43.662 112.148 44 111.168 44H96.9741V40.4514H110.661V33.3543H100.523C99.5426 33.3543 98.6977 33.0163 97.988 32.3404C97.312 31.6307 96.9741 30.7858 96.9741 29.8057V22.7086C96.9741 21.7285 97.312 20.9005 97.988 20.2246C98.6977 19.5149 99.5426 19.16 100.523 19.16H114.717V22.7086H101.03V29.8057H111.168C112.148 29.8057 112.976 30.1606 113.652 30.8703C114.362 31.5462 114.717 32.3742 114.717 33.3543V40.4514ZM147.68 43.9493H143.624V25.294L145.145 22.7593H142.864L136.629 36.9029H133.688L127.656 22.7593H125.375L126.895 25.294V43.9493H122.84V19.16H130.089L135.108 31.0224H135.615L140.633 19.16H147.68V43.9493Z" fill="#303030"/>
</svg>
