<svg width="159" height="60" viewBox="0 0 159 60" fill="none" xmlns="http://www.w3.org/2000/svg">
<ellipse cx="29.3905" cy="29.8973" rx="29.3905" ry="29.8973" fill="white"/>
<path d="M12.7826 18.5513H11.3613V20.3602H47.4108V18.5513H45.6019L29.3215 8.34375L12.7826 18.5513Z" fill="#0057A3"/>
<path d="M43.9221 42.7135V21.1355H39.6582V42.7135H39.3998V43.3595H38.7538V44.7808H44.6974V43.3595H44.1806V42.7135H43.9221Z" fill="#0057A3"/>
<path d="M35.6527 42.7135V21.1355H31.3888V42.7135H31.0012V43.3595H30.4843V44.7808H36.428V43.3595H35.9111V42.7135H35.6527Z" fill="#0057A3"/>
<path d="M27.3833 42.7135V21.1355H23.1194V42.7135H22.7318V43.3595H22.2149V44.7808H28.1586V43.3595H27.6417V42.7135H27.3833Z" fill="#0057A3"/>
<path d="M19.1139 42.7135V21.1355H14.85V42.7135H14.4624V43.3595H13.9455V44.7808H19.8892V43.3595H19.3723V42.7135H19.1139Z" fill="#0057A3"/>
<path d="M42.2424 45.9437H16.4005V46.719H42.2424V45.9437Z" fill="#0057A3"/>
<path d="M44.5682 46.9774H14.0747V48.5279H44.5682V46.9774Z" fill="#0057A3"/>
<path d="M47.6692 48.7863H11.3613L12.6534 49.9492H45.9895L47.6692 48.7863Z" fill="#0057A3"/>
<path d="M12.7826 18.5513H11.3613V20.3602H47.4108V18.5513H45.6019L29.3215 8.34375L12.7826 18.5513Z" stroke="black" stroke-width="0.478664"/>
<path d="M43.9221 42.7135V21.1355H39.6582V42.7135H39.3998V43.3595H38.7538V44.7808H44.6974V43.3595H44.1806V42.7135H43.9221Z" stroke="black" stroke-width="0.478664"/>
<path d="M35.6527 42.7135V21.1355H31.3888V42.7135H31.0012V43.3595H30.4843V44.7808H36.428V43.3595H35.9111V42.7135H35.6527Z" stroke="black" stroke-width="0.478664"/>
<path d="M27.3833 42.7135V21.1355H23.1194V42.7135H22.7318V43.3595H22.2149V44.7808H28.1586V43.3595H27.6417V42.7135H27.3833Z" stroke="black" stroke-width="0.478664"/>
<path d="M19.1139 42.7135V21.1355H14.85V42.7135H14.4624V43.3595H13.9455V44.7808H19.8892V43.3595H19.3723V42.7135H19.1139Z" stroke="black" stroke-width="0.478664"/>
<path d="M42.2424 45.9437H16.4005V46.719H42.2424V45.9437Z" stroke="black" stroke-width="0.478664"/>
<path d="M44.5682 46.9774H14.0747V48.5279H44.5682V46.9774Z" stroke="black" stroke-width="0.478664"/>
<path d="M47.6692 48.7863H11.3613L12.6534 49.9492H45.9895L47.6692 48.7863Z" stroke="black" stroke-width="0.478664"/>
<path d="M91.579 41.4842C91.579 42.4775 91.2194 43.3338 90.5001 44.053C89.8151 44.7381 88.976 45.0806 87.9827 45.0806H73.5972C72.604 45.0806 71.7477 44.7381 71.0284 44.053C70.3434 43.3338 70.0009 42.4775 70.0009 41.4842V23.5024C70.0009 22.5091 70.3434 21.67 71.0284 20.985C71.7477 20.2657 72.604 19.906 73.5972 19.906H87.9827C88.976 19.906 89.8151 20.2657 90.5001 20.985C91.2194 21.67 91.579 22.5091 91.579 23.5024V27.0988H87.4689V23.5024H74.111V41.4842H87.4689V37.8878H91.579V41.4842ZM116.262 41.4842C116.262 42.4775 115.902 43.3338 115.183 44.053C114.498 44.7381 113.659 45.0806 112.666 45.0806H98.2801V41.4842H112.152V34.2915H101.876C100.883 34.2915 100.027 33.949 99.3076 33.264C98.6226 32.5447 98.2801 31.6884 98.2801 30.6951V23.5024C98.2801 22.5091 98.6226 21.67 99.3076 20.985C100.027 20.2657 100.883 19.906 101.876 19.906H116.262V23.5024H102.39V30.6951H112.666C113.659 30.6951 114.498 31.0548 115.183 31.774C115.902 32.4591 116.262 33.2982 116.262 34.2915V41.4842ZM149.669 45.0292H145.559V26.1226L147.1 23.5538H144.788L138.469 37.8878H135.489L129.375 23.5538H127.063L128.604 26.1226V45.0292H124.494V19.906H131.841L136.927 31.9282H137.441L142.527 19.906H149.669V45.0292Z" fill="white"/>
</svg>
