<svg width="59" height="60" viewBox="0 0 59 60" fill="none" xmlns="http://www.w3.org/2000/svg">
<ellipse cx="29.3905" cy="29.8973" rx="29.3905" ry="29.8973" fill="#303030"/>
<path d="M12.7828 18.5512H11.3615V20.3601H47.4109V18.5512H45.602L29.3216 8.34363L12.7828 18.5512Z" fill="white"/>
<path d="M43.9223 42.7134V21.1354H39.6584V42.7134H39.3999V43.3594H38.7539V44.7807H44.6975V43.3594H44.1807V42.7134H43.9223Z" fill="white"/>
<path d="M35.6529 42.7134V21.1354H31.3889V42.7134H31.0013V43.3594H30.4845V44.7807H36.4281V43.3594H35.9113V42.7134H35.6529Z" fill="white"/>
<path d="M27.3834 42.7134V21.1354H23.1195V42.7134H22.7319V43.3594H22.2151V44.7807H28.1587V43.3594H27.6419V42.7134H27.3834Z" fill="white"/>
<path d="M19.114 42.7134V21.1354H14.8501V42.7134H14.4625V43.3594H13.9456V44.7807H19.8893V43.3594H19.3724V42.7134H19.114Z" fill="white"/>
<path d="M42.2425 45.9436H16.4006V46.7189H42.2425V45.9436Z" fill="white"/>
<path d="M44.5683 46.9773H14.0749V48.5278H44.5683V46.9773Z" fill="white"/>
<path d="M47.6693 48.7862H11.3615L12.6535 49.9491H45.9896L47.6693 48.7862Z" fill="white"/>
<path d="M12.7828 18.5512H11.3615V20.3601H47.4109V18.5512H45.602L29.3216 8.34363L12.7828 18.5512Z" stroke="black" stroke-width="0.478664"/>
<path d="M43.9223 42.7134V21.1354H39.6584V42.7134H39.3999V43.3594H38.7539V44.7807H44.6975V43.3594H44.1807V42.7134H43.9223Z" stroke="black" stroke-width="0.478664"/>
<path d="M35.6529 42.7134V21.1354H31.3889V42.7134H31.0013V43.3594H30.4845V44.7807H36.4281V43.3594H35.9113V42.7134H35.6529Z" stroke="black" stroke-width="0.478664"/>
<path d="M27.3834 42.7134V21.1354H23.1195V42.7134H22.7319V43.3594H22.2151V44.7807H28.1587V43.3594H27.6419V42.7134H27.3834Z" stroke="black" stroke-width="0.478664"/>
<path d="M19.114 42.7134V21.1354H14.8501V42.7134H14.4625V43.3594H13.9456V44.7807H19.8893V43.3594H19.3724V42.7134H19.114Z" stroke="black" stroke-width="0.478664"/>
<path d="M42.2425 45.9436H16.4006V46.7189H42.2425V45.9436Z" stroke="black" stroke-width="0.478664"/>
<path d="M44.5683 46.9773H14.0749V48.5278H44.5683V46.9773Z" stroke="black" stroke-width="0.478664"/>
<path d="M47.6693 48.7862H11.3615L12.6535 49.9491H45.9896L47.6693 48.7862Z" stroke="black" stroke-width="0.478664"/>
</svg>
