<svg width="45" height="43" viewBox="0 0 45 43" fill="none" xmlns="http://www.w3.org/2000/svg">
<path d="M17.3291 5.61008C16.6598 4.03368 15.0392 3 13.2371 3H7.17533C4.86936 3 3 4.76071 3 6.93318C3 25.3992 18.89 40.3693 38.4908 40.3693C40.7967 40.3693 42.6656 38.608 42.6656 36.4355L42.6667 30.7238C42.6667 29.0259 41.5698 27.4994 39.8965 26.8689L34.0867 24.6803C32.5837 24.1139 30.8724 24.3688 29.6287 25.3451L28.1293 26.5233C26.3782 27.8981 23.8016 27.7888 22.1898 26.2702L17.9677 22.2889C16.3558 20.7704 16.2367 18.3449 17.696 16.6952L18.9463 15.2827C19.9827 14.111 20.2556 12.4984 19.6544 11.0823L17.3291 5.61008Z" fill="white" stroke="black" stroke-width="4.40729" stroke-linecap="round" stroke-linejoin="round"/>
</svg>
